<svg xmlns="http://www.w3.org/2000/svg" width="30" height="30" viewBox="0 0 30 30"><defs><style>.a{fill:#e6e6e6;}.b{fill:#b2b2b2;}</style></defs><rect class="a" width="30" height="30" rx="15"/><path class="b" d="M12.025,26.79H9.052A14.985,14.985,0,0,1,0,21.559a17.783,17.783,0,0,1,6.515-3.706s.858,2.834,5.436,2.93c4.577-.1,5.432-2.93,5.432-2.93a19.215,19.215,0,0,1,6.064,3.3,14.992,14.992,0,0,1-9.38,5.643ZM8.36,17.2c-.005,0-.009-.01-.009-.01v-.02H8.36l.23-.779a5.007,5.007,0,0,1-.949-1.174l-1.664-4.1c-2.371-2.837-.132-3.739-.132-3.739-.026-.321-.026-.79-.02-1.247.014-.724.051-1.417.051-1.417-.764-.206-2.319-3.6-1.664-3.517A5.89,5.89,0,0,0,6.5.887,14.485,14.485,0,0,1,12.116.017h.006c.116,0,2.151.01,2.942.694a2.521,2.521,0,0,1,2.2.61c.025.03.059.053.086.083l-.022,0a2.867,2.867,0,0,1,.715,1.566,2.4,2.4,0,0,1,0,.464s.077,1.507.1,2.7h.01c.01.457.01.926-.016,1.247,0,0,2.232.9-.132,3.732l-1.665,4.1a4.412,4.412,0,0,1-1.1,1.28.629.629,0,0,1-.068.054l.181.62h.007a.029.029,0,0,0,0,.01l.006.01-.006.01c-.035.787-1.59,1.42-3.5,1.42S8.4,17.986,8.36,17.2Z" transform="translate(3.44 3.001)"/></svg>