<svg xmlns="http://www.w3.org/2000/svg" width="55.471" height="55.471" viewBox="0 0 55.471 55.471"><defs><style>.a{fill:#fff;}</style></defs><path class="a" d="M128.108,210.532l-9.117-5.164a1.059,1.059,0,0,1,1.044-1.842l7.537,4.269v-10.24a1.058,1.058,0,0,1,2.117,0V209.61a1.058,1.058,0,0,1-1.58.922Zm-3.532-5.391c-13.472-24-33.164-31.635-33.361-31.709a1.059,1.059,0,0,1,.743-1.983c.835.313,20.593,7.943,34.463,32.655a1.058,1.058,0,1,1-1.845,1.037Z" transform="translate(84.952 -185.199) rotate(45)"/></svg>