<svg xmlns="http://www.w3.org/2000/svg" width="50" height="50" viewBox="0 0 50 50"><defs><style>.a{fill:#fff;}.b{fill:#b2b2b2;}</style></defs><g transform="translate(-1482 1450)"><rect class="a" width="50" height="50" rx="25" transform="translate(1482 -1450)"/><path class="b" d="M828.353,174.652c1.028-3.115,3.686-4.388,6.375-5.52,2.113-.858,4.191-1.751,6.3-2.609L847,172.885l5.969-6.362c2.112.858,4.191,1.751,6.3,2.609,2.69,1.1,5.348,2.4,6.375,5.52a25,25,0,0,1-37.295,0Zm23.141-11.525a8.113,8.113,0,0,0,3.084-6.434v-6.719l-1.106-.322a14.226,14.226,0,0,1-3.219-1.394l-.737-.428-.738.464a16.654,16.654,0,0,1-7.879,2.645l-1.442.107v5.648a8.226,8.226,0,0,0,3.084,6.434c.2.178.1.536-.167.5a44.422,44.422,0,0,1-7.88-1.716,2.049,2.049,0,0,1-1.274-2.573l4.057-12.832A10.248,10.248,0,0,1,847,139a5.618,5.618,0,0,1,2.046.357,6.2,6.2,0,0,1,1.71,1.18,2.665,2.665,0,0,1,1.744.179,10.268,10.268,0,0,1,4.258,5.79l4.057,12.832a2.049,2.049,0,0,1-1.274,2.573,44.422,44.422,0,0,1-7.88,1.716l-.037,0A.274.274,0,0,1,851.494,163.127Z" transform="translate(660 -1583)"/></g></svg>