<svg xmlns="http://www.w3.org/2000/svg" width="30" height="30" viewBox="0 0 30 30"><defs><style>.a{fill:#e30513;}.b{fill:#fff;fill-rule:evenodd;}</style></defs><g transform="translate(-258.218 -252.868)"><path class="a" d="M273.218,252.868a15,15,0,1,0,15,15,15,15,0,0,0-15-15Z"/><path class="b" d="M276.922,285.038l3.1-8.506a2.345,2.345,0,0,1,.828-1.093l-.992-2.127a1.579,1.579,0,0,0-2.1-.764l-8.2,3.825a1.519,1.519,0,0,0-.734,2.018l3.825,8.2a1.579,1.579,0,0,0,2.1.764l2.111-.984A2.277,2.277,0,0,1,276.922,285.038Zm-4.055-5.184a1.555,1.555,0,0,1-2.038-.741l-.017-.037a1.483,1.483,0,0,1,.744-1.961,1.555,1.555,0,0,1,2.038.741l.017.036A1.484,1.484,0,0,1,272.868,279.854Zm2.567,5.506a1.555,1.555,0,0,1-2.038-.741l-.017-.037a1.483,1.483,0,0,1,.744-1.961,1.555,1.555,0,0,1,2.038.741l.017.036A1.483,1.483,0,0,1,275.435,285.36Zm.9-8.814-.017-.038a1.483,1.483,0,0,1,.744-1.961,1.554,1.554,0,0,1,2.038.741l.017.036a1.484,1.484,0,0,1-.744,1.963A1.555,1.555,0,0,1,276.336,276.546Z" transform="translate(-7.255 -13.552)"/><path class="b" d="M311.395,286.554l-8.506-3.1a1.577,1.577,0,0,0-2.024.944l-3.1,8.506a1.519,1.519,0,0,0,.908,1.947l8.506,3.1a1.578,1.578,0,0,0,2.024-.944l3.1-8.506A1.519,1.519,0,0,0,311.395,286.554Z" transform="translate(-27.378 -21.158)"/><path class="a" d="M314.476,295.386a2.808,2.808,0,0,0-3.722-1.34l-.019.009-.018.009a3.228,3.228,0,0,0-1.5,1.852h0l-.026.069-.01.025-.064.171c-.045.12-.088.24-.13.37l1.294.488c.063-.2.129-.393.2-.582a1.947,1.947,0,0,1,.838-1.147l.018-.009a1.436,1.436,0,0,1,1.9.687,1.465,1.465,0,0,1-.66,1.944l-.018.009a3.42,3.42,0,0,1-2.41-.4l-1.122-.416-.3-.114a4.169,4.169,0,0,0-3.387-.314,2.856,2.856,0,0,0-1.291,3.789,2.816,2.816,0,0,0,3.741,1.333l.019-.009a3.333,3.333,0,0,0,1.523-1.869h0c.028-.063.059-.145.089-.228l.006-.016h0c.046-.127.089-.26.119-.352l-1.289-.487c-.065.206-.133.409-.212.6a1.936,1.936,0,0,1-.84,1.1,1.385,1.385,0,0,1-1.1.063,1.434,1.434,0,0,1-.825-.742,1.464,1.464,0,0,1,.66-1.944l.017-.008a3.286,3.286,0,0,1,2.28.37l.127.048,0,.007,1.136.412.148.059c1.034.41,2.318.918,3.488.373l.043-.02A2.857,2.857,0,0,0,314.476,295.386Z" transform="translate(-31.607 -28.387)"/></g></svg>