<svg xmlns="http://www.w3.org/2000/svg" width="82.063" height="41" viewBox="0 0 82.063 41"><defs><style>.a{fill:#fff;}.b{fill:red;stroke:rgba(0,0,0,0);}</style></defs><g transform="translate(-2159.676 -667.679)"><circle class="a" cx="19" cy="19" r="19" transform="translate(2161.176 669.179)"/><path class="b" d="M469.175-2628.821a19.878,19.878,0,0,1-7.785-1.572,19.936,19.936,0,0,1-6.357-4.286,19.935,19.935,0,0,1-4.286-6.357,19.874,19.874,0,0,1-1.572-7.785,19.875,19.875,0,0,1,1.572-7.785,19.934,19.934,0,0,1,4.286-6.357,19.935,19.935,0,0,1,6.357-4.286,19.872,19.872,0,0,1,7.785-1.572,19.874,19.874,0,0,1,7.785,1.572,19.935,19.935,0,0,1,6.357,4.286,19.935,19.935,0,0,1,4.286,6.357,19.875,19.875,0,0,1,1.572,7.785,19.874,19.874,0,0,1-1.572,7.785,19.936,19.936,0,0,1-4.286,6.357,19.936,19.936,0,0,1-6.357,4.286A19.88,19.88,0,0,1,469.175-2628.821Zm9.631-24.577c-3.759,0-6.284,2.4-6.284,5.961a5.911,5.911,0,0,0,1.683,4.376,6.348,6.348,0,0,0,4.531,1.631,6.43,6.43,0,0,0,4.546-1.628,5.835,5.835,0,0,0,1.715-4.356,5.863,5.863,0,0,0-1.7-4.338A6.3,6.3,0,0,0,478.806-2653.4Zm-22.867,6.69a2.371,2.371,0,0,0-1.494,2.31c0,1.886,1.8,2.968,4.926,2.968a5.948,5.948,0,0,0,4.428-1.513,6.56,6.56,0,0,0,1.51-4.724v-6.951c0-1.421-.674-2.141-2-2.141h-.668c-1.279,0-1.956.74-1.956,2.141v6.882c0,1.723-.561,2.394-2,2.394a3.4,3.4,0,0,1-2.716-1.358A.031.031,0,0,0,455.939-2646.708Zm12.932-6.575c-1.313,0-1.978.72-1.978,2.14v7.365c0,1.461.643,2.141,2.025,2.141h.461c1.282,0,1.932-.72,1.932-2.141v-7.365c0-1.48-.61-2.14-1.979-2.14Zm.208-5.34a2.048,2.048,0,0,0-2.324,2.072c0,1.291.917,2.094,2.392,2.094a2.058,2.058,0,0,0,2.326-2.094C471.473-2657.829,470.556-2658.623,469.079-2658.623Zm9.68,13.81a2.447,2.447,0,0,1-2.486-2.624,2.675,2.675,0,0,1,.7-1.869,2.438,2.438,0,0,1,1.787-.731,2.447,2.447,0,0,1,2.486,2.623,2.668,2.668,0,0,1-.708,1.862A2.43,2.43,0,0,1,478.76-2644.813Z" transform="translate(1711 3337)"/><g transform="translate(2205.252 680.502)"><path class="a" d="M2390.892,731.243a3.4,3.4,0,0,1,1.188.2,2.575,2.575,0,0,1,.95.61,2.811,2.811,0,0,1,.629,1.017,4.12,4.12,0,0,1,.227,1.432,4.557,4.557,0,0,1-.186,1.331,2.932,2.932,0,0,1-.558,1.054,2.617,2.617,0,0,1-.934.7,3.147,3.147,0,0,1-1.316.254h-2.846v-6.6Zm-.1,5.378a1.868,1.868,0,0,0,.61-.1,1.36,1.36,0,0,0,.528-.337,1.7,1.7,0,0,0,.369-.615,2.689,2.689,0,0,0,.139-.924,3.828,3.828,0,0,0-.1-.9,1.8,1.8,0,0,0-.319-.688,1.42,1.42,0,0,0-.587-.439,2.352,2.352,0,0,0-.9-.152H2389.5v4.158Z" transform="translate(-2388.046 -731.091)"/><rect class="a" width="1.45" height="6.597" transform="translate(7.078 0.152)"/><path class="a" d="M2441.518,737.178a2.434,2.434,0,0,1-.952.2,3.384,3.384,0,0,1-1.363-.263,2.913,2.913,0,0,1-1.02-.726,3.181,3.181,0,0,1-.638-1.086,3.975,3.975,0,0,1-.222-1.345,4.111,4.111,0,0,1,.222-1.372,3.272,3.272,0,0,1,.638-1.1,2.9,2.9,0,0,1,1.02-.739,3.331,3.331,0,0,1,1.363-.268,3.218,3.218,0,0,1,.985.152,2.79,2.79,0,0,1,.858.448,2.424,2.424,0,0,1,.939,1.728h-1.386a1.394,1.394,0,0,0-.5-.832,1.453,1.453,0,0,0-.9-.277,1.686,1.686,0,0,0-.831.19,1.566,1.566,0,0,0-.555.508,2.231,2.231,0,0,0-.31.725,3.636,3.636,0,0,0-.1.841,3.379,3.379,0,0,0,.1.808,2.186,2.186,0,0,0,.31.708,1.585,1.585,0,0,0,.555.5,1.691,1.691,0,0,0,.831.189,1.415,1.415,0,0,0,1.571-1.422h-1.461v-1.081h2.773v3.566h-.924l-.148-.748a2.168,2.168,0,0,1-.858.7" transform="translate(-2427.575 -730.474)"/><rect class="a" width="1.45" height="6.597" transform="translate(17.278 0.152)"/><path class="a" d="M2487.723,732.463v-1.22h5.406v1.22h-1.977v5.378H2489.7v-5.378Z" transform="translate(-2468.005 -731.091)"/><path class="a" d="M2516.228,731.245l2.467,6.6h-1.506l-.5-1.469h-2.467l-.518,1.469h-1.46l2.495-6.6Zm.083,4.047-.832-2.421h-.018l-.859,2.421Z" transform="translate(-2487.677 -731.092)"/><path class="a" d="M2550.364,731.243v5.378h3.215v1.22h-4.666v-6.6Z" transform="translate(-2517.091 -731.091)"/><path class="a" d="M2389.73,774.743v5.378h3.216v1.22h-4.666v-6.6Z" transform="translate(-2388.233 -765.986)"/><rect class="a" width="1.45" height="6.598" transform="translate(5.886 8.757)"/><path class="a" d="M2437.364,774.743v1.22h-3.187v1.525h2.762v1.127h-2.762v2.726h-1.451v-6.6Z" transform="translate(-2423.888 -765.986)"/><path class="a" d="M2466.8,774.743v1.22h-3.484v1.414h3.2V778.5h-3.2v1.617h3.557v1.22h-5.008v-6.6Z" transform="translate(-2447.261 -765.986)"/></g></g></svg>