<svg xmlns="http://www.w3.org/2000/svg" xmlns:xlink="http://www.w3.org/1999/xlink" width="40" height="40" viewBox="0 0 40 40"><defs><style>.a{fill:url(#a);}.b{fill:#fff;}.c,.d{stroke:none;}.d{fill:#f90000;}</style><linearGradient id="a" x1="0.5" x2="0.5" y2="1" gradientUnits="objectBoundingBox"><stop offset="0" stop-color="red"/><stop offset="1" stop-color="#9b0000"/></linearGradient></defs><g transform="translate(6.999 5)"><g class="a" transform="translate(-6.999 -5)"><path class="c" d="M 34 39.59999847412109 L 6 39.59999847412109 C 2.912149906158447 39.59999847412109 0.4000000059604645 37.08784866333008 0.4000000059604645 34 L 0.4000000059604645 6 C 0.4000000059604645 2.912149906158447 2.912149906158447 0.4000000059604645 6 0.4000000059604645 L 34 0.4000000059604645 C 37.08784866333008 0.4000000059604645 39.59999847412109 2.912149906158447 39.59999847412109 6 L 39.59999847412109 34 C 39.59999847412109 37.08784866333008 37.08784866333008 39.59999847412109 34 39.59999847412109 Z"/><path class="d" d="M 6 0.7999992370605469 C 3.132709503173828 0.7999992370605469 0.7999992370605469 3.132709503173828 0.7999992370605469 6 L 0.7999992370605469 34 C 0.7999992370605469 36.86729049682617 3.132709503173828 39.20000076293945 6 39.20000076293945 L 34 39.20000076293945 C 36.86729049682617 39.20000076293945 39.20000076293945 36.86729049682617 39.20000076293945 34 L 39.20000076293945 6 C 39.20000076293945 3.132709503173828 36.86729049682617 0.7999992370605469 34 0.7999992370605469 L 6 0.7999992370605469 M 6 0 L 34 0 C 37.3137092590332 0 40 2.686290740966797 40 6 L 40 34 C 40 37.3137092590332 37.3137092590332 40 34 40 L 6 40 C 2.686290740966797 40 0 37.3137092590332 0 34 L 0 6 C 0 2.686290740966797 2.686290740966797 0 6 0 Z"/></g><path class="b" d="M55.889,7.091c1.154-1.225,2.984-3.058,5.521-5.291A1.021,1.021,0,0,0,61.5.345,1.055,1.055,0,0,0,60.02.262c-2.051,1.8-3.652,3.357-4.825,4.555l.005.006A3.13,3.13,0,0,1,55.889,7.091Z" transform="translate(-47.983 0)"/><path class="b" d="M26.431,48.418A1.634,1.634,0,0,0,24.476,47.2h0a23.573,23.573,0,0,0-12.121,6.382c-1.267-1.4-3.336-3.658-4.566-4.8A3.154,3.154,0,0,1,6.7,50.382,3.254,3.254,0,0,1,2.54,50.26a2.607,2.607,0,0,0-.394.32A8.8,8.8,0,0,0,.8,52.4,7.834,7.834,0,0,0,.256,53.53,3.6,3.6,0,0,0,0,54.761a2,2,0,0,0,.095.622,1.623,1.623,0,0,0,.69.88,2,2,0,0,0,1.063.276,4.247,4.247,0,0,0,1.234-.216c.235-.073.482-.163.749-.27A21.9,21.9,0,0,0,6.641,54.6,1.023,1.023,0,0,0,7,53.183a1.053,1.053,0,0,0-1.435-.351,19.977,19.977,0,0,1-2.531,1.315c-.123.051-.237.094-.343.132a4.511,4.511,0,0,1-.535.156,2.84,2.84,0,0,1,.108-.3,6.324,6.324,0,0,1,.421-.829l.541.453A21.894,21.894,0,0,0,5.414,52.59a1.343,1.343,0,0,1,1.829.447,1.306,1.306,0,0,1-.453,1.8c-.481.286-.927.537-1.344.757,1.189.977,2.477,2.021,3.557,2.86a17.209,17.209,0,0,0-1.625,7.231,14.166,14.166,0,0,0,.627,4.267,1.632,1.632,0,0,0,1.558,1.129,1.655,1.655,0,0,0,.49-.074,1.607,1.607,0,0,0,1.069-2.02,10.987,10.987,0,0,1-.477-3.3,14.235,14.235,0,0,1,3.114-8.781c2.234-2.813,5.813-5.293,11.442-6.563A1.611,1.611,0,0,0,26.431,48.418Z" transform="translate(0 -41.086)"/><path class="b" d="M2.9,0A2.967,2.967,0,0,1,5.848,2.934a2.873,2.873,0,0,1-2.9,2.9A2.967,2.967,0,0,1,0,2.9,2.873,2.873,0,0,1,2.9,0Z" transform="translate(0.59 6.348) rotate(-38.536)"/></g></svg>