<svg xmlns="http://www.w3.org/2000/svg" xmlns:xlink="http://www.w3.org/1999/xlink" width="100" height="110" viewBox="0 0 100 110"><defs><style>.a{fill:#fff;}.b{filter:url(#a);}</style><filter id="a" x="0" y="0" width="100" height="110" filterUnits="userSpaceOnUse"><feOffset input="SourceAlpha"/><feGaussianBlur stdDeviation="10" result="b"/><feFlood flood-opacity="0.4"/><feComposite operator="in" in2="b"/><feComposite in="SourceGraphic"/></filter></defs><g class="b" transform="matrix(1, 0, 0, 1, 0, 0)"><path class="a" d="M34,22H14a5,5,0,0,0-5,5V42a5,5,0,0,0,5,5H34a5,5,0,0,0,5-5V27A5,5,0,0,0,34,22ZM16.5,17h15V12a5,5,0,0,0-5-5h-5a5,5,0,0,0-5,5Zm20,.315A10,10,0,0,1,44,27V42A10,10,0,0,1,34,52H14A10,10,0,0,1,4,42V27a10,10,0,0,1,7.5-9.685V12a10,10,0,0,1,10-10h5a10,10,0,0,1,10,10ZM24,37a2.5,2.5,0,1,0-2.5-2.5A2.5,2.5,0,0,0,24,37Zm0,5a7.5,7.5,0,1,1,7.5-7.5A7.5,7.5,0,0,1,24,42Z" transform="translate(26 28)"/></g></svg>