<svg xmlns="http://www.w3.org/2000/svg" width="50" height="50" viewBox="0 0 50 50"><defs><style>.a{fill:#fff;}.b{fill:#b2b2b2;}</style></defs><g transform="translate(-1482 1450)"><rect class="a" width="50" height="50" rx="25" transform="translate(1482 -1450)"/><path class="b" d="M847.776,262.652h-4.953a24.978,24.978,0,0,1-15.089-8.72c.561-.557,4.017-3.794,10.859-6.176,0,0,1.429,4.722,9.059,4.883,7.629-.16,9.055-4.883,9.055-4.883a32.031,32.031,0,0,1,10.107,5.491,24.99,24.99,0,0,1-15.637,9.405Zm-6.107-15.985c-.01,0-.016-.017-.016-.017v-.033h.016l.382-1.3a8.356,8.356,0,0,1-1.581-1.958l-2.774-6.829c-3.951-4.728-.221-6.232-.221-6.232-.042-.536-.042-1.317-.032-2.079.023-1.205.086-2.361.086-2.361-1.273-.343-3.865-6-2.775-5.862a9.8,9.8,0,0,0,3.818-.52,24.148,24.148,0,0,1,9.355-1.448h.011c.193,0,3.586.017,4.9,1.156a4.207,4.207,0,0,1,3.667,1.017c.043.05.1.089.145.139l-.037-.005a4.781,4.781,0,0,1,1.193,2.61,3.987,3.987,0,0,1,.005.773s.129,2.511.167,4.5H858c.017.762.017,1.544-.026,2.079,0,0,3.72,1.5-.221,6.221l-2.774,6.84a7.346,7.346,0,0,1-1.829,2.134,1.072,1.072,0,0,1-.112.088l.3,1.034h.012a.063.063,0,0,0-.005.017l.01.016-.01.017c-.059,1.31-2.65,2.366-5.838,2.366S841.732,247.978,841.668,246.668Z" transform="translate(660 -1663)"/></g></svg>