<svg xmlns="http://www.w3.org/2000/svg" width="80.002" height="80.001" viewBox="0 0 80.002 80.001"><defs><style>.a{fill:#0041aa;}</style></defs><path class="a" d="M-11102.717-2961a11.3,11.3,0,0,1-11.285-11.282v-57.437a11.3,11.3,0,0,1,11.285-11.282h57.441a11.294,11.294,0,0,1,11.275,11.282v57.437a11.294,11.294,0,0,1-11.275,11.282Zm-6.285-68.719v57.437a6.289,6.289,0,0,0,6.285,6.282h57.441a6.286,6.286,0,0,0,6.277-6.282v-57.437a6.287,6.287,0,0,0-6.277-6.283h-57.441A6.29,6.29,0,0,0-11109-3029.719Zm24.5,43.3a10.492,10.492,0,0,1,10.5-10.494,10.491,10.491,0,0,1,10.5,10.494,10.5,10.5,0,0,1-10.5,10.494A10.5,10.5,0,0,1-11084.5-2986.417Zm14.336-25.967,13.959-9.058,2.713,4.2-7.494,4.86,7.5,4.867-2.727,4.2Zm-24.355,4.867,7.5-4.867-7.5-4.86,2.725-4.2,13.955,9.058-13.955,9.064Z" transform="translate(11114.002 3041.001)"/></svg>