<svg xmlns="http://www.w3.org/2000/svg" width="30" height="30" viewBox="0 0 30 30"><defs><style>.a{fill:#fff;}</style></defs><path class="a" d="M11.669,9.536A1.355,1.355,0,1,1,13.585,7.62l6.444,6.4a1.421,1.421,0,0,1,0,1.959l-6.444,6.4a1.293,1.293,0,0,1-1.916,0,1.367,1.367,0,0,1,0-1.916l5.486-5.443ZM15.022,0A14.941,14.941,0,0,1,25.6,4.4,14.789,14.789,0,0,1,30,15.022,15.015,15.015,0,0,1,15.022,30,14.789,14.789,0,0,1,4.4,25.6,15,15,0,0,1,15.022,0Zm8.665,6.313A12.246,12.246,0,1,0,27.3,15.022a12.246,12.246,0,0,0-3.614-8.708Z"/></svg>