<svg xmlns="http://www.w3.org/2000/svg" xmlns:xlink="http://www.w3.org/1999/xlink" width="200" height="84" viewBox="0 0 200 84"><defs><style>.a{fill:#0041aa;}.b{fill:#d71920;fill-rule:evenodd;}.c{filter:url(#a);}</style><filter id="a" x="7.159" y="0" width="188.991" height="52.196" filterUnits="userSpaceOnUse"><feOffset dx="2" dy="2" input="SourceAlpha"/><feGaussianBlur stdDeviation="1" result="b"/><feFlood flood-opacity="0.102"/><feComposite operator="in" in2="b"/><feComposite in="SourceGraphic"/></filter></defs><g transform="translate(-54.65 -226.239)"><path class="a" d="M-136.494-3.964a7.393,7.393,0,0,1-2.205-.327,4.631,4.631,0,0,1-1.651-.839l.783-1.45a4.881,4.881,0,0,0,1.487.789,5.445,5.445,0,0,0,1.757.291,3.459,3.459,0,0,0,1.743-.377,1.15,1.15,0,0,0,.647-1.031.816.816,0,0,0-.263-.618,2.045,2.045,0,0,0-.655-.405q-.391-.156-1.089-.355a13.336,13.336,0,0,1-1.565-.547,2.714,2.714,0,0,1-1.024-.789,2.1,2.1,0,0,1-.427-1.365,2.728,2.728,0,0,1,.548-1.692,3.519,3.519,0,0,1,1.53-1.123,5.986,5.986,0,0,1,2.262-.4,7.434,7.434,0,0,1,1.836.22,5.113,5.113,0,0,1,1.494.618l-.726,1.464a4.44,4.44,0,0,0-1.252-.569,5.261,5.261,0,0,0-1.451-.2,3.292,3.292,0,0,0-1.757.405,1.223,1.223,0,0,0-.647,1.073.844.844,0,0,0,.27.64,1.985,1.985,0,0,0,.655.405q.384.149,1.124.377a13.453,13.453,0,0,1,1.537.526,2.708,2.708,0,0,1,1.017.754,1.938,1.938,0,0,1,.42,1.294,2.75,2.75,0,0,1-.548,1.706A3.506,3.506,0,0,1-134.2-4.362,6.194,6.194,0,0,1-136.494-3.964Zm12.706-2.445H-128.8l-1.437,2.3h-1.978l6.474-9.952h1.836l2.476,9.952h-1.836Zm-.341-1.45-1.01-4.379-2.746,4.379Zm12.038-1.393a2.062,2.062,0,0,1,1,.754,2.163,2.163,0,0,1,.356,1.265,2.624,2.624,0,0,1-1.2,2.332,5.726,5.726,0,0,1-3.216.8h-4.994l1.992-9.952h4.6a4.237,4.237,0,0,1,2.4.576,1.881,1.881,0,0,1,.847,1.656,2.611,2.611,0,0,1-.484,1.585A2.915,2.915,0,0,1-112.092-9.252Zm-4.511-3.355-.555,2.744h2.632a2.9,2.9,0,0,0,1.665-.419,1.4,1.4,0,0,0,.612-1.23q0-1.095-1.722-1.095Zm1.579,7.052a3.208,3.208,0,0,0,1.8-.427,1.413,1.413,0,0,0,.633-1.251.994.994,0,0,0-.448-.917,2.6,2.6,0,0,0-1.345-.277h-3.059l-.569,2.872Zm11.3-3.867,3.543,5.317h-2.063L-105.077-8.3l-1.892,1.649-.512,2.545h-1.836l1.992-9.952h1.836l-1.01,5.033,5.791-5.033h2.334L-103.7-9.437Zm11.369,3.014h-5.009l-1.437,2.3h-1.978l6.474-9.952h1.836l2.476,9.952H-91.83Zm-.341-1.45-1.01-4.379-2.746,4.379Zm19.266-6.2-1.992,9.952h-2.76l-2.86-4.635-.925,4.635h-3.273l1.992-9.952h2.76l2.86,4.635.925-4.635Zm4.653,10.179a5.5,5.5,0,0,1-2.312-.448A3.379,3.379,0,0,1-72.585-5.6,3.551,3.551,0,0,1-73.1-7.532a5.7,5.7,0,0,1,.114-1.052l1.1-5.474h3.358l-1.081,5.417a3.484,3.484,0,0,0-.085.725,1.318,1.318,0,0,0,.341,1,1.386,1.386,0,0,0,1,.327,1.454,1.454,0,0,0,1.153-.469,3.491,3.491,0,0,0,.64-1.578l1.081-5.417h3.3l-1.124,5.616A5.782,5.782,0,0,1-65.137-5.03,5.465,5.465,0,0,1-68.779-3.878Zm20.048-10.179-1.964,9.952h-3.059l.882-4.535L-55.674-5h-1.48l-1.537-3.583-.9,4.478h-3.059l1.992-9.952h2.732l2.163,5.289,4.169-5.289Zm8.722,4.834a2.345,2.345,0,0,1,.989.775,1.972,1.972,0,0,1,.349,1.173,2.605,2.605,0,0,1-1.3,2.374,6.342,6.342,0,0,1-3.351.8h-5.748l1.992-9.952H-41.8a4.738,4.738,0,0,1,2.661.618,2,2,0,0,1,.911,1.756,2.4,2.4,0,0,1-.47,1.471A3.079,3.079,0,0,1-40.009-9.224Zm-4.24-2.488-.3,1.479h1.707q1.11,0,1.11-.867a.517.517,0,0,0-.228-.455,1.151,1.151,0,0,0-.655-.156Zm1.11,5.26a1.342,1.342,0,0,0,.825-.235A.793.793,0,0,0-42-7.362a.562.562,0,0,0-.235-.483.978.978,0,0,0-.59-.171h-2.163L-45.3-6.452Zm9.846-5.076-.228,1.166h4.212l-.484,2.417h-4.226l-.256,1.308h4.994l-.512,2.531h-8.281l1.992-9.952h8.1l-.512,2.531Zm15.4.739a3.877,3.877,0,0,1-.7,2.31,4.167,4.167,0,0,1-1.985,1.471l1.665,2.9h-3.486l-1.409-2.5h-.825l-.5,2.5H-28.5l1.992-9.952h4.468a4.812,4.812,0,0,1,3.052.86A2.9,2.9,0,0,1-17.9-10.788Zm-3.4.327q0-1.009-1.252-1.009h-1.124l-.47,2.332h1.38a1.553,1.553,0,0,0,1.081-.348A1.248,1.248,0,0,0-21.3-10.461Zm15,4.052h-5.009l-1.437,2.3h-1.978l6.474-9.952h1.836l2.476,9.952H-5.774Zm-.341-1.45-1.01-4.379L-10.4-7.859ZM4.613-6.409H-.4l-1.437,2.3H-3.81l6.474-9.952H4.5L6.975-4.106H5.139Zm-.341-1.45-1.01-4.379L.515-7.859ZM12.61-7.5l-.683,3.4H10.091l.7-3.526-2.6-6.426H10.02L11.984-9.2l3.927-4.862h1.935Zm7.826-5-.512,2.588h4.824l-.3,1.521H19.61l-.541,2.744H24.7l-.313,1.55h-7.47l1.992-9.952h7.271l-.313,1.55ZM34.237-9.2h1.75l-.811,4.009a5.749,5.749,0,0,1-1.715.9,6.285,6.285,0,0,1-2,.32A5.79,5.79,0,0,1,28.9-4.5,3.956,3.956,0,0,1,27.215-5.99a4.159,4.159,0,0,1-.59-2.225,6.094,6.094,0,0,1,.768-3.042,5.562,5.562,0,0,1,2.177-2.154,6.526,6.526,0,0,1,3.244-.789,6.129,6.129,0,0,1,2.362.419,3.974,3.974,0,0,1,1.636,1.216l-1.338,1.109a2.889,2.889,0,0,0-1.153-.853,4.247,4.247,0,0,0-1.594-.27,4.33,4.33,0,0,0-2.227.562,3.9,3.9,0,0,0-1.487,1.528,4.444,4.444,0,0,0-.526,2.161,2.556,2.556,0,0,0,.825,2,3.424,3.424,0,0,0,2.362.739,4.111,4.111,0,0,0,1.935-.469ZM44.411-6.409H39.4l-1.437,2.3H35.987l6.474-9.952H44.3l2.476,9.952H44.937Zm-.341-1.45-1.01-4.379L40.313-7.859Zm5.549-6.2h2.12L50.06-7.4H48.651ZM48.836-4.006a1.065,1.065,0,0,1-.775-.3.975.975,0,0,1-.306-.725,1.133,1.133,0,0,1,.341-.846,1.154,1.154,0,0,1,.84-.334,1.079,1.079,0,0,1,.775.291.969.969,0,0,1,.306.732,1.14,1.14,0,0,1-.341.839A1.142,1.142,0,0,1,48.836-4.006Zm4.738-10.052h2.12L54.015-7.4H52.607ZM52.792-4.006a1.065,1.065,0,0,1-.775-.3.975.975,0,0,1-.306-.725,1.133,1.133,0,0,1,.341-.846,1.154,1.154,0,0,1,.839-.334,1.079,1.079,0,0,1,.775.291.969.969,0,0,1,.306.732,1.14,1.14,0,0,1-.341.839A1.142,1.142,0,0,1,52.792-4.006ZM57.53-14.058h2.12L57.971-7.4H56.562ZM56.747-4.006a1.065,1.065,0,0,1-.775-.3.975.975,0,0,1-.306-.725,1.133,1.133,0,0,1,.342-.846,1.154,1.154,0,0,1,.839-.334,1.079,1.079,0,0,1,.775.291.969.969,0,0,1,.306.732,1.14,1.14,0,0,1-.341.839A1.142,1.142,0,0,1,56.747-4.006Z" transform="translate(195 297.996)"/><g class="c" transform="matrix(1, 0, 0, 1, 54.65, 226.24)"><path class="a" d="M173.282,44.877a6.057,6.057,0,0,1-1.7-3.688q-3.3,5.006-8.06,5.007a6.9,6.9,0,0,1-5.138-2.1,6.594,6.594,0,0,1-1.547-2.71,9.938,9.938,0,0,1-2.672,2.736A11.24,11.24,0,0,1,147.94,46.2a5.63,5.63,0,0,1-4.193-1.615,6.629,6.629,0,0,1-1.6-4.844,18.545,18.545,0,0,1,.432-3.5l1.629-7.592a21.77,21.77,0,0,1-4.55,1.239,24.288,24.288,0,0,1-2.217,8.559,14.554,14.554,0,0,1-4.6,5.653,10.357,10.357,0,0,1-6.112,1.992,9.251,9.251,0,0,1-6.328-2.046q-2.326-2.046-2.326-6.461a25.56,25.56,0,0,1,1.515-8.129,19.214,19.214,0,0,1,4.868-7.725,11.625,11.625,0,0,1,8.438-3.257q6.924,0,6.924,8.614v.053a2.193,2.193,0,0,0,.6.053,11.161,11.161,0,0,0,4.11-.942l.215-.088,3.626-16.9,8.006-1.077-6.22,29.07a6.641,6.641,0,0,0-.217,1.723,1.972,1.972,0,0,0,.514,1.535,2.547,2.547,0,0,0,1.7.457,4.128,4.128,0,0,0,2.921-1.319,6.858,6.858,0,0,0,1.25-1.67q-.006-.225-.006-.456a24.5,24.5,0,0,1,1.6-8.371,19.273,19.273,0,0,1,4.76-7.429,10.513,10.513,0,0,1,7.546-3.042,5.815,5.815,0,0,1,3.3.754,2.319,2.319,0,0,1,1.081,1.991v.377l.595-2.853h7.789l-3.894,18.3a6.642,6.642,0,0,0-.216,1.723,1.972,1.972,0,0,0,.514,1.535,2.548,2.548,0,0,0,1.7.457,2.7,2.7,0,0,0,1.19-.216,14.829,14.829,0,0,1-2.272,4.227,3.989,3.989,0,0,1-3.137,1.211A4.989,4.989,0,0,1,173.282,44.877ZM129.874,24.339a22.784,22.784,0,0,0-2.7,6.19,23.581,23.581,0,0,0-1.028,6.353,6.886,6.886,0,0,0,.595,3.473,2.415,2.415,0,0,0,2.163.888,3.586,3.586,0,0,0,2.6-1.48,13.224,13.224,0,0,0,2.272-4.037,25.962,25.962,0,0,0,1.407-5.679q-1.461-.323-1.461-2.261a2.819,2.819,0,0,1,1.677-2.907,5.54,5.54,0,0,0-.541-2.45,1.663,1.663,0,0,0-1.515-.672Q131.55,21.755,129.874,24.339Zm38.134.189a19.759,19.759,0,0,0-2.7,6.029,23.725,23.725,0,0,0-.974,6.217q0,2.693.784,3.446a2.664,2.664,0,0,0,1.92.753,3.911,3.911,0,0,0,2.678-1.265,6.63,6.63,0,0,0,1.812-3.472l2.6-12.167a2.179,2.179,0,0,0-.541-1.373,2.02,2.02,0,0,0-1.676-.673Q169.739,22.025,168.008,24.528ZM96.391,44.392a5.816,5.816,0,0,1-1.676-2.84,9.705,9.705,0,0,1-2.246,2.625A8.816,8.816,0,0,1,87.033,46.2q-3.3,0-4.841-1.75a6.316,6.316,0,0,1-1.542-4.333,13.892,13.892,0,0,1,.271-2.558q.271-1.426.568-2.772t.4-1.723q.433-1.884.812-3.714a15.311,15.311,0,0,0,.379-2.962q0-2.745-1.947-2.745a3.129,3.129,0,0,0-2.488,1.373,10.535,10.535,0,0,0-1.731,3.58L73.24,45.873H65.451L69.4,27.3a5.535,5.535,0,0,0,.162-1.346q0-2.369-1.623-2.368a3.29,3.29,0,0,0-2.623,1.372,10.232,10.232,0,0,0-1.758,3.633L59.879,45.873H52.09l.6-2.811a8.286,8.286,0,0,1-1.221,1.06A10.237,10.237,0,0,1,45.545,46.2a5.193,5.193,0,0,1-3.652-1.265,5.654,5.654,0,0,1-1.65-3.688,15.073,15.073,0,0,1-3.488,3.581A7.656,7.656,0,0,1,32.185,46.2a6.9,6.9,0,0,1-5.139-2.1Q24.991,42,24.99,37.529a24.5,24.5,0,0,1,1.6-8.371,19.276,19.276,0,0,1,4.761-7.429,10.514,10.514,0,0,1,7.546-3.042,5.811,5.811,0,0,1,3.3.754,2.318,2.318,0,0,1,1.082,1.991v.377l.595-2.853h7.789l-3.894,18.3a6.625,6.625,0,0,0-.217,1.723q0,2.315,2.218,2.315a3.271,3.271,0,0,0,2.623-1.4,10.468,10.468,0,0,0,1.747-3.621l3.69-17.321h7.789l-.595,2.8a8.578,8.578,0,0,1,6.6-3.069q4.761,0,5.572,4.63,2.974-4.576,7.519-4.576a6.181,6.181,0,0,1,4.381,1.508,5.956,5.956,0,0,1,1.623,4.576,18.026,18.026,0,0,1-.379,3.472q-.378,1.912-1.082,4.656-.433,1.669-.784,3.258a12.3,12.3,0,0,0-.352,2.5,2.556,2.556,0,0,0,.487,1.668,2.062,2.062,0,0,0,1.677.593,3.223,3.223,0,0,0,2.6-1.157,13.605,13.605,0,0,0,1.947-3.58L100.61,9.266l8.006-1.077-2.6,12.113a11.806,11.806,0,0,1,2.488-1.211,6.674,6.674,0,0,1,1.948-.3q6.382,0,6.382,9.206a24.765,24.765,0,0,1-1.433,7.94,16.978,16.978,0,0,1-4.76,7.241,12.357,12.357,0,0,1-8.628,3.014A7.984,7.984,0,0,1,96.391,44.392Zm10.3-21.533a2.427,2.427,0,0,0-1.38.727l-2.975,13.673a5.075,5.075,0,0,0-.162,1.238q0,2.477,2.867,2.477,1.678,0,3.137-2.072a16.746,16.746,0,0,0,2.327-5.169,22.079,22.079,0,0,0,.865-5.948,8.085,8.085,0,0,0-.758-3.661,2.322,2.322,0,0,0-2.11-1.508A7.756,7.756,0,0,0,106.7,22.859ZM36.674,24.528a19.759,19.759,0,0,0-2.7,6.029A23.726,23.726,0,0,0,33,36.774q0,2.693.784,3.446a2.665,2.665,0,0,0,1.92.753,3.913,3.913,0,0,0,2.677-1.265,6.636,6.636,0,0,0,1.812-3.472l2.6-12.167a2.181,2.181,0,0,0-.541-1.373,2.023,2.023,0,0,0-1.677-.673Q38.405,22.025,36.674,24.528ZM8.168,45.873l7.681-35.639H15.2q-4.813,0-7.491,2.4T5.03,21.109a7.032,7.032,0,0,0,.379,2.773,4.659,4.659,0,0,1,.379.888,6.624,6.624,0,0,1-4.354-1.211A4.986,4.986,0,0,1,0,19.548a13.275,13.275,0,0,1,1.893-6.971A13.36,13.36,0,0,1,7.924,7.49,24.842,24.842,0,0,1,18.445,5.552a49.7,49.7,0,0,1,7.681.645,36.942,36.942,0,0,0,6.167.593,16.7,16.7,0,0,0,6.275-1.131,7.363,7.363,0,0,1-1.786,5.168A6.77,6.77,0,0,1,31.806,12.5a22.494,22.494,0,0,1-3.462-.269q-1.731-.27-4.922-.915L15.957,45.873ZM125.933,15.3l-2.819-4.8c-1.075-1.83-1.731-5-.339-5.378s3.119,2.492,3.556,4.5l1.149,5.258a.719.719,0,0,1-.516.862.808.808,0,0,1-.214.028A.962.962,0,0,1,125.933,15.3ZM139.62,13a.73.73,0,0,1-.5-.871l1.12-5.317c.428-2.025,2.111-4.93,3.466-4.545s.717,3.587-.331,5.436l-2.749,4.854a.929.929,0,0,1-.794.471A.77.77,0,0,1,139.62,13Zm-7.866-2.512L130.875,5.2c-.336-2.017.228-5.2,1.693-5.2s2.029,3.179,1.693,5.2l-.879,5.295a.826.826,0,0,1-1.627,0Z" transform="translate(8.16 1)"/></g><path class="b" d="M5.915,8.806S27.13-1.6,48.106,5.209c0,0-18.934-8.328-47.712-3.344C.394,1.866,7.935,4.027,5.915,8.806Z" transform="translate(130.833 301.434)"/></g></svg>