<svg xmlns="http://www.w3.org/2000/svg" width="21.8" height="25" viewBox="0 0 21.8 25"><defs><style>.a{fill:#fff;stroke:#fff;}</style></defs><path class="a" d="M29.66,31.284a3.933,3.933,0,0,0-3.088,1.478l-5.768-3.1a4.275,4.275,0,0,0,.407-1.865,4.818,4.818,0,0,0-.407-1.865l5.768-3.1a3.984,3.984,0,0,0,3.088,1.478,4.261,4.261,0,0,0,0-8.516,4.261,4.261,0,0,0-4.106,4.328,4.627,4.627,0,0,0,.271,1.548l-5.87,3.132a3.979,3.979,0,0,0-2.884-1.232,4.262,4.262,0,0,0,.034,8.516,3.979,3.979,0,0,0,2.884-1.232l5.87,3.132a4.627,4.627,0,0,0-.271,1.548,4.108,4.108,0,1,0,4.072-4.258Zm0-13.971a2.852,2.852,0,1,1-2.748,2.815A2.781,2.781,0,0,1,29.66,17.313ZM17.106,30.686a2.852,2.852,0,1,1,2.748-2.85A2.811,2.811,0,0,1,17.106,30.686ZM29.66,38.357a2.852,2.852,0,1,1,2.748-2.85A2.811,2.811,0,0,1,29.66,38.357Z" transform="translate(-12.5 -15.3)"/></svg>