<svg xmlns="http://www.w3.org/2000/svg" xmlns:xlink="http://www.w3.org/1999/xlink" width="202.214" height="109.598" viewBox="0 0 202.214 109.598"><defs><style>.a,.b{fill:#5200b2;}.b{fill-rule:evenodd;}.c,.d{fill:#0041aa;}.c{stroke:rgba(0,0,0,0);}.e{fill:#ffa700;}.f{filter:url(#c);}.g{filter:url(#a);}</style><filter id="a" x="0" y="38.591" width="202.214" height="49.79" filterUnits="userSpaceOnUse"><feOffset dx="2" dy="2" input="SourceAlpha"/><feGaussianBlur stdDeviation="1" result="b"/><feFlood flood-opacity="0.161"/><feComposite operator="in" in2="b"/><feComposite in="SourceGraphic"/></filter><filter id="c" x="135.281" y="32.691" width="30.901" height="23.668" filterUnits="userSpaceOnUse"><feOffset dx="2" dy="2" input="SourceAlpha"/><feGaussianBlur stdDeviation="1" result="d"/><feFlood flood-opacity="0.161"/><feComposite operator="in" in2="d"/><feComposite in="SourceGraphic"/></filter></defs><g transform="translate(-64.948 -191.812)"><g class="g" transform="matrix(1, 0, 0, 1, 64.95, 191.81)"><path class="a" d="M-80.562-38.4h-.7q-5.162,0-8.033,2.581t-2.871,9.135a7.607,7.607,0,0,0,.406,2.987,5.038,5.038,0,0,1,.406.957,7.082,7.082,0,0,1-4.669-1.305q-1.537-1.305-1.537-4.321a14.353,14.353,0,0,1,2.03-7.511,14.354,14.354,0,0,1,6.467-5.481,26.535,26.535,0,0,1,11.281-2.088,52.986,52.986,0,0,1,8.236.7,39.506,39.506,0,0,0,6.612.638A17.82,17.82,0,0,0-56.2-43.326q-.116,3.77-1.914,5.568a7.24,7.24,0,0,1-5.336,1.8,24.011,24.011,0,0,1-3.712-.29q-1.856-.29-5.278-.986L-80.446,0H-88.8ZM-63.046.348a7.377,7.377,0,0,1-5.51-2.262q-2.2-2.262-2.2-7.076a26.493,26.493,0,0,1,1.711-9.019,20.77,20.77,0,0,1,5.1-8,11.243,11.243,0,0,1,8.091-3.277,6.212,6.212,0,0,1,3.538.812,2.5,2.5,0,0,1,1.16,2.146v.406L-50.518-29h8.352L-46.342-9.28a7.178,7.178,0,0,0-.232,1.856q0,2.494,2.378,2.494a3.5,3.5,0,0,0,2.813-1.508A11.356,11.356,0,0,0-39.5-10.382h2.436q-2.146,6.264-5.307,8.5A10.944,10.944,0,0,1-48.72.348a5.549,5.549,0,0,1-3.915-1.363A6.1,6.1,0,0,1-54.4-4.988a16.194,16.194,0,0,1-3.741,3.857A8.177,8.177,0,0,1-63.046.348Zm3.77-5.626A4.187,4.187,0,0,0-56.4-6.641a7.156,7.156,0,0,0,1.943-3.741l2.784-13.108a2.354,2.354,0,0,0-.58-1.479,2.164,2.164,0,0,0-1.8-.725q-2.32,0-4.176,2.7a21.353,21.353,0,0,0-2.9,6.5,25.693,25.693,0,0,0-1.044,6.7q0,2.9.841,3.712A2.852,2.852,0,0,0-59.276-5.278ZM-4.234.348q-3.538,0-5.191-1.885a6.828,6.828,0,0,1-1.653-4.669,15.019,15.019,0,0,1,.29-2.755q.29-1.537.609-2.987t.435-1.856q.464-2.03.87-4A16.592,16.592,0,0,0-8.468-21q0-2.958-2.088-2.958a3.352,3.352,0,0,0-2.668,1.479,11.383,11.383,0,0,0-1.856,3.857L-19.024,0h-8.352l4.234-20.01a5.957,5.957,0,0,0,.174-1.45q0-2.552-1.74-2.552a3.523,3.523,0,0,0-2.813,1.479,11.033,11.033,0,0,0-1.885,3.915L-33.35,0H-41.7l6.148-29H-27.2l-.638,3.016a9.18,9.18,0,0,1,7.076-3.306q5.1,0,5.974,4.988,3.19-4.93,8.062-4.93a6.61,6.61,0,0,1,4.7,1.624,6.433,6.433,0,0,1,1.74,4.93A19.492,19.492,0,0,1-.7-18.937q-.406,2.059-1.16,5.017-.464,1.8-.841,3.509a13.346,13.346,0,0,0-.377,2.7,2.767,2.767,0,0,0,.522,1.8,2.206,2.206,0,0,0,1.8.638A3.447,3.447,0,0,0,2.03-6.525a14.63,14.63,0,0,0,2.088-3.857H6.554Q4.408-4,1.6-1.827A9.423,9.423,0,0,1-4.234.348Zm16.066,0A8.539,8.539,0,0,1,5.8-1.6,7.118,7.118,0,0,1,3.712-7.076a13.126,13.126,0,0,1,.406-3.306L10.324-39.44l8.584-1.16L16.124-27.55a12.614,12.614,0,0,1,2.668-1.305,7.113,7.113,0,0,1,2.088-.319q6.844,0,6.844,9.918A26.809,26.809,0,0,1,26.187-10.7a18.308,18.308,0,0,1-5.1,7.8A13.208,13.208,0,0,1,11.832.348ZM15.08-5.278q1.8,0,3.364-2.233a18.084,18.084,0,0,0,2.494-5.568,23.889,23.889,0,0,0,.928-6.409,8.747,8.747,0,0,0-.812-3.944,2.492,2.492,0,0,0-2.262-1.624,8.3,8.3,0,0,0-1.943.261,2.6,2.6,0,0,0-1.479.783L12.18-9.28a5.5,5.5,0,0,0-.174,1.334Q12.006-5.278,15.08-5.278ZM38.338.232a9.884,9.884,0,0,1-6.786-2.2q-2.494-2.2-2.494-6.96a27.65,27.65,0,0,1,1.624-8.758,20.71,20.71,0,0,1,5.22-8.323,12.43,12.43,0,0,1,9.048-3.509q7.424,0,7.424,9.28v.058a2.334,2.334,0,0,0,.638.058,11.928,11.928,0,0,0,4.408-1.015,22.041,22.041,0,0,0,4.524-2.465l.522,1.566a13.882,13.882,0,0,1-4.379,3.045A22.688,22.688,0,0,1,52.2-17.226,26.262,26.262,0,0,1,49.822-8a15.661,15.661,0,0,1-4.93,6.09A11.074,11.074,0,0,1,38.338.232Zm2.32-5.22a3.841,3.841,0,0,0,2.784-1.595,14.287,14.287,0,0,0,2.436-4.35,28.066,28.066,0,0,0,1.508-6.119Q45.82-17.4,45.82-19.488a3.039,3.039,0,0,1,1.8-3.132,5.966,5.966,0,0,0-.58-2.639,1.777,1.777,0,0,0-1.624-.725q-1.914,0-3.712,2.784a24.616,24.616,0,0,0-2.9,6.67,25.509,25.509,0,0,0-1.1,6.844,7.439,7.439,0,0,0,.638,3.741A2.585,2.585,0,0,0,40.658-4.988ZM61.074.348a6.023,6.023,0,0,1-4.495-1.74,7.164,7.164,0,0,1-1.711-5.22,20.111,20.111,0,0,1,.464-3.77L61.538-39.44l8.584-1.16L63.452-9.28a7.178,7.178,0,0,0-.232,1.856,2.128,2.128,0,0,0,.551,1.653,2.718,2.718,0,0,0,1.827.493A4.417,4.417,0,0,0,68.73-6.7a8.122,8.122,0,0,0,2.088-3.683h2.436q-2.146,6.264-5.51,8.5A12.014,12.014,0,0,1,61.074.348Zm16.7,0a7.377,7.377,0,0,1-5.51-2.262q-2.2-2.262-2.2-7.076a26.493,26.493,0,0,1,1.711-9.019,20.77,20.77,0,0,1,5.1-8A11.243,11.243,0,0,1,84.97-29.29a6.212,6.212,0,0,1,3.538.812,2.5,2.5,0,0,1,1.16,2.146v.406L90.306-29h8.352L94.482-9.28a7.178,7.178,0,0,0-.232,1.856A2.128,2.128,0,0,0,94.8-5.771a2.718,2.718,0,0,0,1.827.493A2.893,2.893,0,0,0,97.9-5.51,16,16,0,0,1,95.468-.957,4.265,4.265,0,0,1,92.1.348a5.335,5.335,0,0,1-3.857-1.421A6.537,6.537,0,0,1,86.42-5.046Q82.882.348,77.778.348Zm3.77-5.626a4.187,4.187,0,0,0,2.871-1.363,7.156,7.156,0,0,0,1.943-3.741L89.146-23.49a2.354,2.354,0,0,0-.58-1.479,2.164,2.164,0,0,0-1.8-.725q-2.32,0-4.176,2.7a21.353,21.353,0,0,0-2.9,6.5,25.693,25.693,0,0,0-1.044,6.7q0,2.9.841,3.712A2.852,2.852,0,0,0,81.548-5.278Z" transform="translate(98.56 83.03)"/></g><g class="f" transform="matrix(1, 0, 0, 1, 64.95, 191.81)"><path class="b" d="M26.711,8.967l-3.043,5.439a1,1,0,0,1-1.111.5A.819.819,0,0,1,22,13.926l1.24-5.957c.472-2.27,2.336-5.525,3.838-5.093S27.87,6.895,26.711,8.967ZM15.65,12.088a.913.913,0,0,1-1.8,0l-.974-5.933C12.5,3.894,13.127.332,14.749.332s2.246,3.562,1.875,5.823Zm-7.107,5.88a1.042,1.042,0,0,1-1.14-.491L4.281,12.1c-1.189-2.05-1.916-5.6-.375-6.025s3.453,2.793,3.938,5.038L9.116,17A.808.808,0,0,1,8.544,17.968Z" transform="translate(133.25 33.36)"/></g><path class="a" d="M-70.807-15.4a8.555,8.555,0,0,1,3.553.682,5.279,5.279,0,0,1,2.321,1.936,5.333,5.333,0,0,1,.814,2.97,5.347,5.347,0,0,1-.814,2.959,5.184,5.184,0,0,1-2.321,1.936,8.677,8.677,0,0,1-3.553.671h-3.1V0h-3.564V-15.4Zm-.2,8.25a3.743,3.743,0,0,0,2.442-.693,2.414,2.414,0,0,0,.836-1.969,2.439,2.439,0,0,0-.836-1.991,3.743,3.743,0,0,0-2.442-.693h-2.9V-7.15Zm11.616-8.25h3.564V-2.9H-48.1V0H-59.389ZM-33.627-3.3h-7.15L-42.141,0h-3.652l6.864-15.4h3.52L-28.523,0h-3.74Zm-1.122-2.706-2.442-5.9-2.442,5.9Zm16.478.55V0h-3.564V-5.5L-27.8-15.4h3.784L-19.9-8.558l4.114-6.842h3.5ZM11.671.264,9.823-1.452A8.128,8.128,0,0,1,4.675.264,8.025,8.025,0,0,1,1.661-.275,4.933,4.933,0,0,1-.44-1.782,3.44,3.44,0,0,1-1.2-3.96,4.131,4.131,0,0,1-.4-6.479,7.966,7.966,0,0,1,2.189-8.558,6.365,6.365,0,0,1,.979-10.2,3.7,3.7,0,0,1,.6-11.814a3.393,3.393,0,0,1,.594-1.98,3.852,3.852,0,0,1,1.683-1.331A6.275,6.275,0,0,1,5.4-15.6a5.031,5.031,0,0,1,3.212.957,3.123,3.123,0,0,1,1.21,2.585,3.358,3.358,0,0,1-.715,2.112,7.223,7.223,0,0,1-2.3,1.782L9.625-5.544a10,10,0,0,0,.77-2.4l2.75.858a10.058,10.058,0,0,1-1.408,3.5l1.8,1.672ZM5.4-13.266a1.785,1.785,0,0,0-1.221.4,1.287,1.287,0,0,0-.451,1.012,1.672,1.672,0,0,0,.242.869A6.006,6.006,0,0,0,4.917-9.9a6.145,6.145,0,0,0,1.562-1.067,1.478,1.478,0,0,0,.44-1.023,1.177,1.177,0,0,0-.4-.924A1.633,1.633,0,0,0,5.4-13.266ZM4.917-2.42a4.872,4.872,0,0,0,2.882-.9L4.081-6.8A4.991,4.991,0,0,0,2.607-5.632a2.073,2.073,0,0,0-.44,1.3,1.623,1.623,0,0,0,.748,1.386A3.408,3.408,0,0,0,4.917-2.42ZM49.753-15.4,44.715,0H40.887L37.5-10.428,34,0H30.195l-5.06-15.4h3.7L32.307-4.576,35.937-15.4h3.3l3.52,10.912L46.343-15.4Zm4.18,0H57.5V0H53.933Zm23.54,0V0H74.547L66.869-9.35V0h-3.52V-15.4H66.3l7.656,9.35V-15.4Z" transform="translate(164.994 207.41)"/><g transform="translate(114.279 213.929)"><path class="c" d="M12.284,24.569A12.288,12.288,0,0,1,7.5.965,12.288,12.288,0,0,1,17.066,23.6,12.21,12.21,0,0,1,12.284,24.569ZM18.2,9.473a3.564,3.564,0,0,0-3.86,3.661,3.631,3.631,0,0,0,1.033,2.688,3.9,3.9,0,0,0,2.783,1,3.95,3.95,0,0,0,2.792-1A3.584,3.584,0,0,0,22,13.149a3.6,3.6,0,0,0-1.043-2.664A3.866,3.866,0,0,0,18.2,9.473ZM4.154,13.582A1.457,1.457,0,0,0,3.237,15c0,1.159,1.1,1.823,3.025,1.823a3.653,3.653,0,0,0,2.72-.929,4.029,4.029,0,0,0,.928-2.9V8.724c0-.873-.414-1.315-1.23-1.315h-.41c-.786,0-1.2.455-1.2,1.315v4.227c0,1.058-.345,1.47-1.23,1.47a2.085,2.085,0,0,1-1.668-.834A.019.019,0,0,0,4.154,13.582ZM12.1,9.544c-.806,0-1.215.442-1.215,1.315v4.524c0,.9.4,1.315,1.244,1.315h.283c.788,0,1.187-.443,1.187-1.315V10.859c0-.909-.375-1.315-1.216-1.315Zm.128-3.28A1.258,1.258,0,0,0,10.8,7.537c0,.793.563,1.286,1.469,1.286A1.264,1.264,0,0,0,13.7,7.537C13.7,6.752,13.132,6.264,12.225,6.264Zm5.946,8.482a1.5,1.5,0,0,1-1.527-1.612,1.643,1.643,0,0,1,.429-1.148A1.539,1.539,0,0,1,19.7,13.149a1.639,1.639,0,0,1-.435,1.144A1.493,1.493,0,0,1,18.171,14.746Z" transform="translate(0 0)"/><g transform="translate(28.253 8.073)"><path class="d" d="M2389.813,731.243a2.114,2.114,0,0,1,.738.126,1.6,1.6,0,0,1,.59.379,1.748,1.748,0,0,1,.39.631,2.554,2.554,0,0,1,.141.889,2.83,2.83,0,0,1-.115.826,1.825,1.825,0,0,1-.346.654,1.624,1.624,0,0,1-.58.433,1.952,1.952,0,0,1-.817.158h-1.767v-4.1Zm-.063,3.338a1.159,1.159,0,0,0,.378-.063.846.846,0,0,0,.328-.209,1.056,1.056,0,0,0,.229-.382,1.674,1.674,0,0,0,.086-.573,2.378,2.378,0,0,0-.061-.559,1.115,1.115,0,0,0-.2-.427.883.883,0,0,0-.364-.273,1.457,1.457,0,0,0-.559-.095h-.643v2.581Z" transform="translate(-2388.046 -731.149)"/><rect class="d" width="0.9" height="4.095" transform="translate(4.394 0.094)"/><path class="d" d="M2439.927,734.635a1.508,1.508,0,0,1-.591.123,2.1,2.1,0,0,1-.846-.164,1.811,1.811,0,0,1-.633-.45,1.974,1.974,0,0,1-.4-.674,2.466,2.466,0,0,1-.138-.835,2.551,2.551,0,0,1,.138-.852,2.03,2.03,0,0,1,.4-.686,1.8,1.8,0,0,1,.633-.459,2.071,2.071,0,0,1,.846-.166,1.994,1.994,0,0,1,.611.094,1.729,1.729,0,0,1,.532.278,1.506,1.506,0,0,1,.583,1.073h-.86a.866.866,0,0,0-.31-.516.9.9,0,0,0-.557-.172,1.046,1.046,0,0,0-.516.118.971.971,0,0,0-.344.315,1.388,1.388,0,0,0-.192.45,2.261,2.261,0,0,0-.061.522,2.1,2.1,0,0,0,.061.5,1.358,1.358,0,0,0,.192.439.982.982,0,0,0,.344.313,1.049,1.049,0,0,0,.516.117.879.879,0,0,0,.975-.883h-.907v-.671h1.722v2.214h-.573l-.092-.465a1.345,1.345,0,0,1-.533.433" transform="translate(-2431.272 -730.474)"/><rect class="d" width="0.9" height="4.095" transform="translate(10.726 0.094)"/><path class="d" d="M2487.723,732v-.757h3.356V732h-1.228v3.338h-.9V732Z" transform="translate(-2475.483 -731.149)"/><path class="d" d="M2514.718,731.245l1.531,4.1h-.935l-.309-.912h-1.531l-.321.912h-.906l1.549-4.1Zm.052,2.512-.516-1.5h-.012l-.533,1.5Z" transform="translate(-2496.995 -731.15)"/><path class="d" d="M2549.814,731.243v3.338h2v.757h-2.9v-4.1Z" transform="translate(-2529.16 -731.149)"/><path class="d" d="M2389.18,774.743v3.338h2v.757h-2.9v-4.1Z" transform="translate(-2388.25 -769.307)"/><rect class="d" width="0.9" height="4.095" transform="translate(3.654 5.436)"/><path class="d" d="M2435.605,774.743v.757h-1.979v.946h1.715v.7h-1.715v1.692h-.9v-4.1Z" transform="translate(-2427.24 -769.307)"/><path class="d" d="M2464.927,774.743v.757h-2.163v.878h1.985v.7h-1.985v1h2.208v.757h-3.109v-4.1Z" transform="translate(-2452.799 -769.307)"/></g></g><rect class="e" width="190" height="20" transform="translate(69.504 281.41)"/><path d="M-73.965-2.3V0h-8.43V-10.5h8.235v2.3h-5.295v1.77h4.665v2.22h-4.665V-2.3Zm13.65-8.2L-64.815,0H-67.74l-4.485-10.5h3.21l2.85,6.84,2.91-6.84ZM-49.77-2.3V0H-58.2V-10.5h8.235v2.3H-55.26v1.77H-50.6v2.22H-55.26V-2.3Zm7.74-.495h-1.62V0h-2.97V-10.5h4.8a5.989,5.989,0,0,1,2.475.472,3.67,3.67,0,0,1,1.62,1.35,3.7,3.7,0,0,1,.57,2.062,3.657,3.657,0,0,1-.533,1.988A3.6,3.6,0,0,1-39.21-3.3L-36.945,0h-3.18Zm1.875-3.825a1.431,1.431,0,0,0-.465-1.14A2.048,2.048,0,0,0-42-8.16h-1.65v3.075H-42a2.075,2.075,0,0,0,1.38-.4A1.408,1.408,0,0,0-40.155-6.615Zm11.61,2.85V0h-2.97V-3.81l-4-6.69h3.135l2.49,4.17,2.49-4.17h2.88ZM-22.32-10.5h4.965a6.95,6.95,0,0,1,3.06.645,4.858,4.858,0,0,1,2.07,1.83A5.156,5.156,0,0,1-11.49-5.25a5.156,5.156,0,0,1-.735,2.775,4.858,4.858,0,0,1-2.07,1.83A6.95,6.95,0,0,1-17.355,0H-22.32Zm4.845,8.13a3.044,3.044,0,0,0,2.167-.765A2.755,2.755,0,0,0-14.49-5.25a2.755,2.755,0,0,0-.818-2.115,3.044,3.044,0,0,0-2.167-.765H-19.35v5.76Zm15.93.33h-4.44L-6.81,0H-9.84L-5.2-10.5H-2.28L2.37,0H-.72Zm-.87-2.19-1.35-3.36-1.35,3.36Zm12.09.465V0H6.7V-3.81l-4-6.69H5.835l2.49,4.17,2.49-4.17h2.88Zm15.465-4.5a4.589,4.589,0,0,1,3.09.923A3.542,3.542,0,0,1,29.3-4.515V0H26.64V-1.05A2.446,2.446,0,0,1,24.24.135,3.756,3.756,0,0,1,22.605-.2a2.424,2.424,0,0,1-1.042-.892A2.364,2.364,0,0,1,21.21-2.37,2.081,2.081,0,0,1,22.1-4.162a4.7,4.7,0,0,1,2.73-.637h1.62Q26.37-6.09,24.72-6.09a3.957,3.957,0,0,0-1.185.187,3.158,3.158,0,0,0-1.02.518l-.96-1.935a5.317,5.317,0,0,1,1.642-.7A7.81,7.81,0,0,1,25.14-8.265Zm-.105,6.6a1.579,1.579,0,0,0,.87-.24,1.336,1.336,0,0,0,.54-.7v-.705h-1.23q-1.245,0-1.245.825a.726.726,0,0,0,.285.6A1.227,1.227,0,0,0,25.035-1.665ZM38.205-.33a2.872,2.872,0,0,1-.878.345,4.87,4.87,0,0,1-1.1.12,3.5,3.5,0,0,1-2.445-.78,2.991,2.991,0,0,1-.855-2.325V-5.7H31.74V-7.83h1.185V-9.945h2.85V-7.83h1.86V-5.7h-1.86V-3a.957.957,0,0,0,.232.683.813.813,0,0,0,.623.247,1.51,1.51,0,0,0,.87-.255ZM54.8-10.5v1.86L51.09,0H47.85l3.54-8.145H48.63v1.62H46.1V-10.5Zm7.785,0a5.989,5.989,0,0,1,2.475.472,3.67,3.67,0,0,1,1.62,1.35,3.7,3.7,0,0,1,.57,2.062,3.665,3.665,0,0,1-.57,2.055,3.688,3.688,0,0,1-1.62,1.342,5.989,5.989,0,0,1-2.475.473H60.75V0H57.78V-10.5ZM62.4-5.085a2.075,2.075,0,0,0,1.38-.4,1.408,1.408,0,0,0,.465-1.133,1.431,1.431,0,0,0-.465-1.14A2.048,2.048,0,0,0,62.4-8.16H60.75v3.075ZM79.665,0l-.03-5.565-2.7,4.53h-1.32L72.93-5.415V0H70.185V-10.5H72.63l3.69,6.06,3.6-6.06h2.445L82.4,0Z" transform="translate(163.068 295.999)"/></g></svg>