<svg xmlns="http://www.w3.org/2000/svg" xmlns:xlink="http://www.w3.org/1999/xlink" width="167.108" height="47.899" viewBox="0 0 167.108 47.899"><defs><style>.a{fill:#fff;}.b{filter:url(#a);}</style><filter id="a" x="0" y="0" width="167.108" height="47.899" filterUnits="userSpaceOnUse"><feOffset dx="4" dy="4" input="SourceAlpha"/><feGaussianBlur stdDeviation="1" result="b"/><feFlood flood-opacity="0.161"/><feComposite operator="in" in2="b"/><feComposite in="SourceGraphic"/></filter></defs><g class="b" transform="matrix(1, 0, 0, 1, 0, 0)"><path class="a" d="M2199.613,4767.289a5.386,5.386,0,0,1-1.49-3.265q-2.888,4.433-7.052,4.433a6,6,0,0,1-4.5-1.858,5.853,5.853,0,0,1-1.354-2.4,8.755,8.755,0,0,1-2.337,2.422,9.761,9.761,0,0,1-5.443,1.835,4.9,4.9,0,0,1-3.668-1.43,5.913,5.913,0,0,1-1.4-4.289,16.613,16.613,0,0,1,.378-3.1l1.426-6.721a18.887,18.887,0,0,1-3.981,1.1,21.7,21.7,0,0,1-1.94,7.578,12.856,12.856,0,0,1-4.023,5,8.991,8.991,0,0,1-5.348,1.764,8.032,8.032,0,0,1-5.537-1.812q-2.035-1.811-2.035-5.72a22.861,22.861,0,0,1,1.325-7.2,17.038,17.038,0,0,1,4.26-6.839,10.106,10.106,0,0,1,7.383-2.884q6.059,0,6.058,7.626v.047a1.929,1.929,0,0,0,.521.047,9.665,9.665,0,0,0,3.6-.834l.188-.078,3.172-14.958,7-.954-5.442,25.737a5.934,5.934,0,0,0-.19,1.525,1.756,1.756,0,0,0,.45,1.358,2.21,2.21,0,0,0,1.49.405,3.594,3.594,0,0,0,2.556-1.168,6.052,6.052,0,0,0,1.093-1.479q-.005-.2,0-.4a21.913,21.913,0,0,1,1.4-7.412,17.08,17.08,0,0,1,4.165-6.577,9.142,9.142,0,0,1,6.6-2.693,5.041,5.041,0,0,1,2.887.668,2.061,2.061,0,0,1,.946,1.763v.333l.521-2.525h6.815l-3.407,16.2a5.945,5.945,0,0,0-.189,1.525,1.756,1.756,0,0,0,.449,1.358,2.21,2.21,0,0,0,1.491.405,2.333,2.333,0,0,0,1.041-.191,13.154,13.154,0,0,1-1.988,3.742,3.467,3.467,0,0,1-2.745,1.072A4.336,4.336,0,0,1,2199.613,4767.289Zm-37.98-18.183a20.3,20.3,0,0,0-2.366,5.48,21.117,21.117,0,0,0-.9,5.625,6.161,6.161,0,0,0,.52,3.075,2.1,2.1,0,0,0,1.893.786,3.127,3.127,0,0,0,2.272-1.311,11.741,11.741,0,0,0,1.988-3.575,23.178,23.178,0,0,0,1.231-5.028q-1.278-.286-1.278-2a2.5,2.5,0,0,1,1.468-2.574,4.946,4.946,0,0,0-.473-2.169,1.449,1.449,0,0,0-1.325-.6Q2163.1,4746.818,2161.633,4749.105Zm33.366.167a17.6,17.6,0,0,0-2.366,5.338,21.243,21.243,0,0,0-.852,5.5q0,2.384.686,3.051a2.318,2.318,0,0,0,1.68.667,3.4,3.4,0,0,0,2.343-1.12,5.893,5.893,0,0,0,1.586-3.074l2.272-10.771a1.944,1.944,0,0,0-.473-1.215,1.758,1.758,0,0,0-1.467-.6Q2196.513,4747.057,2195,4749.272Zm-62.661,17.587a5.164,5.164,0,0,1-1.466-2.515,8.574,8.574,0,0,1-1.965,2.324,7.661,7.661,0,0,1-4.757,1.787,5.328,5.328,0,0,1-4.236-1.549,5.632,5.632,0,0,1-1.349-3.836,12.448,12.448,0,0,1,.237-2.265q.237-1.263.5-2.454t.354-1.525q.379-1.667.71-3.288a13.693,13.693,0,0,0,.331-2.622q0-2.43-1.7-2.43a2.729,2.729,0,0,0-2.177,1.215,9.381,9.381,0,0,0-1.515,3.169l-3.218,15.3h-6.815l3.455-16.443a4.955,4.955,0,0,0,.142-1.192q0-2.1-1.42-2.1a2.87,2.87,0,0,0-2.295,1.215,9.117,9.117,0,0,0-1.539,3.217l-3.218,15.3h-6.815l.524-2.488a7.259,7.259,0,0,1-1.068.939,8.89,8.89,0,0,1-5.182,1.835,4.511,4.511,0,0,1-3.2-1.12,5.033,5.033,0,0,1-1.443-3.265,13.279,13.279,0,0,1-3.052,3.17,6.646,6.646,0,0,1-4,1.215,6,6,0,0,1-4.5-1.858q-1.8-1.859-1.8-5.815a21.911,21.911,0,0,1,1.4-7.412,17.085,17.085,0,0,1,4.165-6.577,9.142,9.142,0,0,1,6.6-2.693,5.038,5.038,0,0,1,2.886.668,2.06,2.06,0,0,1,.947,1.763v.333l.52-2.525h6.815l-3.407,16.2a5.934,5.934,0,0,0-.19,1.525q0,2.049,1.941,2.05a2.852,2.852,0,0,0,2.295-1.239,9.315,9.315,0,0,0,1.528-3.206l3.228-15.334h6.815l-.521,2.478a7.47,7.47,0,0,1,5.773-2.717,4.455,4.455,0,0,1,4.875,4.1q2.6-4.052,6.578-4.052a5.369,5.369,0,0,1,3.833,1.335,5.309,5.309,0,0,1,1.419,4.051,16.129,16.129,0,0,1-.331,3.074q-.331,1.693-.946,4.123-.379,1.478-.686,2.884a11,11,0,0,0-.308,2.216,2.284,2.284,0,0,0,.426,1.478,1.793,1.793,0,0,0,1.468.524,2.806,2.806,0,0,0,2.271-1.024,12.076,12.076,0,0,0,1.7-3.17l5.064-23.878,7-.954-2.272,10.724a10.277,10.277,0,0,1,2.177-1.072,5.783,5.783,0,0,1,1.7-.262q5.584,0,5.584,8.15a22.156,22.156,0,0,1-1.254,7.029,15.047,15.047,0,0,1-4.165,6.411,10.733,10.733,0,0,1-7.549,2.669A6.936,6.936,0,0,1,2132.337,4766.859Zm9.016-19.064a2.116,2.116,0,0,0-1.207.644l-2.6,12.105a4.538,4.538,0,0,0-.142,1.1q0,2.193,2.508,2.193a3.5,3.5,0,0,0,2.745-1.835,14.906,14.906,0,0,0,2.036-4.576,19.764,19.764,0,0,0,.757-5.266,7.229,7.229,0,0,0-.663-3.241,2.034,2.034,0,0,0-1.845-1.335A6.714,6.714,0,0,0,2141.354,4747.795Zm-61.265,1.478a17.6,17.6,0,0,0-2.367,5.338,21.237,21.237,0,0,0-.851,5.5q0,2.384.686,3.051a2.318,2.318,0,0,0,1.68.667,3.4,3.4,0,0,0,2.343-1.12,5.9,5.9,0,0,0,1.586-3.074l2.272-10.771a1.944,1.944,0,0,0-.473-1.215,1.76,1.76,0,0,0-1.468-.6Q2081.6,4747.057,2080.088,4749.272Zm-24.942,18.9,6.72-31.552h-.568a9.418,9.418,0,0,0-6.555,2.121q-2.342,2.121-2.343,7.506a6.289,6.289,0,0,0,.332,2.455,4.144,4.144,0,0,1,.331.786,5.747,5.747,0,0,1-3.81-1.072,4.445,4.445,0,0,1-1.254-3.551,11.86,11.86,0,0,1,1.656-6.171,11.729,11.729,0,0,1,5.277-4.5,21.518,21.518,0,0,1,9.205-1.716,42.98,42.98,0,0,1,6.72.572,31.966,31.966,0,0,0,5.4.525,14.455,14.455,0,0,0,5.49-1,6.564,6.564,0,0,1-1.562,4.576,5.882,5.882,0,0,1-4.354,1.477,19.483,19.483,0,0,1-3.029-.238q-1.515-.239-4.306-.81l-6.531,30.6Zm103.039-27.067-2.467-4.25c-.94-1.62-1.515-4.423-.3-4.761s2.729,2.207,3.111,3.981l1.005,4.656a.637.637,0,0,1-.451.763.692.692,0,0,1-.188.025A.84.84,0,0,1,2158.185,4741.1Zm11.975-2.034a.648.648,0,0,1-.441-.771l.98-4.707c.374-1.793,1.847-4.365,3.033-4.024s.627,3.175-.289,4.813l-2.4,4.3a.813.813,0,0,1-.694.417A.679.679,0,0,1,2170.16,4739.069Zm-6.882-2.225-.77-4.687c-.293-1.785.2-4.6,1.481-4.6s1.775,2.815,1.482,4.6l-.769,4.688a.721.721,0,0,1-1.424,0Z" transform="translate(-2048 -4727.56)"/></g></svg>