<svg xmlns="http://www.w3.org/2000/svg" width="36" height="36" viewBox="0 0 36 36"><defs><style>.a{fill:#00229d;}</style></defs><path class="a" d="M3.331,978.6l.545.545,3,3,.545.545.545-.545a3.471,3.471,0,0,1,4.909,4.909l-.545.545.545.545,3,3,.545.545.545-.545,21.818-21.818.545-.545-.545-.545-3-3-.545-.545-.545.545a3.471,3.471,0,0,1-4.909-4.909l.545-.545-.545-.546-3-3-.545-.545-.545.545L3.876,978.057l-.545.546Zm2.182,0,13.909-13.909L30.331,975.6,16.422,989.511l-1.969-1.969a4.992,4.992,0,0,0-6.98-6.98l-1.96-1.96Zm15-15,5.727-5.727,1.96,1.96a4.992,4.992,0,0,0,6.98,6.98l1.969,1.969-5.727,5.727L20.513,963.6Z" transform="translate(-3.331 -955.693)"/></svg>