<svg xmlns="http://www.w3.org/2000/svg" width="26" height="26" viewBox="0 0 26 26"><defs><style>.a{fill:#434343;}</style></defs><path class="a" d="M-179,1184a12.916,12.916,0,0,1-9.194-3.805A12.918,12.918,0,0,1-192,1171a12.916,12.916,0,0,1,3.805-9.195A12.916,12.916,0,0,1-179,1158a12.918,12.918,0,0,1,9.2,3.8A12.916,12.916,0,0,1-166,1171a12.918,12.918,0,0,1-3.805,9.2A12.917,12.917,0,0,1-179,1184Zm5.289-21-1.286,1.074a8.376,8.376,0,0,1,3.2,6.444,8.36,8.36,0,0,1-3.178,6.444l1.286,1.075a10.665,10.665,0,0,0,2.718-3.376,9.16,9.16,0,0,0,.974-4.143,9.074,9.074,0,0,0-.992-4.142,10.5,10.5,0,0,0-2.719-3.376Zm-9.641,10.618,4.352,3.322v-11.88l-4.352,3.322h-3.2v5.236Zm7.088-8.47-1.286,1.074a5.584,5.584,0,0,1,2.131,4.3,5.583,5.583,0,0,1-2.131,4.3l1.286,1.074a6.93,6.93,0,0,0,2.664-5.37,6.977,6.977,0,0,0-2.664-5.37h0Z" transform="translate(192 -1158)"/></svg>