<svg xmlns="http://www.w3.org/2000/svg" width="40" height="40" viewBox="0 0 40 40"><defs><style>.a,.b{fill:#fff;}.a{opacity:0.4;}</style></defs><g transform="translate(-26 -134)"><rect class="a" width="40" height="40" rx="5" transform="translate(26 134)"/><path class="b" d="M27.338,9.768a1.8,1.8,0,0,0-2.625,0L18.9,15.642,13.275,9.958a1.8,1.8,0,0,0-2.625,0,1.845,1.845,0,0,0,0,2.653l5.625,5.684-5.813,5.684a1.845,1.845,0,0,0,0,2.653,1.8,1.8,0,0,0,2.625,0L18.9,20.758l5.625,5.684a1.8,1.8,0,0,0,2.625,0,1.845,1.845,0,0,0,0-2.653l-5.625-5.684,5.813-5.874A1.627,1.627,0,0,0,27.338,9.768Z" transform="translate(27.1 135.8)"/></g></svg>