<svg xmlns="http://www.w3.org/2000/svg" xmlns:xlink="http://www.w3.org/1999/xlink" width="130" height="130" viewBox="0 0 130 130"><defs><style>.a{fill:url(#a);}.b{fill:#fff;}.b,.d{fill-rule:evenodd;}.c{fill:url(#d);}.d{fill:#fff7ee;opacity:0.2;}.e{filter:url(#b);}</style><radialGradient id="a" cx="0.5" cy="0" r="1" gradientTransform="translate(0.5 -0.5) rotate(90)" gradientUnits="objectBoundingBox"><stop offset="0" stop-color="#ff8f8f"/><stop offset="0.338" stop-color="red"/><stop offset="1" stop-color="#b10000"/></radialGradient><filter id="b" x="0" y="0" width="130" height="130" filterUnits="userSpaceOnUse"><feOffset input="SourceAlpha"/><feGaussianBlur stdDeviation="5" result="c"/><feFlood flood-opacity="0.4"/><feComposite operator="in" in2="c"/><feComposite in="SourceGraphic"/></filter><radialGradient id="d" cx="0.5" cy="0" r="1" gradientTransform="translate(0.5 -0.5) rotate(90)" gradientUnits="objectBoundingBox"><stop offset="0" stop-color="#fff"/><stop offset="1" stop-color="#ffc9c9"/></radialGradient></defs><g transform="translate(15 15)"><g class="e" transform="matrix(1, 0, 0, 1, -15, -15)"><path class="a" d="M50,27A50,50,0,1,1,0,77,50,50,0,0,1,50,27Z" transform="translate(15 -12)"/></g><path class="b" d="M60,125A38,38,0,1,1,98,87,38,38,0,0,1,60,125Zm0-72.719A34.719,34.719,0,1,0,94.719,87,34.719,34.719,0,0,0,60,52.281Zm0,66.158A31.439,31.439,0,1,1,91.439,87,31.439,31.439,0,0,1,60,118.439Z" transform="translate(-10 -37)"/><path class="c" d="M60,125A38,38,0,1,1,98,87,38,38,0,0,1,60,125Zm0-72.719A34.719,34.719,0,1,0,94.719,87,34.719,34.719,0,0,0,60,52.281Zm0,66.158A31.439,31.439,0,1,1,91.439,87,31.439,31.439,0,0,1,60,118.439Z" transform="translate(-10 -37)"/><path class="d" d="M71.17,31c13.9,0,25.17,6.859,25.17,15.321S85.071,61.642,71.17,61.642,46,54.783,46,46.321,57.269,31,71.17,31Z" transform="translate(-21 -27.98)"/></g></svg>