<svg xmlns="http://www.w3.org/2000/svg" xmlns:xlink="http://www.w3.org/1999/xlink" width="130" height="130" viewBox="0 0 130 130"><defs><style>.a{fill:url(#a);}.b{fill:#fff;}.b,.d{fill-rule:evenodd;}.c{fill:url(#d);}.d{fill:#fff7ee;opacity:0.2;}.e{fill:#b50000;}.f{filter:url(#b);}</style><radialGradient id="a" cx="0.5" cy="0" r="1" gradientTransform="translate(0.5 -0.5) rotate(90)" gradientUnits="objectBoundingBox"><stop offset="0" stop-color="#ff8f8f"/><stop offset="0.338" stop-color="red"/><stop offset="1" stop-color="#b10000"/></radialGradient><filter id="b" x="0" y="0" width="130" height="130" filterUnits="userSpaceOnUse"><feOffset input="SourceAlpha"/><feGaussianBlur stdDeviation="5" result="c"/><feFlood flood-opacity="0.4"/><feComposite operator="in" in2="c"/><feComposite in="SourceGraphic"/></filter><radialGradient id="d" cx="0.5" cy="0" r="1" gradientTransform="translate(0.5 -0.5) rotate(90)" gradientUnits="objectBoundingBox"><stop offset="0" stop-color="#fff"/><stop offset="1" stop-color="#ffc9c9"/></radialGradient></defs><g transform="translate(15 15)"><g class="f" transform="matrix(1, 0, 0, 1, -15, -15)"><path class="a" d="M50,27A50,50,0,1,1,0,77,50,50,0,0,1,50,27Z" transform="translate(15 -12)"/></g><path class="b" d="M60,125A38,38,0,1,1,98,87,38,38,0,0,1,60,125Zm0-72.719A34.719,34.719,0,1,0,94.719,87,34.719,34.719,0,0,0,60,52.281Zm0,66.158A31.439,31.439,0,1,1,91.439,87,31.439,31.439,0,0,1,60,118.439Z" transform="translate(-10 -37)"/><path class="c" d="M60,125A38,38,0,1,1,98,87,38,38,0,0,1,60,125Zm0-72.719A34.719,34.719,0,1,0,94.719,87,34.719,34.719,0,0,0,60,52.281Zm0,66.158A31.439,31.439,0,1,1,91.439,87,31.439,31.439,0,0,1,60,118.439Z" transform="translate(-10 -37)"/><path class="d" d="M71.17,31c13.9,0,25.17,6.859,25.17,15.321S85.071,61.642,71.17,61.642,46,54.783,46,46.321,57.269,31,71.17,31Z" transform="translate(-21 -27.98)"/><path class="e" d="M2101.131,4735.052a1.854,1.854,0,0,1-.522-1.13,2.928,2.928,0,0,1-2.471,1.534,2.115,2.115,0,0,1-1.576-.643,2.028,2.028,0,0,1-.475-.831,3.032,3.032,0,0,1-.819.838,3.45,3.45,0,0,1-1.907.635,1.73,1.73,0,0,1-1.286-.5,2.031,2.031,0,0,1-.489-1.483,5.655,5.655,0,0,1,.133-1.072l.5-2.325a6.688,6.688,0,0,1-1.4.379,7.447,7.447,0,0,1-.68,2.622,4.459,4.459,0,0,1-1.41,1.731,3.172,3.172,0,0,1-1.874.61,2.839,2.839,0,0,1-1.941-.626,2.5,2.5,0,0,1-.713-1.979,7.833,7.833,0,0,1,.464-2.49,5.882,5.882,0,0,1,1.493-2.366,3.566,3.566,0,0,1,2.587-1q2.123,0,2.123,2.639v.016a.665.665,0,0,0,.183.017,3.425,3.425,0,0,0,1.26-.289l.066-.027,1.112-5.175,2.455-.331-1.907,8.9a2.018,2.018,0,0,0-.067.527.6.6,0,0,0,.158.471.784.784,0,0,0,.522.14,1.266,1.266,0,0,0,.9-.4,2.108,2.108,0,0,0,.383-.511c0-.046,0-.093,0-.14a7.5,7.5,0,0,1,.49-2.564,5.906,5.906,0,0,1,1.459-2.275,3.227,3.227,0,0,1,2.314-.932,1.782,1.782,0,0,1,1.012.231.709.709,0,0,1,.332.61v.115l.183-.874h2.388l-1.194,5.606a2.04,2.04,0,0,0-.066.527.6.6,0,0,0,.157.471.784.784,0,0,0,.522.14.823.823,0,0,0,.365-.067,4.526,4.526,0,0,1-.7,1.294,1.224,1.224,0,0,1-.962.372A1.529,1.529,0,0,1,2101.131,4735.052Zm-13.31-6.291a6.985,6.985,0,0,0-.829,1.9,7.221,7.221,0,0,0-.315,1.947,2.1,2.1,0,0,0,.183,1.063.739.739,0,0,0,.663.271,1.1,1.1,0,0,0,.8-.454,4.036,4.036,0,0,0,.7-1.236,7.918,7.918,0,0,0,.431-1.739c-.3-.066-.448-.3-.448-.692a.864.864,0,0,1,.515-.891,1.709,1.709,0,0,0-.166-.75.51.51,0,0,0-.465-.207Q2088.336,4727.97,2087.821,4728.762Zm11.693.058a6.054,6.054,0,0,0-.829,1.846,7.264,7.264,0,0,0-.3,1.9,1.551,1.551,0,0,0,.241,1.055.815.815,0,0,0,.588.232,1.2,1.2,0,0,0,.821-.388,2.03,2.03,0,0,0,.555-1.063l.8-3.727a.667.667,0,0,0-.166-.42.62.62,0,0,0-.514-.206A1.48,1.48,0,0,0,2099.514,4728.82Zm-21.959,6.084a1.776,1.776,0,0,1-.513-.87,2.988,2.988,0,0,1-.689.8,2.7,2.7,0,0,1-1.667.619,1.88,1.88,0,0,1-1.484-.536,1.932,1.932,0,0,1-.473-1.327,4.219,4.219,0,0,1,.083-.784q.083-.437.174-.849c.06-.275.1-.45.124-.527.088-.385.171-.765.249-1.137a4.723,4.723,0,0,0,.116-.908q0-.84-.6-.841a.96.96,0,0,0-.763.42,3.226,3.226,0,0,0-.531,1.1l-1.127,5.293h-2.389l1.211-5.688a1.714,1.714,0,0,0,.049-.413q0-.725-.5-.725a1.01,1.01,0,0,0-.8.42,3.117,3.117,0,0,0-.539,1.113l-1.128,5.293h-2.388l.184-.861a2.486,2.486,0,0,1-.375.325,3.14,3.14,0,0,1-1.816.635,1.594,1.594,0,0,1-1.12-.388,1.731,1.731,0,0,1-.506-1.13,4.61,4.61,0,0,1-1.069,1.1,2.35,2.35,0,0,1-1.4.42,2.113,2.113,0,0,1-1.576-.643,2.782,2.782,0,0,1-.63-2.012,7.5,7.5,0,0,1,.489-2.564,5.907,5.907,0,0,1,1.459-2.275,3.227,3.227,0,0,1,2.314-.932,1.779,1.779,0,0,1,1.011.231.709.709,0,0,1,.332.61v.115l.182-.874h2.389l-1.194,5.606a2.019,2.019,0,0,0-.066.527q0,.709.68.709a1,1,0,0,0,.8-.428,3.211,3.211,0,0,0,.536-1.109l1.131-5.305h2.388l-.182.857a2.631,2.631,0,0,1,2.023-.939,1.555,1.555,0,0,1,1.708,1.418,2.686,2.686,0,0,1,2.306-1.4,1.9,1.9,0,0,1,1.343.462,1.822,1.822,0,0,1,.5,1.4,5.526,5.526,0,0,1-.116,1.063q-.116.586-.332,1.426-.133.511-.24,1a3.77,3.77,0,0,0-.108.767.781.781,0,0,0,.149.511.632.632,0,0,0,.514.182.987.987,0,0,0,.8-.355,4.142,4.142,0,0,0,.6-1.1l1.775-8.261,2.455-.331-.8,3.711a3.6,3.6,0,0,1,.763-.372,2.079,2.079,0,0,1,.6-.091q1.956,0,1.957,2.82a7.588,7.588,0,0,1-.439,2.432,5.2,5.2,0,0,1-1.459,2.218,3.789,3.789,0,0,1-2.645.923A2.45,2.45,0,0,1,2077.555,4734.9Zm3.16-6.6a.742.742,0,0,0-.423.223l-.912,4.188a1.551,1.551,0,0,0-.049.379c0,.5.293.759.879.759a1.227,1.227,0,0,0,.962-.635,5.127,5.127,0,0,0,.713-1.583,6.742,6.742,0,0,0,.266-1.822,2.478,2.478,0,0,0-.232-1.122.712.712,0,0,0-.647-.461A2.366,2.366,0,0,0,2080.715,4728.309Zm-21.47.511a6.042,6.042,0,0,0-.829,1.846,7.264,7.264,0,0,0-.3,1.9,1.551,1.551,0,0,0,.241,1.055.815.815,0,0,0,.588.232,1.2,1.2,0,0,0,.821-.388,2.027,2.027,0,0,0,.556-1.063l.8-3.727a.669.669,0,0,0-.166-.42.622.622,0,0,0-.514-.206A1.48,1.48,0,0,0,2059.245,4728.82Zm-8.741,6.538,2.355-10.916h-.2a3.328,3.328,0,0,0-2.3.734,3.37,3.37,0,0,0-.821,2.6,2.154,2.154,0,0,0,.116.849,1.423,1.423,0,0,1,.116.272,2.031,2.031,0,0,1-1.335-.371,1.524,1.524,0,0,1-.44-1.228,3.885,3.885,0,0,1,2.43-3.693,7.617,7.617,0,0,1,3.226-.594,15.239,15.239,0,0,1,2.355.2,11.293,11.293,0,0,0,1.891.182,5.126,5.126,0,0,0,1.923-.347,2.25,2.25,0,0,1-.547,1.583,2.077,2.077,0,0,1-1.525.511,6.876,6.876,0,0,1-1.062-.083q-.531-.083-1.509-.28l-2.289,10.586Zm36.109-9.364-.865-1.471c-.329-.561-.53-1.53-.1-1.647s.957.763,1.09,1.377l.353,1.61a.221.221,0,0,1-.158.265.275.275,0,0,1-.066.008A.294.294,0,0,1,2086.613,4725.993Zm4.2-.7a.223.223,0,0,1-.154-.267l.343-1.628c.131-.621.647-1.511,1.063-1.393s.22,1.1-.1,1.666l-.843,1.486a.284.284,0,0,1-.243.144A.238.238,0,0,1,2090.81,4725.29Zm-26.859-.83a1.086,1.086,0,0,1-.309-.809,1.119,1.119,0,0,1,.264-.742.883.883,0,0,1,.714-.315,1.389,1.389,0,0,1,.565.1.419.419,0,0,1,.22.43,1.189,1.189,0,0,1-.048.316,1.027,1.027,0,0,0-.249-.162.6.6,0,0,0-.232-.043.513.513,0,0,0-.413.173.611.611,0,0,0-.148.411.507.507,0,0,0,.168.415.585.585,0,0,0,.377.138.55.55,0,0,0,.561-.359,3.011,3.011,0,0,0,.2-.612l1.058-4.845a1.749,1.749,0,0,0-.833.655,1.879,1.879,0,0,0-.3,1.073,1.022,1.022,0,0,0,.057.406.741.741,0,0,1,.056.13.989.989,0,0,1-.646-.178.726.726,0,0,1-.212-.588,1.482,1.482,0,0,1,.421-.982,3.124,3.124,0,0,1,1.078-.773,3.186,3.186,0,0,1,1.314-.3h.321l-1,4.813a2.91,2.91,0,0,1-.689,1.46,1.9,1.9,0,0,1-1.419.49A1.2,1.2,0,0,1,2063.95,4724.46Zm24.448.06-.27-1.622c-.1-.618.07-1.591.519-1.591s.622.973.52,1.591l-.27,1.622a.253.253,0,0,1-.5,0Zm-20.625-.791a.965.965,0,0,1-.236-.71,2.724,2.724,0,0,1,.064-.514l.545-2.532h1.154l-.577,2.682a.945.945,0,0,0-.032.253.286.286,0,0,0,.076.225.378.378,0,0,0,.252.067.619.619,0,0,0,.434-.193,1.013,1.013,0,0,0,.177-.231c0-.024,0-.048,0-.072a3.813,3.813,0,0,1,.217-1.2,2.775,2.775,0,0,1,.706-1.128,1.713,1.713,0,0,1,1.25-.478q.946,0,1.018,1.065a.581.581,0,0,0,.313-.193,2.43,2.43,0,0,0,.256-.351h.257a5.767,5.767,0,0,1-.385.667,1.287,1.287,0,0,1-.441.39,3.634,3.634,0,0,1-.309,1.3,2.181,2.181,0,0,1-.677.864,1.534,1.534,0,0,1-.922.3,1.382,1.382,0,0,1-.938-.3.931.931,0,0,1-.26-.391,1.447,1.447,0,0,1-.4.4,1.675,1.675,0,0,1-.922.3A.842.842,0,0,1,2067.773,4723.729Zm3.587-2.971a3.325,3.325,0,0,0-.389.907,3.539,3.539,0,0,0-.148.935.994.994,0,0,0,.088.509.36.36,0,0,0,.32.13q.3,0,.554-.474a3.453,3.453,0,0,0,.353-1.167c-.128-.047-.192-.166-.192-.354a.4.4,0,0,1,.224-.411.729.729,0,0,0-.084-.352.247.247,0,0,0-.22-.1Q2071.6,4720.383,2071.36,4720.758Zm-2.87-1.393a.6.6,0,0,1-.184-.441.63.63,0,0,1,.633-.631.622.622,0,0,1,.453.185.6.6,0,0,1,.188.446.59.59,0,0,1-.188.441.629.629,0,0,1-.453.182A.616.616,0,0,1,2068.491,4719.365Z" transform="translate(-2026 -4677)"/></g></svg>