<svg xmlns="http://www.w3.org/2000/svg" xmlns:xlink="http://www.w3.org/1999/xlink" width="100" height="100" viewBox="0 0 100 100"><defs><style>.a{fill:url(#a);}.b,.c,.d{fill:#fff;}.c,.e{fill-rule:evenodd;}.d{stroke:rgba(0,0,0,0);}.e{opacity:0.2;fill:url(#f);}.f{filter:url(#d);}.g{filter:url(#b);}</style><radialGradient id="a" cx="0.5" cy="0" r="1" gradientTransform="translate(0.5 -0.5) rotate(90)" gradientUnits="objectBoundingBox"><stop offset="0" stop-color="#00ffc0"/><stop offset="0.338" stop-color="#00d6a1"/><stop offset="1" stop-color="#009355"/></radialGradient><filter id="b" x="9" y="42.124" width="86" height="23.854" filterUnits="userSpaceOnUse"><feOffset dx="2" dy="2" input="SourceAlpha"/><feGaussianBlur stdDeviation="1" result="c"/><feFlood flood-opacity="0.161"/><feComposite operator="in" in2="c"/><feComposite in="SourceGraphic"/></filter><filter id="d" x="64.156" y="39.719" width="16.153" height="13.203" filterUnits="userSpaceOnUse"><feOffset dx="2" dy="2" input="SourceAlpha"/><feGaussianBlur stdDeviation="1" result="e"/><feFlood flood-opacity="0.161"/><feComposite operator="in" in2="e"/><feComposite in="SourceGraphic"/></filter><linearGradient id="f" x1="0.5" x2="0.5" y2="1" gradientUnits="objectBoundingBox"><stop offset="0" stop-color="#fff"/><stop offset="1" stop-color="#fff" stop-opacity="0"/></linearGradient></defs><g transform="translate(-4 -11.402)"><path class="a" d="M50,27A50,50,0,1,1,0,77,50,50,0,0,1,50,27Z" transform="translate(4 -15.598)"/><g transform="translate(-51.948 -154.279)"><g class="g" transform="matrix(1, 0, 0, 1, 55.95, 165.68)"><path class="b" d="M-90.627-41.385h-.284a4.727,4.727,0,0,0-3.275,1.052q-1.171,1.052-1.171,3.725a3.1,3.1,0,0,0,.166,1.218,2.055,2.055,0,0,1,.166.39,2.887,2.887,0,0,1-1.9-.532,2.2,2.2,0,0,1-.627-1.762,5.852,5.852,0,0,1,.828-3.062,5.852,5.852,0,0,1,2.637-2.235,10.819,10.819,0,0,1,4.6-.851,21.6,21.6,0,0,1,3.358.284,16.108,16.108,0,0,0,2.7.26,7.265,7.265,0,0,0,2.743-.5,3.243,3.243,0,0,1-.78,2.27,2.952,2.952,0,0,1-2.176.733,9.789,9.789,0,0,1-1.513-.118q-.757-.118-2.152-.4L-90.58-25.73h-3.405Zm7.142,15.8a3.008,3.008,0,0,1-2.247-.922,4,4,0,0,1-.9-2.885,10.8,10.8,0,0,1,.7-3.677,8.468,8.468,0,0,1,2.081-3.263,4.584,4.584,0,0,1,3.3-1.336,2.533,2.533,0,0,1,1.443.331,1.021,1.021,0,0,1,.473.875v.166l.26-1.253h3.405l-1.7,8.04a2.926,2.926,0,0,0-.095.757q0,1.017.97,1.017a1.428,1.428,0,0,0,1.147-.615,4.63,4.63,0,0,0,.769-1.608h.993A6.846,6.846,0,0,1-75.055-26.5a4.462,4.462,0,0,1-2.589.91,2.262,2.262,0,0,1-1.6-.556,2.488,2.488,0,0,1-.721-1.62,6.6,6.6,0,0,1-1.525,1.573A3.334,3.334,0,0,1-83.486-25.588Zm1.537-2.294a1.707,1.707,0,0,0,1.171-.556,2.918,2.918,0,0,0,.792-1.525l1.135-5.344a.96.96,0,0,0-.236-.6.882.882,0,0,0-.733-.3,2.109,2.109,0,0,0-1.7,1.1,8.706,8.706,0,0,0-1.182,2.649,10.474,10.474,0,0,0-.426,2.731,2.242,2.242,0,0,0,.343,1.513A1.163,1.163,0,0,0-81.949-27.882Zm22.442,2.294a2.673,2.673,0,0,1-2.116-.769,2.784,2.784,0,0,1-.674-1.9,6.124,6.124,0,0,1,.118-1.123q.118-.627.248-1.218t.177-.757q.189-.828.355-1.632a6.764,6.764,0,0,0,.166-1.3q0-1.206-.851-1.206a1.367,1.367,0,0,0-1.088.6,4.641,4.641,0,0,0-.757,1.573l-1.608,7.591h-3.405l1.726-8.158a2.428,2.428,0,0,0,.071-.591q0-1.041-.709-1.041a1.436,1.436,0,0,0-1.147.6,4.5,4.5,0,0,0-.769,1.6l-1.608,7.591h-3.405l2.507-11.824h3.405l-.26,1.23a3.743,3.743,0,0,1,2.885-1.348,2.221,2.221,0,0,1,2.436,2.034,3.829,3.829,0,0,1,3.287-2.01,2.7,2.7,0,0,1,1.915.662,2.623,2.623,0,0,1,.709,2.01,7.947,7.947,0,0,1-.166,1.525q-.166.839-.473,2.046-.189.733-.343,1.431a5.442,5.442,0,0,0-.154,1.1,1.128,1.128,0,0,0,.213.733.9.9,0,0,0,.733.26,1.406,1.406,0,0,0,1.135-.508,5.965,5.965,0,0,0,.851-1.573h.993a7.359,7.359,0,0,1-2.022,3.488A3.842,3.842,0,0,1-59.507-25.588Zm6.55,0a3.482,3.482,0,0,1-2.459-.792,2.9,2.9,0,0,1-.851-2.235,5.351,5.351,0,0,1,.166-1.348l2.53-11.847,3.5-.473-1.135,5.321a5.144,5.144,0,0,1,1.088-.532,2.9,2.9,0,0,1,.851-.13q2.79,0,2.79,4.044a10.931,10.931,0,0,1-.627,3.488,7.465,7.465,0,0,1-2.081,3.181A5.385,5.385,0,0,1-52.957-25.588Zm1.324-2.294a1.748,1.748,0,0,0,1.372-.91,7.373,7.373,0,0,0,1.017-2.27,9.74,9.74,0,0,0,.378-2.613,3.566,3.566,0,0,0-.331-1.608,1.016,1.016,0,0,0-.922-.662,3.382,3.382,0,0,0-.792.106,1.06,1.06,0,0,0-.6.319l-1.3,6.007a2.242,2.242,0,0,0-.071.544Q-52.886-27.882-51.632-27.882Zm9.483,2.247a4.03,4.03,0,0,1-2.767-.9,3.6,3.6,0,0,1-1.017-2.838,11.273,11.273,0,0,1,.662-3.571,8.444,8.444,0,0,1,2.128-3.393,5.068,5.068,0,0,1,3.689-1.431q3.027,0,3.027,3.784v.024a.952.952,0,0,0,.26.024,4.863,4.863,0,0,0,1.8-.414,8.986,8.986,0,0,0,1.845-1.005l.213.638A5.66,5.66,0,0,1-34.1-33.475a9.251,9.251,0,0,1-2.4.721,10.708,10.708,0,0,1-.97,3.76,6.385,6.385,0,0,1-2.01,2.483A4.515,4.515,0,0,1-42.15-25.635Zm.946-2.128a1.566,1.566,0,0,0,1.135-.65,5.825,5.825,0,0,0,.993-1.774,11.441,11.441,0,0,0,.615-2.495q-.638-.142-.638-.993a1.239,1.239,0,0,1,.733-1.277,2.432,2.432,0,0,0-.236-1.076.725.725,0,0,0-.662-.3q-.78,0-1.513,1.135a10.036,10.036,0,0,0-1.182,2.719,10.4,10.4,0,0,0-.449,2.79,3.033,3.033,0,0,0,.26,1.525A1.054,1.054,0,0,0-41.2-27.764Zm8.324,2.176a2.455,2.455,0,0,1-1.833-.709,2.921,2.921,0,0,1-.7-2.128,8.2,8.2,0,0,1,.189-1.537l2.53-11.847,3.5-.473-2.719,12.77a2.927,2.927,0,0,0-.095.757.868.868,0,0,0,.225.674,1.108,1.108,0,0,0,.745.2,1.8,1.8,0,0,0,1.277-.579,3.311,3.311,0,0,0,.851-1.5h.993A6.555,6.555,0,0,1-30.16-26.5,4.9,4.9,0,0,1-32.88-25.588Zm6.811,0a3.008,3.008,0,0,1-2.247-.922,4,4,0,0,1-.9-2.885,10.8,10.8,0,0,1,.7-3.677,8.468,8.468,0,0,1,2.081-3.263,4.584,4.584,0,0,1,3.3-1.336,2.533,2.533,0,0,1,1.443.331,1.021,1.021,0,0,1,.473.875v.166l.26-1.253h3.405l-1.7,8.04a2.927,2.927,0,0,0-.095.757.868.868,0,0,0,.225.674,1.108,1.108,0,0,0,.745.2,1.18,1.18,0,0,0,.52-.095,6.523,6.523,0,0,1-.993,1.856,1.739,1.739,0,0,1-1.372.532,2.175,2.175,0,0,1-1.573-.579,2.665,2.665,0,0,1-.745-1.62A4.171,4.171,0,0,1-26.069-25.588Zm1.537-2.294a1.707,1.707,0,0,0,1.171-.556,2.918,2.918,0,0,0,.792-1.525l1.135-5.344a.96.96,0,0,0-.236-.6.882.882,0,0,0-.733-.3,2.109,2.109,0,0,0-1.7,1.1,8.706,8.706,0,0,0-1.182,2.649,10.476,10.476,0,0,0-.426,2.731,2.241,2.241,0,0,0,.343,1.513A1.163,1.163,0,0,0-24.532-27.882Z" transform="translate(107.56 86.57)"/></g><g class="f" transform="matrix(1, 0, 0, 1, 55.95, 165.68)"><path class="c" d="M12.685,3.852,11.444,6.07a.408.408,0,0,1-.453.2.334.334,0,0,1-.227-.4l.506-2.429c.193-.925.952-2.252,1.565-2.077S13.157,3.008,12.685,3.852ZM8.175,5.125a.372.372,0,0,1-.735,0l-.4-2.419c-.151-.922.1-2.374.764-2.374s.916,1.452.764,2.374Zm-2.9,2.4a.425.425,0,0,1-.465-.2L3.54,5.129c-.485-.836-.781-2.283-.153-2.457S4.794,3.811,4.992,4.726l.519,2.4A.329.329,0,0,1,5.278,7.523Z" transform="translate(62.13 40.39)"/></g><g transform="translate(85.653 201.681)"><path class="d" d="M4.759,10.017a4.528,4.528,0,0,1-1.852-.394A4.739,4.739,0,0,1,1.394,8.55,5.015,5.015,0,0,1,.374,6.958a5.268,5.268,0,0,1,0-3.9,5.015,5.015,0,0,1,1.02-1.592A4.738,4.738,0,0,1,2.907.394a4.556,4.556,0,0,1,3.7,0A4.738,4.738,0,0,1,8.125,1.467a5.015,5.015,0,0,1,1.02,1.592,5.268,5.268,0,0,1,0,3.9A5.015,5.015,0,0,1,8.125,8.55,4.739,4.739,0,0,1,6.612,9.624,4.528,4.528,0,0,1,4.759,10.017ZM7.051,3.862a1.414,1.414,0,0,0-1.5,1.493,1.523,1.523,0,0,0,.4,1.1,1.467,1.467,0,0,0,1.078.408,1.486,1.486,0,0,0,1.082-.408,1.5,1.5,0,0,0,.408-1.091,1.51,1.51,0,0,0-.4-1.086A1.456,1.456,0,0,0,7.051,3.862ZM1.609,5.538a.591.591,0,0,0-.355.579c0,.472.427.743,1.172.743A1.374,1.374,0,0,0,3.48,6.481,1.7,1.7,0,0,0,3.839,5.3V3.557c0-.356-.16-.536-.477-.536H3.2c-.3,0-.465.185-.465.536V5.28c0,.431-.134.6-.477.6a.8.8,0,0,1-.646-.34A.007.007,0,0,0,1.609,5.538ZM4.687,3.891c-.312,0-.471.18-.471.536V6.272c0,.366.153.536.482.536h.11c.305,0,.46-.18.46-.536V4.427c0-.371-.145-.536-.471-.536Zm.049-1.337a.5.5,0,0,0-.553.519.508.508,0,0,0,.569.524.5.5,0,0,0,.553-.524A.506.506,0,0,0,4.736,2.554Zm2.3,3.458a.6.6,0,0,1-.592-.657.69.69,0,0,1,.166-.468A.566.566,0,0,1,7.04,4.7a.6.6,0,0,1,.592.657.688.688,0,0,1-.168.466A.564.564,0,0,1,7.04,6.012Z" transform="translate(0 0)"/><g transform="translate(11.519 3.291)"><path class="b" d="M2388.766,731.243a.854.854,0,0,1,.3.052.653.653,0,0,1,.241.154.727.727,0,0,1,.159.257,1.042,1.042,0,0,1,.058.362,1.13,1.13,0,0,1-.047.337.748.748,0,0,1-.141.267.654.654,0,0,1-.236.177.8.8,0,0,1-.333.064h-.72v-1.67Zm-.026,1.361a.474.474,0,0,0,.154-.026.351.351,0,0,0,.134-.085.442.442,0,0,0,.093-.156.694.694,0,0,0,.035-.234,1,1,0,0,0-.025-.228.452.452,0,0,0-.081-.174.359.359,0,0,0-.148-.111.6.6,0,0,0-.228-.039h-.262V732.6Z" transform="translate(-2388.046 -731.205)"/><rect class="b" width="0.367" height="1.67" transform="translate(1.791 0.039)"/><path class="b" d="M2438.385,732.171a.616.616,0,0,1-.241.05.855.855,0,0,1-.345-.067.74.74,0,0,1-.258-.184.806.806,0,0,1-.161-.275,1,1,0,0,1-.056-.34,1.031,1.031,0,0,1,.056-.347.83.83,0,0,1,.161-.28.734.734,0,0,1,.258-.187.839.839,0,0,1,.345-.068.815.815,0,0,1,.25.039.7.7,0,0,1,.217.113.615.615,0,0,1,.16.185.625.625,0,0,1,.078.253h-.351a.352.352,0,0,0-.126-.21.366.366,0,0,0-.227-.07.427.427,0,0,0-.21.048.4.4,0,0,0-.141.129.573.573,0,0,0-.078.184.926.926,0,0,0-.024.213.863.863,0,0,0,.024.2.564.564,0,0,0,.078.179.4.4,0,0,0,.141.127.424.424,0,0,0,.21.048.358.358,0,0,0,.4-.36h-.37v-.274h.7v.9h-.234l-.038-.189a.548.548,0,0,1-.217.177" transform="translate(-2434.856 -730.474)"/><rect class="b" width="0.367" height="1.67" transform="translate(4.373 0.039)"/><path class="b" d="M2487.723,731.552v-.309h1.369v.309h-.5v1.361h-.367v-1.361Z" transform="translate(-2482.732 -731.205)"/><path class="b" d="M2513.254,731.245l.625,1.67h-.381l-.126-.372h-.625l-.131.372h-.37l.632-1.67Zm.021,1.024-.211-.613h0l-.217.613Z" transform="translate(-2506.028 -731.206)"/><path class="b" d="M2549.281,731.244V732.6h.814v.309h-1.181v-1.67Z" transform="translate(-2540.859 -731.205)"/><path class="b" d="M2388.646,774.743V776.1h.814v.309h-1.181v-1.67Z" transform="translate(-2388.268 -772.527)"/><rect class="b" width="0.367" height="1.67" transform="translate(1.49 2.216)"/><path class="b" d="M2433.9,774.743v.309h-.807v.386h.7v.285h-.7v.69h-.367v-1.67Z" transform="translate(-2430.489 -772.527)"/><path class="b" d="M2463.113,774.743v.309h-.882v.358h.809v.285h-.809v.409h.9v.309h-1.268v-1.67Z" transform="translate(-2458.167 -772.527)"/></g></g></g><path class="e" d="M71.17,31c13.9,0,25.17,6.859,25.17,15.321S85.071,61.642,71.17,61.642,46,54.783,46,46.321,57.269,31,71.17,31Z" transform="translate(-17 -16.578)"/></g></svg>