<svg xmlns="http://www.w3.org/2000/svg" xmlns:xlink="http://www.w3.org/1999/xlink" width="130" height="130" viewBox="0 0 130 130"><defs><style>.a{fill:url(#a);}.b{fill:#fff;}.b,.d{fill-rule:evenodd;}.c{fill:url(#d);}.d{fill:#fff7ee;opacity:0.2;}.e{fill:#b50000;}.f{filter:url(#b);}</style><radialGradient id="a" cx="0.5" cy="0" r="1" gradientTransform="translate(0.5 -0.5) rotate(90)" gradientUnits="objectBoundingBox"><stop offset="0" stop-color="#ff8f8f"/><stop offset="0.338" stop-color="red"/><stop offset="1" stop-color="#b10000"/></radialGradient><filter id="b" x="0" y="0" width="130" height="130" filterUnits="userSpaceOnUse"><feOffset input="SourceAlpha"/><feGaussianBlur stdDeviation="5" result="c"/><feFlood flood-opacity="0.4"/><feComposite operator="in" in2="c"/><feComposite in="SourceGraphic"/></filter><radialGradient id="d" cx="0.5" cy="0" r="1" gradientTransform="translate(0.5 -0.5) rotate(90)" gradientUnits="objectBoundingBox"><stop offset="0" stop-color="#fff"/><stop offset="1" stop-color="#ffc9c9"/></radialGradient></defs><g transform="translate(15 15)"><g class="f" transform="matrix(1, 0, 0, 1, -15, -15)"><path class="a" d="M50,27A50,50,0,1,1,0,77,50,50,0,0,1,50,27Z" transform="translate(15 -12)"/></g><path class="b" d="M60,125A38,38,0,1,1,98,87,38,38,0,0,1,60,125Zm0-72.719A34.719,34.719,0,1,0,94.719,87,34.719,34.719,0,0,0,60,52.281Zm0,66.158A31.439,31.439,0,1,1,91.439,87,31.439,31.439,0,0,1,60,118.439Z" transform="translate(-10 -37)"/><path class="c" d="M60,125A38,38,0,1,1,98,87,38,38,0,0,1,60,125Zm0-72.719A34.719,34.719,0,1,0,94.719,87,34.719,34.719,0,0,0,60,52.281Zm0,66.158A31.439,31.439,0,1,1,91.439,87,31.439,31.439,0,0,1,60,118.439Z" transform="translate(-10 -37)"/><path class="d" d="M71.17,31c13.9,0,25.17,6.859,25.17,15.321S85.071,61.642,71.17,61.642,46,54.783,46,46.321,57.269,31,71.17,31Z" transform="translate(-21 -27.98)"/><path class="e" d="M2101.131,4735.052a1.852,1.852,0,0,1-.522-1.129,2.929,2.929,0,0,1-2.471,1.534,2.115,2.115,0,0,1-1.575-.643,2.02,2.02,0,0,1-.475-.83,3.044,3.044,0,0,1-.819.838,3.449,3.449,0,0,1-1.907.635,1.727,1.727,0,0,1-1.285-.5,2.028,2.028,0,0,1-.489-1.484,5.676,5.676,0,0,1,.133-1.072l.5-2.325a6.648,6.648,0,0,1-1.4.379,7.434,7.434,0,0,1-.68,2.622,4.46,4.46,0,0,1-1.41,1.731,3.179,3.179,0,0,1-1.874.61,2.838,2.838,0,0,1-1.94-.626,2.5,2.5,0,0,1-.713-1.979,7.821,7.821,0,0,1,.464-2.49,5.881,5.881,0,0,1,1.493-2.366,3.566,3.566,0,0,1,2.587-1q2.123,0,2.123,2.639v.016a.687.687,0,0,0,.183.016,3.426,3.426,0,0,0,1.26-.288l.066-.027,1.112-5.175,2.455-.33-1.907,8.9a2.038,2.038,0,0,0-.066.528.6.6,0,0,0,.157.47.782.782,0,0,0,.522.14,1.267,1.267,0,0,0,.9-.4,2.1,2.1,0,0,0,.383-.512c0-.046,0-.093,0-.14a7.5,7.5,0,0,1,.489-2.564,5.9,5.9,0,0,1,1.459-2.275,3.225,3.225,0,0,1,2.314-.932,1.786,1.786,0,0,1,1.012.231.71.71,0,0,1,.332.61v.116l.182-.874h2.388l-1.194,5.606a2.038,2.038,0,0,0-.066.528.6.6,0,0,0,.157.47.782.782,0,0,0,.522.14.825.825,0,0,0,.365-.066,4.542,4.542,0,0,1-.7,1.295,1.224,1.224,0,0,1-.962.371A1.53,1.53,0,0,1,2101.131,4735.052Zm-13.31-6.291a6.984,6.984,0,0,0-.829,1.9,7.221,7.221,0,0,0-.315,1.946,2.107,2.107,0,0,0,.182,1.064.741.741,0,0,0,.663.271,1.1,1.1,0,0,0,.8-.453,4.046,4.046,0,0,0,.7-1.237,7.939,7.939,0,0,0,.432-1.739q-.448-.1-.448-.693a.862.862,0,0,1,.514-.89,1.7,1.7,0,0,0-.166-.75.51.51,0,0,0-.465-.206Q2088.336,4727.97,2087.822,4728.761Zm11.693.058a6.057,6.057,0,0,0-.829,1.847,7.269,7.269,0,0,0-.3,1.9,1.556,1.556,0,0,0,.24,1.056.818.818,0,0,0,.589.231,1.2,1.2,0,0,0,.821-.388,2.029,2.029,0,0,0,.556-1.063l.8-3.727a.668.668,0,0,0-.166-.42.619.619,0,0,0-.514-.206A1.48,1.48,0,0,0,2099.514,4728.819Zm-21.959,6.084a1.781,1.781,0,0,1-.514-.87,2.974,2.974,0,0,1-.688.8,2.706,2.706,0,0,1-1.667.619,1.88,1.88,0,0,1-1.484-.536,1.934,1.934,0,0,1-.473-1.327,4.24,4.24,0,0,1,.083-.784q.083-.437.174-.849t.124-.528q.133-.576.249-1.137a4.678,4.678,0,0,0,.116-.907q0-.841-.6-.841a.959.959,0,0,0-.763.42,3.221,3.221,0,0,0-.531,1.1l-1.128,5.293h-2.388l1.211-5.689a1.692,1.692,0,0,0,.05-.412q0-.726-.5-.726a1.009,1.009,0,0,0-.8.42,3.136,3.136,0,0,0-.539,1.113l-1.128,5.293h-2.388l.184-.861a2.566,2.566,0,0,1-.374.325,3.141,3.141,0,0,1-1.816.635,1.594,1.594,0,0,1-1.12-.388,1.732,1.732,0,0,1-.506-1.13,4.616,4.616,0,0,1-1.07,1.1,2.348,2.348,0,0,1-1.4.42,2.117,2.117,0,0,1-1.576-.643,2.784,2.784,0,0,1-.63-2.012,7.5,7.5,0,0,1,.489-2.564,5.9,5.9,0,0,1,1.46-2.275,3.225,3.225,0,0,1,2.314-.932,1.785,1.785,0,0,1,1.011.231.71.71,0,0,1,.332.61v.116l.182-.874h2.388l-1.194,5.606a2.038,2.038,0,0,0-.067.528q0,.709.68.709a1,1,0,0,0,.8-.429,3.211,3.211,0,0,0,.536-1.109l1.131-5.305h2.388l-.182.857a2.631,2.631,0,0,1,2.023-.94,1.555,1.555,0,0,1,1.708,1.418,2.687,2.687,0,0,1,2.305-1.4,1.9,1.9,0,0,1,1.344.462,1.825,1.825,0,0,1,.5,1.4,5.51,5.51,0,0,1-.116,1.063q-.116.586-.332,1.426-.133.511-.24,1a3.766,3.766,0,0,0-.108.767.782.782,0,0,0,.149.511.633.633,0,0,0,.514.182.988.988,0,0,0,.8-.354,4.161,4.161,0,0,0,.6-1.1l1.775-8.261,2.455-.33-.8,3.71a3.62,3.62,0,0,1,.763-.371,2.06,2.06,0,0,1,.6-.09q1.957,0,1.957,2.819a7.576,7.576,0,0,1-.439,2.432,5.2,5.2,0,0,1-1.459,2.218,3.792,3.792,0,0,1-2.645.923A2.449,2.449,0,0,1,2077.555,4734.9Zm3.16-6.6a.747.747,0,0,0-.423.223l-.912,4.188a1.559,1.559,0,0,0-.05.379q0,.759.879.759a1.226,1.226,0,0,0,.962-.635,5.133,5.133,0,0,0,.713-1.583,6.761,6.761,0,0,0,.265-1.822,2.476,2.476,0,0,0-.232-1.121.713.713,0,0,0-.647-.462A2.387,2.387,0,0,0,2080.715,4728.308Zm-21.47.511a6.063,6.063,0,0,0-.829,1.847,7.268,7.268,0,0,0-.3,1.9,1.556,1.556,0,0,0,.24,1.056.818.818,0,0,0,.589.231,1.2,1.2,0,0,0,.821-.388,2.032,2.032,0,0,0,.556-1.063l.8-3.727a.668.668,0,0,0-.166-.42.619.619,0,0,0-.514-.206A1.48,1.48,0,0,0,2059.245,4728.819Zm-8.74,6.538,2.355-10.916h-.2a3.327,3.327,0,0,0-2.3.734,3.373,3.373,0,0,0-.821,2.6,2.155,2.155,0,0,0,.116.849,1.423,1.423,0,0,1,.116.272,2.031,2.031,0,0,1-1.335-.371,1.526,1.526,0,0,1-.44-1.229,3.886,3.886,0,0,1,2.43-3.693,7.624,7.624,0,0,1,3.226-.594,15.3,15.3,0,0,1,2.355.2,11.344,11.344,0,0,0,1.891.182,5.129,5.129,0,0,0,1.924-.346,2.254,2.254,0,0,1-.548,1.583,2.078,2.078,0,0,1-1.526.511,6.942,6.942,0,0,1-1.062-.082q-.531-.083-1.509-.28l-2.289,10.586Zm36.109-9.364-.864-1.471c-.33-.561-.531-1.53-.1-1.647s.956.763,1.09,1.377l.352,1.61a.221.221,0,0,1-.158.264.248.248,0,0,1-.066.009A.3.3,0,0,1,2086.613,4725.993Zm4.2-.7a.224.224,0,0,1-.155-.267l.344-1.629c.131-.62.647-1.51,1.063-1.392s.22,1.1-.1,1.665l-.843,1.487a.286.286,0,0,1-.243.145A.237.237,0,0,1,2090.81,4725.289Zm-2.412-.77-.27-1.622c-.1-.618.07-1.591.519-1.591s.622.974.519,1.591l-.27,1.622a.253.253,0,0,1-.5,0Z" transform="translate(-2026 -4677)"/></g></svg>