<svg xmlns="http://www.w3.org/2000/svg" width="21.4" height="21.431" viewBox="0 0 21.4 21.431"><defs><style>.a{fill:none;stroke:#959595;stroke-miterlimit:10;stroke-width:1.4px;}</style></defs><g transform="translate(-1735.973 -874.983)"><path class="a" d="M1743.573,875.683h-5.636a.527.527,0,0,0-.064,0,1.259,1.259,0,0,0-1.2,1.26v3.182a1.265,1.265,0,0,0,1.264,1.264h5.636a1.259,1.259,0,0,0,1.26-1.2.475.475,0,0,0,0-.064v-3.182A1.265,1.265,0,0,0,1743.573,875.683Z"/><path class="a" d="M1789.734,875.683H1784.1a.53.53,0,0,0-.064,0,1.259,1.259,0,0,0-1.2,1.26v8.089a1.265,1.265,0,0,0,1.264,1.264h5.636a1.259,1.259,0,0,0,1.259-1.2.456.456,0,0,0,0-.064v-8.089A1.265,1.265,0,0,0,1789.734,875.683Z" transform="translate(-34.325)"/><path class="a" d="M1789.734,931.534H1784.1a.484.484,0,0,0-.064,0,1.259,1.259,0,0,0-1.2,1.259v3.183a1.265,1.265,0,0,0,1.264,1.264h5.636a1.259,1.259,0,0,0,1.259-1.2.452.452,0,0,0,0-.063V932.8A1.265,1.265,0,0,0,1789.734,931.534Z" transform="translate(-34.325 -41.53)"/><path class="a" d="M1743.573,912.4h-5.636a.493.493,0,0,0-.064,0,1.259,1.259,0,0,0-1.2,1.26v8.089a1.266,1.266,0,0,0,1.264,1.264h5.636a1.259,1.259,0,0,0,1.26-1.2.471.471,0,0,0,0-.063v-8.089A1.265,1.265,0,0,0,1743.573,912.4Z" transform="translate(0 -27.3)"/></g></svg>