<svg xmlns="http://www.w3.org/2000/svg" xmlns:xlink="http://www.w3.org/1999/xlink" width="375" height="667" viewBox="0 0 375 667"><defs><style>.a,.ah{fill:#fff;}.b{fill:#b2edff;}.c{clip-path:url(#a);}.d{fill:url(#b);}.e{fill:url(#c);}.f{fill:#9fbae0;}.ab,.ad,.f,.n,.p,.r,.t,.v{mix-blend-mode:multiply;isolation:isolate;}.g{fill:url(#e);}.h{fill:url(#g);}.i{fill:url(#h);}.j{fill:none;stroke:#f2f2f2;stroke-miterlimit:10;stroke-width:2px;}.k{fill:#1ab2d9;}.l{fill:#4bccf3;}.m{fill:#91d7ff;}.n{fill:#a8a8a8;}.ab,.n{opacity:0.4;}.o{fill:#eaf5f8;}.p{fill:#9f9f9f;}.ad,.p{opacity:0.5;}.q{fill:url(#ai);}.r{fill:#b5d0d1;}.s{fill:url(#aj);}.t{fill:#b0c9ed;}.u{fill:url(#ak);}.v{fill:#d8e0eb;}.w{fill:url(#al);}.x{fill:url(#am);}.y{fill:#ffa4a4;}.z{fill:#ff7575;}.aa{fill:#ffc1c1;}.ab{fill:#ff819e;}.ac{fill:#d43d42;}.ad{fill:#ec3c40;}.ae{fill:#0041aa;}.af{fill:#d71920;}.af,.ah{fill-rule:evenodd;}.ag{fill:#e30513;}.ai{filter:url(#bd);}.aj{filter:url(#bb);}.ak{filter:url(#az);}.al{filter:url(#ax);}.am{filter:url(#av);}.an{filter:url(#at);}.ao{filter:url(#ar);}.ap{filter:url(#ap);}.aq{filter:url(#an);}.ar{filter:url(#ae);}.as{filter:url(#ac);}.at{filter:url(#aa);}.au{filter:url(#y);}.av{filter:url(#w);}.aw{filter:url(#u);}.ax{filter:url(#s);}.ay{filter:url(#q);}.az{filter:url(#o);}.ba{filter:url(#m);}.bb{filter:url(#k);}.bc{filter:url(#i);}</style><clipPath id="a"><rect class="a" width="375" height="667"/></clipPath><linearGradient id="b" x1="0.76" y1="0.311" x2="0.231" y2="0.586" gradientUnits="objectBoundingBox"><stop offset="0" stop-color="#fff"/><stop offset="0.995" stop-color="#a9b9d6"/></linearGradient><linearGradient id="c" x1="0.759" y1="0.396" x2="0.149" y2="0.562" gradientUnits="objectBoundingBox"><stop offset="0" stop-color="#fff"/><stop offset="1" stop-color="#a4bbcf"/></linearGradient><linearGradient id="e" x1="0.238" y1="0.286" x2="0.604" y2="0.502" xlink:href="#b"/><linearGradient id="g" x1="0.223" y1="0.364" x2="0.939" y2="0.61" xlink:href="#c"/><linearGradient id="h" x1="138.21" y1="0.493" x2="137.24" y2="0.505" gradientUnits="objectBoundingBox"><stop offset="0" stop-color="#fff"/><stop offset="0.995" stop-color="#dbe6ea"/></linearGradient><filter id="i" x="45.207" y="331.391" width="75.802" height="79.334" filterUnits="userSpaceOnUse"><feOffset dx="3" dy="5" input="SourceAlpha"/><feGaussianBlur stdDeviation="2.5" result="j"/><feFlood flood-color="#005366" flood-opacity="0.302"/><feComposite operator="in" in2="j"/><feComposite in="SourceGraphic"/></filter><filter id="k" x="56.838" y="333.891" width="56.54" height="81.836" filterUnits="userSpaceOnUse"><feOffset dx="5" dy="10" input="SourceAlpha"/><feGaussianBlur stdDeviation="2.5" result="l"/><feFlood flood-color="#058196" flood-opacity="0.302"/><feComposite operator="in" in2="l"/><feComposite in="SourceGraphic"/></filter><filter id="m" x="60.436" y="328.891" width="49.348" height="94.336" filterUnits="userSpaceOnUse"><feOffset dx="5" dy="10" input="SourceAlpha"/><feGaussianBlur stdDeviation="5" result="n"/><feFlood flood-color="#005366" flood-opacity="0.302"/><feComposite operator="in" in2="n"/><feComposite in="SourceGraphic"/></filter><filter id="o" x="70.313" y="404.318" width="25.594" height="22.229" filterUnits="userSpaceOnUse"><feOffset dx="3" dy="5" input="SourceAlpha"/><feGaussianBlur stdDeviation="2.5" result="p"/><feFlood flood-color="#005366" flood-opacity="0.302"/><feComposite operator="in" in2="p"/><feComposite in="SourceGraphic"/></filter><filter id="q" x="166.181" y="549.813" width="47.853" height="49.762" filterUnits="userSpaceOnUse"><feOffset dx="3" dy="5" input="SourceAlpha"/><feGaussianBlur stdDeviation="2.5" result="r"/><feFlood flood-color="#005366" flood-opacity="0.302"/><feComposite operator="in" in2="r"/><feComposite in="SourceGraphic"/></filter><filter id="s" x="173.385" y="552.313" width="37.446" height="52.263" filterUnits="userSpaceOnUse"><feOffset dx="5" dy="10" input="SourceAlpha"/><feGaussianBlur stdDeviation="2.5" result="t"/><feFlood flood-color="#058196" flood-opacity="0.302"/><feComposite operator="in" in2="t"/><feComposite in="SourceGraphic"/></filter><filter id="u" x="171.882" y="547.313" width="40.454" height="64.763" filterUnits="userSpaceOnUse"><feOffset dx="5" dy="10" input="SourceAlpha"/><feGaussianBlur stdDeviation="5" result="v"/><feFlood flood-color="#005366" flood-opacity="0.302"/><feComposite operator="in" in2="v"/><feComposite in="SourceGraphic"/></filter><filter id="w" x="179.747" y="589.219" width="20.724" height="18.906" filterUnits="userSpaceOnUse"><feOffset dx="3" dy="5" input="SourceAlpha"/><feGaussianBlur stdDeviation="2.5" result="x"/><feFlood flood-color="#005366" flood-opacity="0.302"/><feComposite operator="in" in2="x"/><feComposite in="SourceGraphic"/></filter><filter id="y" x="282.636" y="284.548" width="64.944" height="67.846" filterUnits="userSpaceOnUse"><feOffset dx="3" dy="5" input="SourceAlpha"/><feGaussianBlur stdDeviation="2.5" result="z"/><feFlood flood-color="#005366" flood-opacity="0.302"/><feComposite operator="in" in2="z"/><feComposite in="SourceGraphic"/></filter><filter id="aa" x="292.547" y="287.047" width="49.122" height="70.347" filterUnits="userSpaceOnUse"><feOffset dx="5" dy="10" input="SourceAlpha"/><feGaussianBlur stdDeviation="2.5" result="ab"/><feFlood flood-color="#058196" flood-opacity="0.302"/><feComposite operator="in" in2="ab"/><feComposite in="SourceGraphic"/></filter><filter id="ac" x="294.163" y="282.047" width="45.893" height="82.847" filterUnits="userSpaceOnUse"><feOffset dx="5" dy="10" input="SourceAlpha"/><feGaussianBlur stdDeviation="5" result="ad"/><feFlood flood-color="#005366" flood-opacity="0.302"/><feComposite operator="in" in2="ad"/><feComposite in="SourceGraphic"/></filter><filter id="ae" x="303.258" y="344.452" width="23.702" height="20.938" filterUnits="userSpaceOnUse"><feOffset dx="3" dy="5" input="SourceAlpha"/><feGaussianBlur stdDeviation="2.5" result="af"/><feFlood flood-color="#005366" flood-opacity="0.302"/><feComposite operator="in" in2="af"/><feComposite in="SourceGraphic"/></filter><linearGradient id="ai" x1="97.314" y1="0.493" x2="96.344" y2="0.505" xlink:href="#h"/><linearGradient id="aj" x1="0.383" y1="0.096" x2="0.607" y2="1.194" gradientUnits="objectBoundingBox"><stop offset="0" stop-color="#f8f8f8"/><stop offset="1" stop-color="#eefbff"/></linearGradient><linearGradient id="ak" x1="0.414" y1="0.297" x2="0.743" y2="1.073" gradientUnits="objectBoundingBox"><stop offset="0" stop-color="#fff"/><stop offset="1" stop-color="#a4adc9"/></linearGradient><linearGradient id="al" x1="0.427" y1="0.426" x2="0.894" y2="1.017" gradientUnits="objectBoundingBox"><stop offset="0" stop-color="#fff"/><stop offset="1" stop-color="#d9e2f7"/></linearGradient><linearGradient id="am" x1="13.194" y1="0.297" x2="13.523" y2="1.073" xlink:href="#ak"/><filter id="an" x="20.369" y="484.469" width="57.478" height="59.946" filterUnits="userSpaceOnUse"><feOffset dx="3" dy="5" input="SourceAlpha"/><feGaussianBlur stdDeviation="2.5" result="ao"/><feFlood flood-color="#005366" flood-opacity="0.302"/><feComposite operator="in" in2="ao"/><feComposite in="SourceGraphic"/></filter><filter id="ap" x="29.098" y="486.969" width="44.021" height="62.447" filterUnits="userSpaceOnUse"><feOffset dx="5" dy="10" input="SourceAlpha"/><feGaussianBlur stdDeviation="2.5" result="aq"/><feFlood flood-color="#058196" flood-opacity="0.302"/><feComposite operator="in" in2="aq"/><feComposite in="SourceGraphic"/></filter><filter id="ar" x="29.351" y="481.969" width="43.517" height="74.947" filterUnits="userSpaceOnUse"><feOffset dx="5" dy="10" input="SourceAlpha"/><feGaussianBlur stdDeviation="5" result="as"/><feFlood flood-color="#005366" flood-opacity="0.302"/><feComposite operator="in" in2="as"/><feComposite in="SourceGraphic"/></filter><filter id="at" x="37.909" y="535.419" width="22.401" height="20.05" filterUnits="userSpaceOnUse"><feOffset dx="3" dy="5" input="SourceAlpha"/><feGaussianBlur stdDeviation="2.5" result="au"/><feFlood flood-color="#005366" flood-opacity="0.302"/><feComposite operator="in" in2="au"/><feComposite in="SourceGraphic"/></filter><filter id="av" x="313.335" y="437.469" width="63.546" height="66.366" filterUnits="userSpaceOnUse"><feOffset dx="3" dy="5" input="SourceAlpha"/><feGaussianBlur stdDeviation="2.5" result="aw"/><feFlood flood-color="#005366" flood-opacity="0.302"/><feComposite operator="in" in2="aw"/><feComposite in="SourceGraphic"/></filter><filter id="ax" x="323.025" y="439.969" width="48.167" height="68.868" filterUnits="userSpaceOnUse"><feOffset dx="5" dy="10" input="SourceAlpha"/><feGaussianBlur stdDeviation="2.5" result="ay"/><feFlood flood-color="#058196" flood-opacity="0.302"/><feComposite operator="in" in2="ay"/><feComposite in="SourceGraphic"/></filter><filter id="az" x="324.385" y="434.969" width="45.448" height="81.368" filterUnits="userSpaceOnUse"><feOffset dx="5" dy="10" input="SourceAlpha"/><feGaussianBlur stdDeviation="5" result="ba"/><feFlood flood-color="#005366" flood-opacity="0.302"/><feComposite operator="in" in2="ba"/><feComposite in="SourceGraphic"/></filter><filter id="bb" x="333.38" y="495.697" width="23.458" height="20.772" filterUnits="userSpaceOnUse"><feOffset dx="3" dy="5" input="SourceAlpha"/><feGaussianBlur stdDeviation="2.5" result="bc"/><feFlood flood-color="#005366" flood-opacity="0.302"/><feComposite operator="in" in2="bc"/><feComposite in="SourceGraphic"/></filter><filter id="bd" x="68.616" y="160" width="244.869" height="67.108" filterUnits="userSpaceOnUse"><feOffset dx="4" dy="4" input="SourceAlpha"/><feGaussianBlur stdDeviation="1" result="be"/><feFlood flood-opacity="0.161"/><feComposite operator="in" in2="be"/><feComposite in="SourceGraphic"/></filter></defs><path class="b" d="M0,0H375V667H0Z"/><g class="c"><g transform="translate(-81.679 -119.29)"><path class="d" d="M125.574,197.171c8.183,0,14.818-5.228,14.818-11.679,0-5.39-4.641-9.916-10.941-11.261-.758-4.735-5.545-8.48-11.575-9.024-2.234-10.178-13.462-17.924-27.011-17.924v49.888Z" transform="translate(-8.959 0)"/><path class="e" d="M114.112,197.171c5.481,0,9.923-5.228,9.923-11.679,0-5.39-3.108-9.916-7.328-11.261-.507-4.735-3.714-8.48-7.752-9.024-1.5-10.178-9.015-17.924-18.091-17.924v49.888Z" transform="translate(-8.959 0)"/><path class="a" d="M102.665,197.171c2.781,0,5.037-5.228,5.037-11.679,0-5.39-1.578-9.916-3.72-11.261-.257-4.735-1.884-8.48-3.935-9.024-.758-10.178-4.575-17.924-9.182-17.924v49.888Z" transform="translate(-8.959 0)"/></g><g transform="translate(247.317 -69.249)"><path class="f" d="M111.544,172.641c-.64-4-4.684-7.165-9.779-7.625-1.884-8.6-11.37-15.142-22.818-15.142s-20.933,6.544-22.817,15.142c-5.1.46-9.141,3.621-9.781,7.625-5.321,1.136-9.244,4.959-9.244,9.514,0,5.449,5.606,9.866,12.52,9.866H108.27c6.914,0,12.518-4.417,12.518-9.866C120.788,177.6,116.868,173.777,111.544,172.641Z" transform="translate(-1.345 -0.737)"/><path class="d" d="M120.188,189.429c6.913,0,12.518-4.417,12.518-9.867,0-4.554-3.921-8.377-9.243-9.514-.64-4-4.685-7.164-9.779-7.623-1.887-8.6-11.373-15.142-22.82-15.142v42.146Z" transform="translate(-16.644)"/><path class="g" d="M44.9,189.429c-6.914,0-12.519-4.417-12.519-9.867,0-4.554,3.92-8.377,9.242-9.514.64-4,4.686-7.164,9.78-7.623,1.886-8.6,11.371-15.142,22.818-15.142v42.146Z"/><path class="e" d="M110.5,189.429c4.63,0,8.383-4.417,8.383-9.867,0-4.554-2.626-8.377-6.19-9.514-.429-4-3.138-7.164-6.549-7.623-1.264-8.6-7.616-15.142-15.283-15.142v42.146Z" transform="translate(-16.644)"/><path class="h" d="M60.078,189.429c-4.629,0-8.382-4.417-8.382-9.867,0-4.554,2.626-8.377,6.19-9.514.429-4,3.137-7.164,6.55-7.623,1.262-8.6,7.615-15.142,15.282-15.142v42.146Z" transform="translate(-5.497)"/><path class="a" d="M100.834,189.429c2.349,0,4.255-4.417,4.255-9.867,0-4.554-1.333-8.377-3.143-9.514-.217-4-1.592-7.164-3.325-7.623-.64-8.6-3.865-15.142-7.757-15.142v42.146Z" transform="translate(-16.644)"/><path class="i" d="M75.239,189.429c-2.351,0-4.257-4.417-4.257-9.867,0-4.554,1.335-8.377,3.144-9.514.218-4,1.592-7.164,3.324-7.623.641-8.6,3.866-15.142,7.757-15.142v42.146Z" transform="translate(-10.986)"/></g><g transform="translate(-7.498 228.96)"><line class="j" y1="11.345" x2="3.39" transform="translate(92.263 166.674)"/><line class="j" x1="3.389" y1="11.345" transform="translate(79.777 166.674)"/><g transform="translate(57.205 104.931)"><g class="bc" transform="matrix(1, 0, 0, 1, -49.71, -333.89)"><path class="k" d="M118.007,134.285a32.072,32.072,0,0,1-.882,7.369c-3.509,14.738-16.834,27.387-29.189,27.606-.109.006-.219.006-.328.006-14,0-30.4-17.217-30.4-34.981s13.609-29.353,30.4-29.353S118.007,116.517,118.007,134.285Z" transform="translate(-7.5 228.96)"/></g><g class="bb" transform="matrix(1, 0, 0, 1, -49.71, -333.89)"><path class="l" d="M95.75,104.931c-11.471,0-20.77,11.587-20.77,29.353s11.209,34.983,20.77,34.983c9.884,0,20.77-17.217,20.77-34.983S107.221,104.931,95.75,104.931Z" transform="translate(-15.64 228.96)"/></g><g class="ba" transform="matrix(1, 0, 0, 1, -49.71, -333.89)"><path class="m" d="M105.136,104.931c-5.342,0-9.674,11.587-9.674,29.353s5.221,34.983,9.674,34.983c4.6,0,9.674-17.217,9.674-34.983S110.478,104.931,105.136,104.931Z" transform="translate(-25.03 228.96)"/></g><path class="n" d="M143.715,134.285a32.072,32.072,0,0,1-.882,7.369c-3.509,14.738-16.834,27.387-29.189,27.606-.109.006-.219.006-.328.006V104.932C130.106,104.932,143.715,116.517,143.715,134.285Z" transform="translate(-82.913 -104.931)"/></g><g class="az" transform="matrix(1, 0, 0, 1, 7.5, -228.96)"><path class="o" d="M114.134,239.527,112.7,245.3a1.927,1.927,0,0,1-1.867,1.46h-3.987a1.926,1.926,0,0,1-1.867-1.46l-1.436-5.769Z" transform="translate(-28.73 167.29)"/></g><path class="p" d="M118.613,239.527l-1.436,5.769a1.927,1.927,0,0,1-1.867,1.46h-1.993v-7.229Z" transform="translate(-25.708 -61.668)"/></g><g transform="translate(113.476 447.382)"><line class="j" y1="6.13" x2="1.832" transform="translate(76.148 138.293)"/><line class="j" x1="1.831" y1="6.13" transform="translate(69.402 138.293)"/><g transform="translate(57.205 104.931)"><g class="ay" transform="matrix(1, 0, 0, 1, -170.68, -552.31)"><path class="k" d="M90.058,120.792a17.329,17.329,0,0,1-.477,3.982c-1.9,7.964-9.1,14.8-15.772,14.916-.059,0-.118,0-.177,0-7.563,0-16.428-9.3-16.428-18.9s7.353-15.86,16.428-15.86S90.058,111.192,90.058,120.792Z" transform="translate(113.48 447.38)"/></g><g class="ax" transform="matrix(1, 0, 0, 1, -170.68, -552.31)"><path class="l" d="M86.2,104.931c-6.2,0-11.223,6.261-11.223,15.86s6.057,18.9,11.223,18.9c5.341,0,11.223-9.3,11.223-18.9S92.4,104.931,86.2,104.931Z" transform="translate(100.91 447.38)"/></g><g class="aw" transform="matrix(1, 0, 0, 1, -170.68, -552.31)"><path class="m" d="M100.689,104.931c-2.887,0-5.227,6.261-5.227,15.86s2.821,18.9,5.227,18.9c2.487,0,5.227-9.3,5.227-18.9S103.576,104.931,100.689,104.931Z" transform="translate(86.42 447.38)"/></g><path class="n" d="M129.742,120.792a17.33,17.33,0,0,1-.477,3.982c-1.9,7.964-9.1,14.8-15.772,14.916-.059,0-.118,0-.177,0V104.932C122.388,104.932,129.742,111.192,129.742,120.792Z" transform="translate(-96.888 -104.932)"/></g><g class="av" transform="matrix(1, 0, 0, 1, -113.48, -447.38)"><path class="o" d="M109.264,239.527l-.776,3.117a1.041,1.041,0,0,1-1.009.789h-2.154a1.041,1.041,0,0,1-1.009-.789l-.776-3.117Z" transform="translate(80.71 352.19)"/></g><path class="p" d="M116.178,239.527l-.776,3.117a1.041,1.041,0,0,1-1.009.789h-1.077v-3.906Z" transform="translate(-39.683 -95.19)"/></g><g transform="translate(229.931 182.116)"><line class="j" y1="9.319" x2="2.784" transform="translate(86.003 155.649)"/><line class="j" x1="2.784" y1="9.319" transform="translate(75.747 155.649)"/><g transform="translate(57.205 104.931)"><g class="au" transform="matrix(1, 0, 0, 1, -287.14, -287.05)"><path class="k" d="M107.149,129.043a26.345,26.345,0,0,1-.725,6.053c-2.882,12.106-13.828,22.5-23.976,22.676-.09.005-.18.005-.27.005-11.5,0-24.973-14.142-24.973-28.734s11.179-24.111,24.973-24.111S107.149,114.449,107.149,129.043Z" transform="translate(229.93 182.12)"/></g><g class="at" transform="matrix(1, 0, 0, 1, -287.14, -287.05)"><path class="l" d="M92.041,104.931c-9.423,0-17.061,9.518-17.061,24.111s9.207,28.736,17.061,28.736c8.119,0,17.061-14.143,17.061-28.736S101.464,104.931,92.041,104.931Z" transform="translate(220.07 182.12)"/></g><g class="as" transform="matrix(1, 0, 0, 1, -287.14, -287.05)"><path class="m" d="M103.408,104.931c-4.388,0-7.946,9.518-7.946,24.111s4.288,28.736,7.946,28.736c3.781,0,7.946-14.143,7.946-28.736S107.8,104.931,103.408,104.931Z" transform="translate(208.7 182.12)"/></g><path class="n" d="M138.287,129.043a26.345,26.345,0,0,1-.725,6.053c-2.882,12.106-13.828,22.5-23.976,22.676-.09.005-.18.005-.27.005V104.932C127.107,104.932,138.287,114.449,138.287,129.043Z" transform="translate(-88.343 -104.932)"/></g><g class="ar" transform="matrix(1, 0, 0, 1, -229.93, -182.12)"><path class="o" d="M112.242,239.527l-1.18,4.739a1.583,1.583,0,0,1-1.534,1.2h-3.275a1.582,1.582,0,0,1-1.534-1.2l-1.18-4.739Z" transform="translate(204.22 107.43)"/></g><path class="p" d="M117.667,239.527l-1.18,4.739a1.583,1.583,0,0,1-1.534,1.2h-1.637v-5.938Z" transform="translate(-31.138 -74.691)"/></g><g transform="translate(2.645 288.412)"><path class="g" d="M337.385,93.188c-8.136,0-14.733-5.2-14.733-11.611,0-5.36,4.615-9.86,10.877-11.2.754-4.709,5.514-8.432,11.51-8.972,2.221-10.119,13.383-17.82,26.855-17.82v49.6Z" transform="translate(0 0)"/><path class="h" d="M354.064,93.188c-5.447,0-9.865-5.2-9.865-11.611,0-5.36,3.091-9.86,7.285-11.2.5-4.709,3.692-8.432,7.708-8.972,1.485-10.119,8.961-17.82,17.985-17.82v49.6Z" transform="translate(-5.284 0)"/><path class="q" d="M370.722,93.188c-2.766,0-5.009-5.2-5.009-11.611,0-5.36,1.57-9.86,3.7-11.2.257-4.709,1.874-8.432,3.912-8.972.755-10.119,4.55-17.82,9.129-17.82v49.6Z" transform="translate(-10.56 0)"/></g><g transform="translate(-446 271.162)"><g transform="translate(518.911 315.864)"><path class="r" d="M384.582,415.961a40.815,40.815,0,1,0-59.7-50.109,31.373,31.373,0,0,0-44.1,28.677,31.65,31.65,0,0,0,.285,4.178,17.233,17.233,0,0,0-14.245,7.529,40.8,40.8,0,0,0-39.272-12.91,40.816,40.816,0,1,0-78.429,22.635Z" transform="translate(-147.429 -340.8)"/><path class="s" d="M384.582,425.239a40.815,40.815,0,1,0-59.7-50.109,31.373,31.373,0,0,0-44.1,28.677,31.65,31.65,0,0,0,.285,4.178,17.234,17.234,0,0,0-14.245,7.529,40.792,40.792,0,0,0-39.272-12.91,40.816,40.816,0,1,0-78.429,22.635Z" transform="translate(-147.429 -345.427)"/></g><g transform="translate(664.311 290.794)"><path class="t" d="M554.174,349.064l37.794-54.018c-7.881-1.379-15.84-1.375-19.512,5.9a30.491,30.491,0,0,0-46.83,25.751,30.661,30.661,0,0,0,.187,3.349,14.128,14.128,0,0,0-18.85,8.574,28.408,28.408,0,0,0-35.108,26.127,12.384,12.384,0,0,0-6.25.609c-16.358,5.588-23.229,16.075-25.866,27.434Z" transform="translate(-438.594 -292.561)"/><path class="u" d="M594.144,395.676V290.794a23.818,23.818,0,0,0-19.512,13.039,30.491,30.491,0,0,0-46.83,25.75,30.815,30.815,0,0,0,.187,3.349,14.127,14.127,0,0,0-18.85,8.574,28.408,28.408,0,0,0-35.108,26.127,30.518,30.518,0,0,0-36.575,28.042Z" transform="translate(-437.455 -290.794)"/></g><g transform="translate(730.247 345.878)"><path class="v" d="M570.837,447.96l68.43-8.021,18.883-36.767c-3.46-1.183-7.335-2.5-11.2-2.5-15.6,0-28.572,9.391-32.625,23.69-.057,0-.114,0-.171,0a22.64,22.64,0,0,0-17.88,8.733,22.644,22.644,0,0,0-7.187-1.169C578.874,431.917,570.837,439.438,570.837,447.96Z" transform="translate(-569.904 -400.668)"/><path class="w" d="M568.976,451.879h90.753V405.334a34.085,34.085,0,0,0-43.821,22.943c-.057,0-.114,0-.171,0a22.64,22.64,0,0,0-17.88,8.733,22.687,22.687,0,0,0-28.881,14.874Z" transform="translate(-568.976 -402.08)"/></g><g transform="translate(445 290.794)"><path class="t" d="M44.406,349.064,6.612,295.046c7.881-1.379,15.84-1.375,19.512,5.9A30.491,30.491,0,0,1,72.954,326.7a30.776,30.776,0,0,1-.187,3.349,14.128,14.128,0,0,1,18.85,8.574,28.408,28.408,0,0,1,35.108,26.127,12.384,12.384,0,0,1,6.25.609c16.359,5.588,23.229,16.075,25.866,27.434Z" transform="translate(-3.297 -292.561)"/><path class="x" d="M0,395.676V290.794a23.818,23.818,0,0,1,19.512,13.039,30.491,30.491,0,0,1,46.83,25.75,30.794,30.794,0,0,1-.187,3.349,14.127,14.127,0,0,1,18.85,8.574,28.408,28.408,0,0,1,35.108,26.127,30.518,30.518,0,0,1,36.575,28.042Z" transform="translate(0 -290.794)"/></g></g><g transform="translate(-32.336 382.038)"><line class="j" y1="7.926" x2="2.368" transform="translate(81.698 148.067)"/><line class="j" x1="2.368" y1="7.926" transform="translate(72.975 148.067)"/><g transform="translate(57.205 104.931)"><g class="aq" transform="matrix(1, 0, 0, 1, -24.87, -486.97)"><path class="y" d="M99.683,125.439a22.406,22.406,0,0,1-.616,5.148c-2.451,10.3-11.761,19.133-20.392,19.286-.076,0-.153,0-.229,0-9.778,0-21.24-12.028-21.24-24.439s9.508-20.507,21.24-20.507S99.683,113.026,99.683,125.439Z" transform="translate(-32.34 382.04)"/></g><g class="ap" transform="matrix(1, 0, 0, 1, -24.87, -486.97)"><path class="z" d="M89.491,104.931c-8.014,0-14.511,8.1-14.511,20.507s7.831,24.44,14.511,24.44c6.905,0,14.51-12.028,14.51-24.44S97.5,104.931,89.491,104.931Z" transform="translate(-43.38 382.04)"/></g><g class="ao" transform="matrix(1, 0, 0, 1, -24.87, -486.97)"><path class="aa" d="M102.22,104.931c-3.732,0-6.758,8.1-6.758,20.507s3.647,24.44,6.758,24.44c3.216,0,6.758-12.028,6.758-24.44S105.953,104.931,102.22,104.931Z" transform="translate(-56.11 382.04)"/></g><path class="ab" d="M134.554,125.439a22.406,22.406,0,0,1-.616,5.148c-2.451,10.3-11.761,19.133-20.392,19.286-.076,0-.153,0-.229,0V104.932C125.046,104.932,134.554,113.026,134.554,125.439Z" transform="translate(-92.076 -104.932)"/></g><g class="an" transform="matrix(1, 0, 0, 1, 32.34, -382.04)"><path class="ac" d="M110.941,239.527l-1,4.03a1.346,1.346,0,0,1-1.3,1.02h-2.785a1.346,1.346,0,0,1-1.3-1.02l-1-4.03Z" transform="translate(-61.13 298.39)"/></g><path class="ad" d="M117.017,239.527l-1,4.03a1.346,1.346,0,0,1-1.3,1.02h-1.393v-5.05Z" transform="translate(-34.871 -83.646)"/></g><g transform="translate(260.63 335.038)"><line class="j" y1="9.058" x2="2.706" transform="translate(85.197 154.229)"/><line class="j" x1="2.706" y1="9.058" transform="translate(75.228 154.229)"/><g transform="translate(57.205 104.931)"><g class="am" transform="matrix(1, 0, 0, 1, -317.83, -439.97)"><path class="y" d="M105.751,128.368a25.607,25.607,0,0,1-.7,5.884c-2.8,11.768-13.441,21.866-23.305,22.041-.087.005-.175.005-.262.005C70.3,156.3,57.2,142.552,57.2,128.368s10.866-23.436,24.274-23.436S105.751,114.182,105.751,128.368Z" transform="translate(260.63 335.04)"/></g><g class="al" transform="matrix(1, 0, 0, 1, -317.83, -439.97)"><path class="z" d="M91.564,104.931c-9.159,0-16.584,9.251-16.584,23.436S83.929,156.3,91.564,156.3c7.892,0,16.583-13.747,16.583-27.931S100.723,104.931,91.564,104.931Z" transform="translate(250.54 335.04)"/></g><g class="ak" transform="matrix(1, 0, 0, 1, -317.83, -439.97)"><path class="aa" d="M103.186,104.931c-4.266,0-7.724,9.251-7.724,23.436S99.63,156.3,103.186,156.3c3.675,0,7.724-13.747,7.724-27.931S107.451,104.931,103.186,104.931Z" transform="translate(238.92 335.04)"/></g><path class="ab" d="M137.588,128.368a25.608,25.608,0,0,1-.7,5.884c-2.8,11.768-13.441,21.866-23.305,22.041-.087.005-.175.005-.262.005V104.932C126.721,104.932,137.588,114.182,137.588,128.368Z" transform="translate(-89.042 -104.932)"/></g><g class="aj" transform="matrix(1, 0, 0, 1, -260.63, -335.04)"><path class="ac" d="M112,239.527l-1.147,4.606a1.539,1.539,0,0,1-1.491,1.166h-3.183a1.538,1.538,0,0,1-1.491-1.166l-1.147-4.606Z" transform="translate(234.34 258.67)"/></g><path class="ad" d="M117.545,239.527l-1.147,4.606a1.539,1.539,0,0,1-1.491,1.166h-1.592v-5.772Z" transform="translate(-31.837 -76.368)"/></g></g><g transform="translate(3.35 -67.239)"><path class="ae" d="M-135.337-.88a9.6,9.6,0,0,1-2.867-.425A6.019,6.019,0,0,1-140.35-2.4l1.017-1.887A6.343,6.343,0,0,0-137.4-3.258a7.072,7.072,0,0,0,2.284.379,4.493,4.493,0,0,0,2.266-.49,1.5,1.5,0,0,0,.842-1.341,1.063,1.063,0,0,0-.342-.8,2.658,2.658,0,0,0-.851-.527q-.509-.2-1.415-.462a17.326,17.326,0,0,1-2.035-.712,3.528,3.528,0,0,1-1.332-1.027,2.731,2.731,0,0,1-.555-1.776,3.552,3.552,0,0,1,.712-2.2,4.575,4.575,0,0,1,1.988-1.461A7.775,7.775,0,0,1-132.9-14.2a9.656,9.656,0,0,1,2.386.287,6.643,6.643,0,0,1,1.942.8l-.943,1.905a5.769,5.769,0,0,0-1.628-.74,6.833,6.833,0,0,0-1.887-.259,4.276,4.276,0,0,0-2.284.527,1.591,1.591,0,0,0-.842,1.4,1.1,1.1,0,0,0,.351.832,2.58,2.58,0,0,0,.851.527q.5.194,1.461.49a17.477,17.477,0,0,1,2,.684,3.521,3.521,0,0,1,1.323.98,2.523,2.523,0,0,1,.546,1.683,3.581,3.581,0,0,1-.712,2.22A4.559,4.559,0,0,1-132.35-1.4,8.046,8.046,0,0,1-135.337-.88Zm16.518-3.182h-6.511l-1.868,3h-2.571l8.416-12.95h2.386l3.219,12.95h-2.386Zm-.444-1.887-1.313-5.7-3.57,5.7Zm15.649-1.813a2.681,2.681,0,0,1,1.295.98,2.817,2.817,0,0,1,.462,1.646A3.416,3.416,0,0,1-103.411-2.1a7.438,7.438,0,0,1-4.18,1.036h-6.493l2.59-12.95h5.975a5.5,5.5,0,0,1,3.117.749,2.449,2.449,0,0,1,1.1,2.155,3.4,3.4,0,0,1-.629,2.063A3.79,3.79,0,0,1-103.614-7.762Zm-5.864-4.366-.721,3.57h3.422a3.773,3.773,0,0,0,2.164-.546,1.817,1.817,0,0,0,.8-1.6q0-1.424-2.238-1.424Zm2.053,9.176a4.167,4.167,0,0,0,2.34-.555,1.838,1.838,0,0,0,.823-1.628,1.294,1.294,0,0,0-.583-1.193,3.377,3.377,0,0,0-1.748-.361h-3.977l-.74,3.737Zm14.687-5.032,4.606,6.919h-2.682l-3.681-5.457-2.46,2.146-.666,3.311h-2.386l2.59-12.95h2.386l-1.313,6.549,7.528-6.549h3.034L-92.7-8Zm14.779,3.922h-6.511l-1.868,3h-2.571l8.416-12.95h2.386l3.219,12.95h-2.386ZM-78.4-5.949l-1.313-5.7-3.57,5.7Zm25.046-8.066-2.59,12.95h-3.589L-63.253-7.1l-1.2,6.031h-4.254l2.59-12.95h3.588l3.718,6.031,1.2-6.031ZM-47.308-.769a7.142,7.142,0,0,1-3.006-.583,4.394,4.394,0,0,1-1.942-1.656,4.624,4.624,0,0,1-.675-2.516,7.427,7.427,0,0,1,.148-1.369l1.424-7.122h4.365L-48.4-6.967a4.538,4.538,0,0,0-.111.943,1.717,1.717,0,0,0,.444,1.295,1.8,1.8,0,0,0,1.295.425,1.89,1.89,0,0,0,1.5-.61,4.545,4.545,0,0,0,.832-2.053l1.406-7.048h4.291L-40.2-6.708a7.525,7.525,0,0,1-2.368,4.44A7.1,7.1,0,0,1-47.308-.769Zm26.063-13.246L-23.8-1.065h-3.977l1.147-5.9-3.644,4.736H-32.2l-2-4.662-1.165,5.827h-3.977l2.59-12.95h3.552l2.812,6.882,5.42-6.882Zm11.339,6.29A3.049,3.049,0,0,1-8.621-6.717a2.567,2.567,0,0,1,.453,1.526A3.391,3.391,0,0,1-9.86-2.1a8.239,8.239,0,0,1-4.356,1.036h-7.473l2.59-12.95h6.863a6.155,6.155,0,0,1,3.459.8,2.6,2.6,0,0,1,1.184,2.285A3.127,3.127,0,0,1-8.2-9.011,4,4,0,0,1-9.906-7.725Zm-5.512-3.237-.388,1.924h2.22q1.443,0,1.443-1.128a.673.673,0,0,0-.3-.592,1.5,1.5,0,0,0-.851-.2Zm1.443,6.845A1.744,1.744,0,0,0-12.9-4.423,1.032,1.032,0,0,0-12.5-5.3a.732.732,0,0,0-.305-.629,1.271,1.271,0,0,0-.768-.222H-16.38l-.407,2.035Zm12.8-6.6-.3,1.517H4L3.375-6.06H-2.119l-.333,1.7H4.041L3.375-1.065H-7.39l2.59-12.95H5.724l-.666,3.293Zm20.014.962a5.048,5.048,0,0,1-.916,3.006,5.417,5.417,0,0,1-2.58,1.915l2.164,3.774H12.975L11.144-4.321H10.071L9.424-1.065H5.058l2.59-12.95h5.808A6.251,6.251,0,0,1,17.424-12.9,3.771,3.771,0,0,1,18.839-9.76Zm-4.421.425q0-1.313-1.628-1.313H11.329l-.61,3.034h1.794a2.018,2.018,0,0,0,1.406-.453A1.624,1.624,0,0,0,14.418-9.335Zm19.5,5.272H27.4l-1.868,3H22.964l8.416-12.95h2.386l3.219,12.95H34.6ZM33.47-5.949l-1.313-5.7-3.57,5.7ZM48.1-4.062H41.591l-1.868,3H37.151l8.416-12.95h2.386l3.219,12.95H48.786Zm-.444-1.887-1.313-5.7-3.57,5.7ZM58.5-5.487,57.61-1.065H55.223l.906-4.588-3.385-8.362h2.386l2.553,6.327,5.105-6.327H65.3ZM68.671-12l-.666,3.367h6.271l-.388,1.979H67.6l-.7,3.57H74.22l-.407,2.016H64.1l2.59-12.95h9.452L75.737-12Zm17.943,4.31h2.275L87.834-2.471A7.471,7.471,0,0,1,85.605-1.3a8.163,8.163,0,0,1-2.6.416,7.521,7.521,0,0,1-3.33-.694,5.145,5.145,0,0,1-2.192-1.942,5.416,5.416,0,0,1-.768-2.9,7.935,7.935,0,0,1,1-3.959,7.234,7.234,0,0,1,2.83-2.8A8.477,8.477,0,0,1,84.764-14.2a7.961,7.961,0,0,1,3.071.546,5.166,5.166,0,0,1,2.127,1.582L88.223-10.63a3.756,3.756,0,0,0-1.5-1.11,5.517,5.517,0,0,0-2.072-.351,5.625,5.625,0,0,0-2.895.731,5.078,5.078,0,0,0-1.933,1.989,5.787,5.787,0,0,0-.684,2.812,3.327,3.327,0,0,0,1.073,2.608,4.449,4.449,0,0,0,3.071.962A5.34,5.34,0,0,0,85.8-3.6ZM99.839-4.062H93.328l-1.868,3H88.889l8.416-12.95h2.386l3.219,12.95h-2.386ZM99.4-5.949l-1.313-5.7-3.57,5.7Zm7.214-8.066h2.756l-2.183,8.658h-1.831ZM105.592-.936a1.383,1.383,0,0,1-1.008-.388,1.27,1.27,0,0,1-.4-.943,1.475,1.475,0,0,1,.444-1.1,1.5,1.5,0,0,1,1.091-.435,1.4,1.4,0,0,1,1.008.379,1.261,1.261,0,0,1,.4.953,1.484,1.484,0,0,1-.444,1.091A1.483,1.483,0,0,1,105.592-.936Zm6.16-13.079h2.756l-2.183,8.658h-1.831ZM110.734-.936a1.383,1.383,0,0,1-1.008-.388,1.27,1.27,0,0,1-.4-.943,1.475,1.475,0,0,1,.444-1.1,1.5,1.5,0,0,1,1.091-.435,1.4,1.4,0,0,1,1.008.379,1.261,1.261,0,0,1,.4.953,1.484,1.484,0,0,1-.444,1.091A1.483,1.483,0,0,1,110.734-.936Zm6.16-13.079h2.756l-2.183,8.658h-1.831ZM115.876-.936a1.383,1.383,0,0,1-1.008-.388,1.27,1.27,0,0,1-.4-.943,1.475,1.475,0,0,1,.444-1.1,1.5,1.5,0,0,1,1.091-.435,1.4,1.4,0,0,1,1.008.379,1.261,1.261,0,0,1,.4.953,1.484,1.484,0,0,1-.444,1.091A1.483,1.483,0,0,1,115.876-.936Z" transform="translate(195 315.031)"/><g class="ai" transform="matrix(1, 0, 0, 1, -3.35, 67.24)"><path class="ae" d="M225.248,58.392a7.885,7.885,0,0,1-2.214-4.8q-4.29,6.514-10.478,6.515a8.96,8.96,0,0,1-6.679-2.731,8.583,8.583,0,0,1-2.011-3.526,12.929,12.929,0,0,1-3.473,3.56,14.6,14.6,0,0,1-8.086,2.7,7.314,7.314,0,0,1-5.45-2.1q-2.074-2.1-2.074-6.3a24.154,24.154,0,0,1,.562-4.553l2.118-9.878a28.291,28.291,0,0,1-5.915,1.613,31.631,31.631,0,0,1-2.882,11.137,18.935,18.935,0,0,1-5.977,7.355,13.455,13.455,0,0,1-7.945,2.592q-5.2,0-8.226-2.662T153.493,48.9a33.281,33.281,0,0,1,1.969-10.577,25,25,0,0,1,6.328-10.051,15.1,15.1,0,0,1,10.968-4.237q9,0,9,11.208v.069a2.864,2.864,0,0,0,.774.069,14.5,14.5,0,0,0,5.343-1.226l.279-.115,4.713-21.984,10.406-1.4-8.085,37.825a8.65,8.65,0,0,0-.282,2.242,2.567,2.567,0,0,0,.669,2,3.309,3.309,0,0,0,2.214.595,5.363,5.363,0,0,0,3.8-1.716,8.929,8.929,0,0,0,1.625-2.173q-.008-.293-.007-.594a31.9,31.9,0,0,1,2.075-10.893,25.08,25.08,0,0,1,6.188-9.667,13.659,13.659,0,0,1,9.809-3.958,7.555,7.555,0,0,1,4.289.981,3.018,3.018,0,0,1,1.406,2.591v.49l.773-3.712h10.125l-5.062,23.814a8.65,8.65,0,0,0-.281,2.242,2.567,2.567,0,0,0,.668,2,3.31,3.31,0,0,0,2.214.595,3.5,3.5,0,0,0,1.547-.281,19.309,19.309,0,0,1-2.953,5.5,5.183,5.183,0,0,1-4.078,1.575A6.481,6.481,0,0,1,225.248,58.392ZM168.822,31.669a29.652,29.652,0,0,0-3.515,8.055,30.713,30.713,0,0,0-1.336,8.266q0,3.362.773,4.519a3.138,3.138,0,0,0,2.812,1.155,4.659,4.659,0,0,0,3.375-1.926,17.208,17.208,0,0,0,2.953-5.253,33.813,33.813,0,0,0,1.829-7.39q-1.9-.42-1.9-2.942,0-2.873,2.18-3.783a7.216,7.216,0,0,0-.7-3.188,2.161,2.161,0,0,0-1.969-.875Q171,28.307,168.822,31.669Zm49.571.246a25.729,25.729,0,0,0-3.515,7.844,30.9,30.9,0,0,0-1.266,8.09q0,3.5,1.02,4.484a3.462,3.462,0,0,0,2.5.98,5.083,5.083,0,0,0,3.481-1.646,8.626,8.626,0,0,0,2.355-4.518l3.376-15.831a2.839,2.839,0,0,0-.7-1.786,2.626,2.626,0,0,0-2.179-.875Q220.642,28.658,218.392,31.915ZM125.3,57.761a7.57,7.57,0,0,1-2.178-3.7,12.629,12.629,0,0,1-2.92,3.416,11.453,11.453,0,0,1-7.067,2.626q-4.29,0-6.293-2.277a8.224,8.224,0,0,1-2-5.638,18.094,18.094,0,0,1,.352-3.328q.352-1.855.739-3.607t.526-2.242q.563-2.451,1.055-4.832A19.948,19.948,0,0,0,108,34.33q0-3.571-2.531-3.571a4.066,4.066,0,0,0-3.234,1.786,13.724,13.724,0,0,0-2.25,4.658L95.2,59.688H85.079l5.133-24.166a7.2,7.2,0,0,0,.211-1.751q0-3.083-2.11-3.082A4.276,4.276,0,0,0,84.9,32.475,13.325,13.325,0,0,0,82.618,37.2L77.836,59.688H67.711l.778-3.657a10.785,10.785,0,0,1-1.587,1.38,13.3,13.3,0,0,1-7.7,2.7,6.747,6.747,0,0,1-4.747-1.646,7.359,7.359,0,0,1-2.144-4.8,19.593,19.593,0,0,1-4.535,4.659,9.946,9.946,0,0,1-5.942,1.786,8.961,8.961,0,0,1-6.68-2.731q-2.67-2.732-2.671-8.546a31.9,31.9,0,0,1,2.074-10.893,25.083,25.083,0,0,1,6.188-9.667,13.66,13.66,0,0,1,9.809-3.958,7.55,7.55,0,0,1,4.288.981,3.018,3.018,0,0,1,1.407,2.591v.49l.773-3.712H67.149L62.087,48.479a8.634,8.634,0,0,0-.282,2.242q0,3.012,2.883,3.013A4.252,4.252,0,0,0,68.1,51.913a13.626,13.626,0,0,0,2.27-4.711l4.8-22.537H85.29l-.773,3.642a11.144,11.144,0,0,1,8.577-3.993q6.189,0,7.243,6.024,3.866-5.955,9.773-5.955a8.032,8.032,0,0,1,5.7,1.961q2.109,1.962,2.109,5.955a23.48,23.48,0,0,1-.492,4.517q-.492,2.489-1.406,6.059-.563,2.172-1.02,4.239a16.009,16.009,0,0,0-.458,3.257,3.328,3.328,0,0,0,.633,2.171,2.678,2.678,0,0,0,2.18.771,4.188,4.188,0,0,0,3.375-1.506,17.7,17.7,0,0,0,2.531-4.658l7.523-35.094,10.406-1.4-3.375,15.761a15.358,15.358,0,0,1,3.234-1.576,8.677,8.677,0,0,1,2.532-.385q8.3,0,8.3,11.978a32.249,32.249,0,0,1-1.863,10.332,22.094,22.094,0,0,1-6.187,9.422,16.053,16.053,0,0,1-11.215,3.922Q127.829,60.108,125.3,57.761Zm13.395-28.018a3.153,3.153,0,0,0-1.793.946l-3.867,17.791a6.612,6.612,0,0,0-.211,1.611q0,3.223,3.726,3.223,2.181,0,4.078-2.7a21.8,21.8,0,0,0,3.024-6.726,28.758,28.758,0,0,0,1.125-7.739,10.53,10.53,0,0,0-.985-4.763,3.019,3.019,0,0,0-2.742-1.961A10.065,10.065,0,0,0,138.693,29.743ZM47.672,31.915a25.729,25.729,0,0,0-3.516,7.844,30.9,30.9,0,0,0-1.265,8.09q0,3.5,1.02,4.484a3.464,3.464,0,0,0,2.5.98,5.085,5.085,0,0,0,3.48-1.646,8.635,8.635,0,0,0,2.356-4.518l3.375-15.831a2.841,2.841,0,0,0-.7-1.786,2.629,2.629,0,0,0-2.18-.875Q49.923,28.658,47.672,31.915ZM10.617,59.688,20.6,13.316h-.844q-6.257,0-9.738,3.118T6.539,27.466a9.155,9.155,0,0,0,.492,3.608,6.066,6.066,0,0,1,.492,1.155q-3.8,0-5.66-1.576T0,25.435a17.288,17.288,0,0,1,2.461-9.071A17.37,17.37,0,0,1,10.3,9.745q5.38-2.523,13.676-2.521a64.556,64.556,0,0,1,9.984.839,47.97,47.97,0,0,0,8.016.771,21.68,21.68,0,0,0,8.156-1.472q-.142,4.554-2.321,6.725t-6.468,2.171a29.227,29.227,0,0,1-4.5-.35q-2.25-.351-6.4-1.19l-9.7,44.969ZM163.7,19.908l-3.665-6.247c-1.4-2.381-2.25-6.5-.441-7s4.054,3.243,4.623,5.851l1.493,6.842a.936.936,0,0,1-.671,1.122,1.046,1.046,0,0,1-.279.037A1.251,1.251,0,0,1,163.7,19.908Zm17.791-2.989a.951.951,0,0,1-.656-1.133l1.456-6.918c.556-2.635,2.744-6.415,4.506-5.913s.932,4.667-.43,7.073l-3.573,6.315a1.208,1.208,0,0,1-1.032.614A1,1,0,0,1,181.49,16.919ZM171.266,13.65l-1.143-6.89c-.436-2.624.3-6.761,2.2-6.761s2.637,4.137,2.2,6.761l-1.143,6.89a1.073,1.073,0,0,1-2.115,0Z" transform="translate(68.62 160)"/></g><path class="af" d="M7.571,11.375S35.15-2.161,62.42,6.7c0,0-24.614-10.836-62.026-4.351C.394,2.344,10.2,5.156,7.571,11.375Z" transform="translate(153.806 323.864)"/></g><g transform="translate(-90.218 -232.868)"><path class="ag" d="M278.218,252.868a20,20,0,1,0,20,20,20,20,0,0,0-20-20Z"/><path class="ah" d="M279.671,289.251,283.8,277.91a3.127,3.127,0,0,1,1.1-1.458l-1.323-2.836a2.106,2.106,0,0,0-2.8-1.019l-10.938,5.1a2.025,2.025,0,0,0-.979,2.691l5.1,10.938a2.106,2.106,0,0,0,2.8,1.019l2.815-1.312A3.035,3.035,0,0,1,279.671,289.251Zm-5.406-6.912a2.073,2.073,0,0,1-2.717-.988l-.023-.05a1.977,1.977,0,0,1,.992-2.615,2.073,2.073,0,0,1,2.717.988l.022.048A1.978,1.978,0,0,1,274.265,282.339Zm3.423,7.341a2.073,2.073,0,0,1-2.717-.988l-.023-.05a1.977,1.977,0,0,1,.992-2.615,2.073,2.073,0,0,1,2.717.988c.008.016.015.032.022.048A1.978,1.978,0,0,1,277.688,289.68Zm1.2-11.752c-.008-.017-.016-.033-.023-.05a1.977,1.977,0,0,1,.992-2.615,2.073,2.073,0,0,1,2.717.987l.022.048a1.978,1.978,0,0,1-.992,2.617A2.073,2.073,0,0,1,278.889,277.928Z" transform="translate(-6.188 -11.558)"/><path class="ah" d="M315.967,287.618l-11.341-4.128a2.1,2.1,0,0,0-2.7,1.259L297.8,296.09a2.025,2.025,0,0,0,1.21,2.6l11.341,4.128a2.1,2.1,0,0,0,2.7-1.259l4.128-11.341A2.025,2.025,0,0,0,315.967,287.618Z" transform="translate(-23.351 -18.046)"/><path class="ag" d="M318.044,295.92a3.744,3.744,0,0,0-4.962-1.786l-.025.012-.024.011a4.3,4.3,0,0,0-2,2.47h0c-.013.032-.023.061-.035.093l-.013.033-.086.227c-.06.16-.117.32-.173.494l1.726.651c.084-.263.171-.525.269-.776a2.6,2.6,0,0,1,1.118-1.529l.025-.012a1.915,1.915,0,0,1,2.539.916,1.954,1.954,0,0,1-.881,2.592l-.024.011c-.852.4-2.052-.079-3.214-.539l-1.5-.555c-.13-.049-.262-.1-.4-.152-1.408-.543-2.991-1.159-4.515-.418a3.808,3.808,0,0,0-1.721,5.053,3.755,3.755,0,0,0,4.988,1.777l.025-.012a4.445,4.445,0,0,0,2.031-2.492h0c.038-.085.079-.193.119-.3l.009-.022h0c.061-.17.119-.346.158-.469l-1.719-.649c-.086.274-.178.546-.282.8a2.582,2.582,0,0,1-1.12,1.47,1.846,1.846,0,0,1-1.463.084,1.912,1.912,0,0,1-1.1-.989,1.953,1.953,0,0,1,.881-2.591l.022-.011c.8-.371,1.936.067,3.04.493l.169.064,0,.009,1.514.549.2.078c1.379.546,3.09,1.224,4.651.5l.057-.027A3.809,3.809,0,0,0,318.044,295.92Z" transform="translate(-26.958 -24.212)"/></g></svg>