<svg xmlns="http://www.w3.org/2000/svg" xmlns:xlink="http://www.w3.org/1999/xlink" width="281.12" height="132" viewBox="0 0 281.12 132"><defs><style>.a{fill:#0041aa;}.b{fill:#d71920;fill-rule:evenodd;}.c{filter:url(#a);}</style><filter id="a" x="11.518" y="0" width="264.108" height="87.456" filterUnits="userSpaceOnUse"><feOffset dx="4" dy="4" input="SourceAlpha"/><feGaussianBlur stdDeviation="1" result="b"/><feFlood flood-opacity="0.161"/><feComposite operator="in" in2="b"/><feComposite in="SourceGraphic"/></filter></defs><g transform="translate(-54.65 -212)"><path class="a" d="M-134.93.2a10.384,10.384,0,0,1-3.1-.46,6.508,6.508,0,0,1-2.32-1.18l1.1-2.04a6.859,6.859,0,0,0,2.09,1.11,7.647,7.647,0,0,0,2.47.41,4.859,4.859,0,0,0,2.45-.53,1.618,1.618,0,0,0,.91-1.45,1.149,1.149,0,0,0-.37-.87,2.874,2.874,0,0,0-.92-.57q-.55-.22-1.53-.5a18.734,18.734,0,0,1-2.2-.77,3.815,3.815,0,0,1-1.44-1.11,2.952,2.952,0,0,1-.6-1.92,3.84,3.84,0,0,1,.77-2.38,4.947,4.947,0,0,1,2.15-1.58,8.408,8.408,0,0,1,3.18-.56,10.442,10.442,0,0,1,2.58.31,7.183,7.183,0,0,1,2.1.87l-1.02,2.06a6.238,6.238,0,0,0-1.76-.8,7.389,7.389,0,0,0-2.04-.28,4.624,4.624,0,0,0-2.47.57,1.72,1.72,0,0,0-.91,1.51,1.188,1.188,0,0,0,.38.9,2.79,2.79,0,0,0,.92.57q.54.21,1.58.53a18.9,18.9,0,0,1,2.16.74,3.807,3.807,0,0,1,1.43,1.06,2.728,2.728,0,0,1,.59,1.82,3.871,3.871,0,0,1-.77,2.4A4.929,4.929,0,0,1-131.7-.36,8.7,8.7,0,0,1-134.93.2Zm17.86-3.44h-7.04L-126.13,0h-2.78l9.1-14h2.58l3.48,14h-2.58Zm-.48-2.04-1.42-6.16-3.86,6.16Zm16.92-1.96a2.9,2.9,0,0,1,1.4,1.06,3.045,3.045,0,0,1,.5,1.78,3.693,3.693,0,0,1-1.68,3.28A8.043,8.043,0,0,1-104.93,0h-7.02l2.8-14h6.46a5.952,5.952,0,0,1,3.37.81,2.647,2.647,0,0,1,1.19,2.33,3.675,3.675,0,0,1-.68,2.23A4.1,4.1,0,0,1-100.63-7.24Zm-6.34-4.72-.78,3.86h3.7a4.08,4.08,0,0,0,2.34-.59,1.964,1.964,0,0,0,.86-1.73q0-1.54-2.42-1.54Zm2.22,9.92a4.506,4.506,0,0,0,2.53-.6,1.988,1.988,0,0,0,.89-1.76,1.4,1.4,0,0,0-.63-1.29,3.651,3.651,0,0,0-1.89-.39h-4.3l-.8,4.04Zm15.88-5.44L-83.89,0h-2.9l-3.98-5.9-2.66,2.32L-94.15,0h-2.58l2.8-14h2.58l-1.42,7.08L-84.63-14h3.28l-7.48,6.5Zm15.98,4.24h-7.04L-81.95,0h-2.78l9.1-14h2.58l3.48,14h-2.58Zm-.48-2.04-1.42-6.16-3.86,6.16ZM-46.29-14l-2.8,14h-3.88l-4.02-6.52L-58.29,0h-4.6l2.8-14h3.88l4.02,6.52,1.3-6.52ZM-39.75.32A7.723,7.723,0,0,1-43-.31,4.75,4.75,0,0,1-45.1-2.1a5,5,0,0,1-.73-2.72,8.029,8.029,0,0,1,.16-1.48l1.54-7.7h4.72l-1.52,7.62a4.905,4.905,0,0,0-.12,1.02,1.856,1.856,0,0,0,.48,1.4,1.947,1.947,0,0,0,1.4.46,2.043,2.043,0,0,0,1.62-.66,4.913,4.913,0,0,0,.9-2.22L-35.13-14h4.64l-1.58,7.9a8.135,8.135,0,0,1-2.56,4.8A7.677,7.677,0,0,1-39.75.32ZM-11.57-14-14.33,0h-4.3l1.24-6.38-3.94,5.12h-2.08L-25.57-6.3-26.83,0h-4.3l2.8-14h3.84l3.04,7.44L-15.59-14ZM.69-7.2A3.3,3.3,0,0,1,2.08-6.11a2.775,2.775,0,0,1,.49,1.65A3.666,3.666,0,0,1,.74-1.12,8.909,8.909,0,0,1-3.97,0h-8.08l2.8-14h7.42a6.655,6.655,0,0,1,3.74.87,2.812,2.812,0,0,1,1.28,2.47,3.381,3.381,0,0,1-.66,2.07A4.329,4.329,0,0,1,.69-7.2Zm-5.96-3.5-.42,2.08h2.4q1.56,0,1.56-1.22a.728.728,0,0,0-.32-.64,1.617,1.617,0,0,0-.92-.22Zm1.56,7.4a1.885,1.885,0,0,0,1.16-.33,1.115,1.115,0,0,0,.44-.95.791.791,0,0,0-.33-.68,1.374,1.374,0,0,0-.83-.24H-6.31l-.44,2.2Zm13.84-7.14L9.81-8.8h5.92l-.68,3.4H9.11L8.75-3.56h7.02L15.05,0H3.41l2.8-14H17.59l-.72,3.56ZM31.77-9.4a5.457,5.457,0,0,1-.99,3.25,5.857,5.857,0,0,1-2.79,2.07L30.33,0h-4.9L23.45-3.52H22.29L21.59,0H16.87l2.8-14h6.28a6.759,6.759,0,0,1,4.29,1.21A4.076,4.076,0,0,1,31.77-9.4Zm-4.78.46q0-1.42-1.76-1.42H23.65l-.66,3.28h1.94a2.182,2.182,0,0,0,1.52-.49A1.756,1.756,0,0,0,26.99-8.94Zm21.08,5.7H41.03L39.01,0H36.23l9.1-14h2.58L51.39,0H48.81Zm-.48-2.04-1.42-6.16L42.31-5.28ZM63.41-3.24H56.37L54.35,0H51.57l9.1-14h2.58L66.73,0H64.15Zm-.48-2.04-1.42-6.16L57.65-5.28Zm11.72.5L73.69,0H71.11l.98-4.96L68.43-14h2.58l2.76,6.84L79.29-14h2.72Zm11-7.04-.72,3.64h6.78l-.42,2.14h-6.8l-.76,3.86h7.92L91.21,0H80.71l2.8-14H93.73l-.44,2.18Zm19.4,4.66h2.46l-1.14,5.64a8.078,8.078,0,0,1-2.41,1.27,8.827,8.827,0,0,1-2.81.45,8.133,8.133,0,0,1-3.6-.75,5.562,5.562,0,0,1-2.37-2.1,5.854,5.854,0,0,1-.83-3.13,8.578,8.578,0,0,1,1.08-4.28,7.821,7.821,0,0,1,3.06-3.03,9.166,9.166,0,0,1,4.56-1.11,8.609,8.609,0,0,1,3.32.59,5.586,5.586,0,0,1,2.3,1.71l-1.88,1.56a4.061,4.061,0,0,0-1.62-1.2,5.966,5.966,0,0,0-2.24-.38,6.083,6.083,0,0,0-3.13.79,5.49,5.49,0,0,0-2.09,2.15,6.256,6.256,0,0,0-.74,3.04,3.6,3.6,0,0,0,1.16,2.82,4.811,4.811,0,0,0,3.32,1.04,5.775,5.775,0,0,0,2.72-.66Zm14.3,3.92h-7.04L110.29,0h-2.78l9.1-14h2.58l3.48,14h-2.58Zm-.48-2.04-1.42-6.16-3.86,6.16Zm7.8-8.72h2.98l-2.36,9.36h-1.98ZM125.57.14a1.5,1.5,0,0,1-1.09-.42,1.373,1.373,0,0,1-.43-1.02,1.6,1.6,0,0,1,.48-1.19,1.622,1.622,0,0,1,1.18-.47,1.516,1.516,0,0,1,1.09.41,1.363,1.363,0,0,1,.43,1.03,1.6,1.6,0,0,1-.48,1.18A1.6,1.6,0,0,1,125.57.14ZM132.23-14h2.98l-2.36,9.36h-1.98ZM131.13.14a1.5,1.5,0,0,1-1.09-.42,1.373,1.373,0,0,1-.43-1.02,1.6,1.6,0,0,1,.48-1.19,1.622,1.622,0,0,1,1.18-.47,1.516,1.516,0,0,1,1.09.41,1.363,1.363,0,0,1,.43,1.03,1.6,1.6,0,0,1-.48,1.18A1.6,1.6,0,0,1,131.13.14ZM137.79-14h2.98l-2.36,9.36h-1.98ZM136.69.14a1.5,1.5,0,0,1-1.09-.42,1.373,1.373,0,0,1-.43-1.02,1.6,1.6,0,0,1,.48-1.19,1.622,1.622,0,0,1,1.18-.47,1.516,1.516,0,0,1,1.09.41,1.363,1.363,0,0,1,.43,1.03,1.6,1.6,0,0,1-.48,1.18A1.6,1.6,0,0,1,136.69.14Z" transform="translate(195 321)"/><g class="c" transform="matrix(1, 0, 0, 1, 54.65, 212)"><path class="a" d="M2291.467,4796.594a8.564,8.564,0,0,1-2.394-5.207q-4.637,7.069-11.325,7.069a9.667,9.667,0,0,1-7.219-2.963,9.318,9.318,0,0,1-2.174-3.826,14.012,14.012,0,0,1-3.754,3.863,15.751,15.751,0,0,1-8.74,2.926,7.891,7.891,0,0,1-5.891-2.281q-2.242-2.28-2.241-6.839a26.316,26.316,0,0,1,.608-4.94l2.289-10.718a30.458,30.458,0,0,1-6.393,1.75,34.428,34.428,0,0,1-3.115,12.083,20.536,20.536,0,0,1-6.461,7.981,14.5,14.5,0,0,1-8.588,2.812q-5.623,0-8.892-2.888t-3.269-9.121a36.246,36.246,0,0,1,2.128-11.477,27.152,27.152,0,0,1,6.84-10.906,16.3,16.3,0,0,1,11.856-4.6q9.728,0,9.728,12.161v.076a3.063,3.063,0,0,0,.837.076,15.617,15.617,0,0,0,5.776-1.331c.1-.041.2-.082.3-.124l5.094-23.853,11.249-1.521-8.739,41.04a9.374,9.374,0,0,0-.3,2.433,2.788,2.788,0,0,0,.723,2.166,3.561,3.561,0,0,0,2.393.646,5.785,5.785,0,0,0,4.1-1.862,9.648,9.648,0,0,0,1.756-2.358q-.007-.318-.007-.644a34.714,34.714,0,0,1,2.242-11.817,27.225,27.225,0,0,1,6.687-10.489,14.736,14.736,0,0,1,10.6-4.293,8.143,8.143,0,0,1,4.636,1.064,3.279,3.279,0,0,1,1.52,2.812v.531l.836-4.027h10.944l-5.472,25.839a9.427,9.427,0,0,0-.3,2.433,2.789,2.789,0,0,0,.721,2.166,3.567,3.567,0,0,0,2.394.646,3.755,3.755,0,0,0,1.671-.3,20.966,20.966,0,0,1-3.191,5.967,5.592,5.592,0,0,1-4.409,1.71A6.987,6.987,0,0,1,2291.467,4796.594Zm-60.991-28.995a32.269,32.269,0,0,0-3.8,8.739,33.467,33.467,0,0,0-1.444,8.969q0,3.647.836,4.9a3.384,3.384,0,0,0,3.04,1.252,5.03,5.03,0,0,0,3.648-2.089,18.7,18.7,0,0,0,3.192-5.7,36.778,36.778,0,0,0,1.976-8.018q-2.052-.455-2.052-3.191,0-3.118,2.357-4.105a7.871,7.871,0,0,0-.76-3.458,2.332,2.332,0,0,0-2.129-.949Q2232.833,4763.952,2230.476,4767.6Zm53.58.267a27.959,27.959,0,0,0-3.8,8.511,33.641,33.641,0,0,0-1.369,8.778q0,3.8,1.1,4.865a3.738,3.738,0,0,0,2.7,1.063,5.483,5.483,0,0,0,3.762-1.786,9.373,9.373,0,0,0,2.546-4.9l3.649-17.176a3.083,3.083,0,0,0-.761-1.937,2.828,2.828,0,0,0-2.354-.95Q2286.487,4764.333,2284.056,4767.867Zm-100.623,28.042a8.212,8.212,0,0,1-2.354-4.009,13.673,13.673,0,0,1-3.156,3.705,12.346,12.346,0,0,1-7.639,2.851q-4.637,0-6.8-2.471a8.94,8.94,0,0,1-2.167-6.116,19.758,19.758,0,0,1,.381-3.612q.381-2.012.8-3.914t.568-2.432q.609-2.659,1.142-5.243a21.793,21.793,0,0,0,.531-4.181q0-3.875-2.736-3.875a4.389,4.389,0,0,0-3.495,1.938,14.884,14.884,0,0,0-2.433,5.054L2150.9,4798h-10.945l5.549-26.219a7.884,7.884,0,0,0,.228-1.9q0-3.346-2.281-3.344a4.618,4.618,0,0,0-3.685,1.938,14.476,14.476,0,0,0-2.47,5.13l-5.168,24.4h-10.944l.842-3.968a11.648,11.648,0,0,1-1.715,1.5,14.349,14.349,0,0,1-8.322,2.926,7.281,7.281,0,0,1-5.131-1.786,8,8,0,0,1-2.318-5.208,21.215,21.215,0,0,1-4.9,5.056,10.715,10.715,0,0,1-6.422,1.938,9.667,9.667,0,0,1-7.221-2.963q-2.887-2.965-2.887-9.273a34.712,34.712,0,0,1,2.241-11.817,27.228,27.228,0,0,1,6.688-10.489,14.736,14.736,0,0,1,10.6-4.293,8.138,8.138,0,0,1,4.635,1.064,3.278,3.278,0,0,1,1.521,2.812v.531l.836-4.027h10.944l-5.472,25.839a9.427,9.427,0,0,0-.3,2.433q0,3.267,3.117,3.268a4.588,4.588,0,0,0,3.685-1.976,14.8,14.8,0,0,0,2.454-5.111l5.184-24.453h10.944l-.836,3.951a12.028,12.028,0,0,1,9.271-4.332q6.689,0,7.829,6.537,4.178-6.461,10.564-6.462a8.665,8.665,0,0,1,6.156,2.129q2.28,2.128,2.28,6.461a25.583,25.583,0,0,1-.532,4.9q-.531,2.7-1.52,6.573-.609,2.358-1.1,4.6a17.461,17.461,0,0,0-.495,3.535,3.623,3.623,0,0,0,.685,2.355,2.887,2.887,0,0,0,2.355.835,4.521,4.521,0,0,0,3.649-1.633,19.222,19.222,0,0,0,2.735-5.054l8.132-38.076,11.248-1.521-3.648,17.1a16.514,16.514,0,0,1,3.495-1.71,9.346,9.346,0,0,1,2.737-.418q8.969,0,8.967,13a35.117,35.117,0,0,1-2.013,11.209,23.975,23.975,0,0,1-6.687,10.223q-4.675,4.256-12.122,4.256Q2186.168,4798.456,2183.433,4795.909Zm14.478-30.4a3.412,3.412,0,0,0-1.939,1.026l-4.18,19.3a7.222,7.222,0,0,0-.228,1.749q0,3.5,4.028,3.5,2.355,0,4.408-2.925a23.718,23.718,0,0,0,3.268-7.3,31.3,31.3,0,0,0,1.216-8.4,11.467,11.467,0,0,0-1.065-5.169,3.265,3.265,0,0,0-2.965-2.128A10.884,10.884,0,0,0,2197.91,4765.51Zm-98.383,2.356a27.961,27.961,0,0,0-3.8,8.511,33.634,33.634,0,0,0-1.368,8.778q0,3.8,1.1,4.865a3.738,3.738,0,0,0,2.7,1.063,5.486,5.486,0,0,0,3.762-1.786,9.383,9.383,0,0,0,2.547-4.9l3.648-17.176a3.088,3.088,0,0,0-.76-1.937,2.835,2.835,0,0,0-2.357-.95Q2101.96,4764.333,2099.528,4767.867ZM2059.476,4798l10.792-50.312h-.913q-6.763,0-10.525,3.383t-3.762,11.969a9.981,9.981,0,0,0,.532,3.915,6.51,6.51,0,0,1,.531,1.253q-4.1,0-6.118-1.71t-2.013-5.661a17.913,17.913,0,0,1,11.133-17.023q5.815-2.739,14.782-2.736a69.545,69.545,0,0,1,10.792.91,51.576,51.576,0,0,0,8.665.837,23.355,23.355,0,0,0,8.815-1.6q-.152,4.942-2.509,7.3t-6.991,2.356a31.524,31.524,0,0,1-4.865-.379q-2.432-.382-6.915-1.292L2070.421,4798Zm165.464-43.16-3.962-6.778c-1.51-2.583-2.431-7.053-.477-7.591s4.382,3.519,5,6.349l1.615,7.423a1.017,1.017,0,0,1-.725,1.218,1.152,1.152,0,0,1-.3.039A1.349,1.349,0,0,1,2224.94,4754.839Zm19.229-3.243a1.031,1.031,0,0,1-.708-1.229l1.573-7.506c.6-2.86,2.966-6.96,4.871-6.416s1.007,5.064-.465,7.675l-3.862,6.852a1.307,1.307,0,0,1-1.115.665A1.1,1.1,0,0,1,2244.169,4751.6Zm-123.081-3.826a5.012,5.012,0,0,1-1.415-3.729,5.176,5.176,0,0,1,1.213-3.419,4.036,4.036,0,0,1,3.27-1.455,6.331,6.331,0,0,1,2.589.455,1.937,1.937,0,0,1,1.009,1.981,5.524,5.524,0,0,1-.219,1.456,4.839,4.839,0,0,0-1.139-.746,2.722,2.722,0,0,0-1.065-.2,2.349,2.349,0,0,0-1.892.8,2.828,2.828,0,0,0-.679,1.891,2.332,2.332,0,0,0,.771,1.91,2.648,2.648,0,0,0,1.727.637,2.522,2.522,0,0,0,2.571-1.656,13.91,13.91,0,0,0,.918-2.819l4.848-22.332a8.036,8.036,0,0,0-3.82,3.019,8.714,8.714,0,0,0-1.359,4.946,4.733,4.733,0,0,0,.258,1.874,3.177,3.177,0,0,1,.258.6,4.521,4.521,0,0,1-2.958-.819,3.363,3.363,0,0,1-.973-2.709,6.848,6.848,0,0,1,1.928-4.529,14.29,14.29,0,0,1,4.941-3.563,14.494,14.494,0,0,1,6.024-1.364h1.469l-4.592,22.187a13.458,13.458,0,0,1-3.159,6.728q-2.2,2.257-6.5,2.256A5.475,5.475,0,0,1,2121.089,4747.771Zm112.03.279-1.236-7.475c-.471-2.847.322-7.335,2.378-7.335s2.85,4.488,2.38,7.335l-1.236,7.475a1.16,1.16,0,0,1-2.287,0Zm-94.51-3.644a4.464,4.464,0,0,1-1.083-3.273,12.443,12.443,0,0,1,.294-2.364l2.5-11.675h5.289l-2.645,12.365a4.427,4.427,0,0,0-.147,1.165,1.326,1.326,0,0,0,.348,1.037,1.738,1.738,0,0,0,1.157.309,2.809,2.809,0,0,0,1.983-.89,4.612,4.612,0,0,0,.813-1.065c0-.11-.005-.222-.005-.335a17.686,17.686,0,0,1,.992-5.511,12.822,12.822,0,0,1,3.232-5.2,7.835,7.835,0,0,1,5.73-2.2q4.333,0,4.664,4.91a2.671,2.671,0,0,0,1.433-.891,11.362,11.362,0,0,0,1.176-1.619h1.175a26.332,26.332,0,0,1-1.763,3.073,5.9,5.9,0,0,1-2.021,1.8,16.794,16.794,0,0,1-1.414,6,10.02,10.02,0,0,1-3.1,3.982,6.986,6.986,0,0,1-4.224,1.4,6.3,6.3,0,0,1-4.3-1.382,4.234,4.234,0,0,1-1.192-1.8,6.744,6.744,0,0,1-1.819,1.856,7.655,7.655,0,0,1-4.225,1.4A3.837,3.837,0,0,1,2138.608,4744.406Zm16.437-13.694a15.368,15.368,0,0,0-1.781,4.183,16.453,16.453,0,0,0-.679,4.31,4.619,4.619,0,0,0,.4,2.346,1.646,1.646,0,0,0,1.469.6q1.358,0,2.535-2.184a15.917,15.917,0,0,0,1.616-5.383q-.881-.327-.881-1.637a1.869,1.869,0,0,1,1.028-1.891,3.412,3.412,0,0,0-.386-1.619,1.135,1.135,0,0,0-1.009-.455Q2156.147,4728.984,2155.045,4730.712Zm-13.149-6.42a2.756,2.756,0,0,1-.844-2.036,2.819,2.819,0,0,1,.844-2.056,2.783,2.783,0,0,1,2.057-.854,2.841,2.841,0,0,1,2.075.854,2.79,2.79,0,0,1,.864,2.056,2.729,2.729,0,0,1-.864,2.036,2.874,2.874,0,0,1-2.075.837A2.815,2.815,0,0,1,2141.9,4724.292Z" transform="translate(-2036.48 -4718)"/></g><path class="b" d="M8.154,12.275s29.819-14.634,59.3-5.06c0,0-26.614-11.715-67.064-4.7C.394,2.512,10.994,5.552,8.154,12.275Z" transform="translate(161.892 331.725)"/></g></svg>