<svg xmlns="http://www.w3.org/2000/svg" xmlns:xlink="http://www.w3.org/1999/xlink" width="40" height="40" viewBox="0 0 40 40"><defs><style>.a{fill:url(#a);}.b{fill-rule:evenodd;opacity:0.2;fill:url(#b);}.c{fill:#fff;}.d{fill:#d71920;}</style><radialGradient id="a" cx="0.5" cy="0" r="1" gradientTransform="translate(0.5 -0.5) rotate(90)" gradientUnits="objectBoundingBox"><stop offset="0" stop-color="#d71920"/><stop offset="0.338" stop-color="#c60007"/><stop offset="1" stop-color="#690004"/></radialGradient><linearGradient id="b" x1="0.5" x2="0.5" y2="1" gradientUnits="objectBoundingBox"><stop offset="0" stop-color="#fff"/><stop offset="1" stop-color="#fff" stop-opacity="0"/></linearGradient></defs><g transform="translate(-4 -11.402)"><path class="a" d="M20,27A20,20,0,1,1,0,47,20,20,0,0,1,20,27Z" transform="translate(4 -15.598)"/><path class="b" d="M56.068,31c5.56,0,10.068,2.744,10.068,6.128s-4.508,6.128-10.068,6.128S46,40.513,46,37.128,50.508,31,56.068,31Z" transform="translate(-32 -18.39)"/><g transform="translate(6.4 28.202)"><path class="c" d="M102.208,67.214l-.592-1.008-1.059.5L99.965,65.7l-1.059.5L98.314,65.2l-1.059.5-.592-1.008-1.059.5-.592-1.008-1.059.5-2.245,7.3,2.723.832a1.443,1.443,0,0,1,2.822.426c0,.01,0,.019,0,.029a1.143,1.143,0,0,1-.048.393l2.77.847Z" transform="translate(-79.525 -64.187)"/><path class="d" d="M103.929,85.731a.292.292,0,0,1-.242-.293V81.865a.3.3,0,0,1,.3-.3h2.582a1.178,1.178,0,0,1,.2.018,1.157,1.157,0,0,1,.958,1.14v2.712a.3.3,0,0,1-.3.3.285.285,0,0,1-.055,0,.292.292,0,0,1-.242-.293V82.726a.564.564,0,0,0-.467-.555.575.575,0,0,0-.1-.008H106v3.275a.3.3,0,0,1-.3.3.286.286,0,0,1-.055,0,.292.292,0,0,1-.242-.293V82.163h-1.127v3.275a.3.3,0,0,1-.3.3.334.334,0,0,1-.055,0" transform="translate(-89.41 -78.532)"/><path class="d" d="M128.5,87.127a.291.291,0,0,1-.243-.293.292.292,0,0,1,.3-.3.56.56,0,0,0,.539-.4l.307-1.021-1-3.354a.292.292,0,0,1,.329-.381.305.305,0,0,1,.237.2l.746,2.5.754-2.5a.3.3,0,0,1,.344-.2l.021,0a.3.3,0,0,1,.2.376L129.994,85.2l-.327,1.1a1.188,1.188,0,0,1-.419.6,1.16,1.16,0,0,1-.694.231.278.278,0,0,1-.055,0" transform="translate(-109.688 -78.371)"/><path class="c" d="M22.219,77.084a.3.3,0,0,1-.252-.3V71.445a.3.3,0,0,1,.309-.309.331.331,0,0,1,.053,0,.308.308,0,0,1,.256.3v1.517h.586a1.2,1.2,0,0,1,1.2,1.2v1.718a1.205,1.205,0,0,1-1.2,1.2h-.895a.279.279,0,0,1-.057,0m.366-.614h.586a.586.586,0,0,0,.586-.586V74.166a.585.585,0,0,0-.485-.577.62.62,0,0,0-.1-.009h-.586Z" transform="translate(-21.967 -69.922)"/><path class="c" d="M41.281,85.566a1.2,1.2,0,0,1-.992-1.186V82.59a1.2,1.2,0,0,1,2.409,0v1.79a1.207,1.207,0,0,1-1.2,1.2,1.16,1.16,0,0,1-.212-.018m.313-3.553a.6.6,0,0,0-.1-.009.58.58,0,0,0-.586.586v1.789a.584.584,0,0,0,.481.578.646.646,0,0,0,.1.009.587.587,0,0,0,.586-.586V82.59a.586.586,0,0,0-.485-.577" transform="translate(-37.088 -78.381)"/><path class="c" d="M59.6,85.563a1.2,1.2,0,0,1-.992-1.186v-1.79a1.205,1.205,0,0,1,1.2-1.2,1.178,1.178,0,0,1,.208.018,1.2,1.2,0,0,1,1,1.186v1.789a1.207,1.207,0,0,1-1.2,1.2,1.225,1.225,0,0,1-.212-.018m.313-3.553a.6.6,0,0,0-.1-.009.579.579,0,0,0-.585.586v1.789a.584.584,0,0,0,.481.577.665.665,0,0,0,.1.009.588.588,0,0,0,.586-.586v-1.79a.586.586,0,0,0-.485-.577" transform="translate(-52.21 -78.379)"/><path class="c" d="M77.186,77.121a.3.3,0,0,1-.252-.3v-5.37a.3.3,0,0,1,.309-.309.324.324,0,0,1,.053,0,.309.309,0,0,1,.256.3v3.178l1.424-1.595a.312.312,0,0,1,.286-.095.328.328,0,0,1,.155.073.307.307,0,0,1,.022.435l-1.072,1.2,1.114,2.034a.3.3,0,0,1,.027.229.319.319,0,0,1-.357.218.307.307,0,0,1-.216-.148l-1-1.84-.381.421v1.264a.309.309,0,0,1-.309.309.356.356,0,0,1-.057,0" transform="translate(-67.331 -69.923)"/><path class="c" d="M152.464,85.585a1.141,1.141,0,0,1-.8-.562.315.315,0,0,1-.028-.236.306.306,0,0,1,.142-.187.312.312,0,0,1,.207-.035.307.307,0,0,1,.215.149.518.518,0,0,0,.367.255.547.547,0,0,0,.457-.131.532.532,0,0,0-.059-.822l-.833-.591a1.126,1.126,0,0,1-.474-.835,1.1,1.1,0,0,1,.362-.893,1.12,1.12,0,0,1,.919-.288h0a1.123,1.123,0,0,1,.8.549.314.314,0,0,1-.114.422.315.315,0,0,1-.422-.114.5.5,0,0,0-.351-.238.483.483,0,0,0-.419.123.506.506,0,0,0-.157.4.489.489,0,0,0,.215.371l.833.582a1.135,1.135,0,0,1,.483.872,1.106,1.106,0,0,1-.372.919,1.154,1.154,0,0,1-.945.3Z" transform="translate(-128.971 -78.391)"/><path class="c" d="M168.931,77.147a.31.31,0,0,1-.256-.305v-5.37a.309.309,0,0,1,.309-.309.309.309,0,0,1,.309.309v1.517h.586a1.186,1.186,0,0,1,.212.019,1.2,1.2,0,0,1,.992,1.185v2.649a.306.306,0,0,1-.309.309.278.278,0,0,1-.053,0,.309.309,0,0,1-.256-.305V74.192a.583.583,0,0,0-.481-.577.575.575,0,0,0-.1-.009h-.586v3.235a.306.306,0,0,1-.309.309.314.314,0,0,1-.053,0" transform="translate(-143.045 -69.943)"/><path class="c" d="M187.981,85.59a1.2,1.2,0,0,1-.992-1.186v-1.79a1.2,1.2,0,0,1,1.2-1.2,1.159,1.159,0,0,1,.207.018,1.2,1.2,0,0,1,1,1.186V84.4a1.206,1.206,0,0,1-1.2,1.2,1.265,1.265,0,0,1-.212-.018m.313-3.553a.64.64,0,0,0-.1-.009.583.583,0,0,0-.586.586V84.4a.583.583,0,0,0,.481.576.6.6,0,0,0,.1.009.588.588,0,0,0,.586-.586v-1.79a.585.585,0,0,0-.485-.577" transform="translate(-158.159 -78.401)"/><path class="c" d="M208.25,81.815a.3.3,0,0,0-.032-.226.291.291,0,0,0-.256-.147.307.307,0,0,0-.3.231c0,.013-.335,1.356-.6,2.376l-.006.023-.006-.023c-.253-1.02-.593-2.361-.6-2.375a.29.29,0,0,0-.238-.229.335.335,0,0,0-.055-.005.308.308,0,0,0-.293.233c0,.013-.335,1.356-.6,2.376l-.006.023-.006-.023c-.253-1.02-.593-2.363-.6-2.376a.3.3,0,0,0-.241-.227.3.3,0,0,0-.123,0,.3.3,0,0,0-.223.364l.9,3.582a.311.311,0,0,0,.243.226.274.274,0,0,0,.05,0,.291.291,0,0,0,.293-.231c0-.014.343-1.357.6-2.378l.005-.023.006.023c.263,1.03.6,2.378.6,2.378a.311.311,0,0,0,.243.226.283.283,0,0,0,.05,0,.292.292,0,0,0,.293-.232Z" transform="translate(-172.26 -78.427)"/></g></g></svg>