<svg xmlns="http://www.w3.org/2000/svg" width="280" height="140" viewBox="0 0 280 140"><defs><style>.a{fill:#0041aa;}.b{opacity:0.8;}.c{fill:#00d7ff;}.d{fill:#ff63be;}.e{fill:#fff;}.f{fill:#ffd01f;}.g{fill:#ffb700;}.h{fill:#00aef2;}.i{fill:#ffcc38;}</style></defs><g transform="translate(-48 -90)"><path class="a" d="M10,0H270a10,10,0,0,1,10,10V130a10,10,0,0,1-10,10H10A10,10,0,0,1,0,130V10A10,10,0,0,1,10,0Z" transform="translate(48 90)"/><g transform="translate(4.224 17)"><g class="b" transform="translate(105.098 172.919)"><path d="M400.673,341H299.684a1.351,1.351,0,0,0-1.355,1.24,1.3,1.3,0,0,0,1.282,1.379H400.746a1.3,1.3,0,0,0,1.283-1.379A1.351,1.351,0,0,0,400.673,341Z" transform="translate(-243.353 -340.963)"/><path d="M158.1,343.456H109.63a1.288,1.288,0,0,1-1.285-1.291h0a1.288,1.288,0,0,1,1.285-1.291H158.1a1.288,1.288,0,0,1,1.284,1.291h0A1.288,1.288,0,0,1,158.1,343.456Z" transform="translate(-108.345 -340.873)"/></g><g transform="translate(238.849 129.296)"><g transform="translate(0 0)"><path class="c" d="M0,0H3.811a0,0,0,0,1,0,0V4.026A1.906,1.906,0,0,1,1.906,5.931h0A1.906,1.906,0,0,1,0,4.026V0A0,0,0,0,1,0,0Z" transform="translate(16.383 6.85)"/><path class="d" d="M627.245,198.549a3.246,3.246,0,0,0-.649-3.717,3.282,3.282,0,0,0-3.881-.621l-.213.111a3.312,3.312,0,0,0-1.675,2.147l-.616,3-1.318.434.375,3.717,1.251-1.114,1.987-1.72,1.256.642a1.63,1.63,0,0,0,2.219-.589l.007-.012.38-.644Z" transform="translate(-604.909 -192.993)"/><path class="c" d="M631.309,195.509l.135-.021a3.7,3.7,0,0,0-2.523-4.391h0a3.67,3.67,0,0,0-4.669,2.908,15.983,15.983,0,0,0-.275,2.671l2.475-2.13.21.118A7.237,7.237,0,0,0,631.309,195.509Z" transform="translate(-608.521 -190.942)"/><path class="e" d="M636.188,213.344a.717.717,0,0,1-.986.254.726.726,0,0,1-.253-.991" transform="translate(-616.248 -206.303)"/><path d="M600.623,220.486l-.417-4.57a1.91,1.91,0,0,0-.484-.967l-1.2-1.286-.888.769-1.626-2.6-3.17-1.176s-5.3,7.347-5.974,11.679l-.175,1.122,7.31,1.34,2.524-4.226,1.3-1.163.5,3.171a1.793,1.793,0,0,0,1.817,1.516h0a1.79,1.79,0,0,0,1.565-1.019l3.065-6.4-1.743-.8Z" transform="translate(-582.022 -204.918)"/><path class="f" d="M572.659,276.143l4.864-15.521s4.313-2.73,4.891-4.289l.128-.345-7.31-1.34-.981,1.747a6.98,6.98,0,0,0-1.244,3.757l-.163,4.986-.737,1.889a27.652,27.652,0,0,0-1.382,6.663l-.157,2.452Z" transform="translate(-570.567 -236.113)"/><path class="g" d="M598.16,277.091l.107.886h2.283l.992-9.167a3.523,3.523,0,0,0-.184-1.7l-1.735-9.285-3.2-.587-1.816,5.221,3.842,6.019A47.433,47.433,0,0,0,598.16,277.091Z" transform="translate(-587.649 -237.947)"/><path class="d" d="M629.395,203.919a.821.821,0,0,1-1.128.291.831.831,0,0,1-.289-1.135.821.821,0,0,1,1.129-.29A.831.831,0,0,1,629.395,203.919Z" transform="translate(-611.283 -199.257)"/><path d="M600.673,223.02l-1.226,6.764,4.9,6.193,1.532-1.017-2.712-6.19-.041-7.382Z" transform="translate(-591.09 -212.53)"/><path class="d" d="M644.9,219.933h0a2.33,2.33,0,0,0,.858-.77l.307-.459a.859.859,0,0,0-.2-.985l-.829-.766.626-1.217a.331.331,0,0,0-.184-.464h0a.328.328,0,0,0-.367.109l-1.041,1.341-.1.107a2.992,2.992,0,0,0-.486.72h0a3.008,3.008,0,0,0-.286,1.047l-.046.539Z" transform="translate(-622.154 -208.18)"/></g><g transform="translate(13.294 22.414)"><g transform="translate(0.203 0.82)"><path class="d" d="M624.926,272.7h0a.349.349,0,0,0,.13-.475l-.751-1.327-.852-.1,1,1.769A.345.345,0,0,0,624.926,272.7Z" transform="translate(-621.647 -270.797)"/><path class="d" d="M622.984,273.332h0a.349.349,0,0,0,.131-.472l-1.141-2.063-.6.344,1.138,2.057A.345.345,0,0,0,622.984,273.332Z" transform="translate(-620.168 -270.797)"/><path class="d" d="M620.765,274.224h0a.349.349,0,0,0,.13-.475l-1-1.77-.6.344,1,1.77A.345.345,0,0,0,620.765,274.224Z" transform="translate(-618.69 -271.636)"/><path class="d" d="M618.21,274.569h0a.349.349,0,0,0,.13-.475l-.527-.931-.6.344.527.931A.345.345,0,0,0,618.21,274.569Z" transform="translate(-617.211 -272.475)"/></g><path class="d" d="M616.913,270.184l-.338-.6-.065-.656,1.576-.953.039.009a2.078,2.078,0,0,1,1.328,1.053l.048-.022Z" transform="translate(-616.51 -267.977)"/></g></g><g transform="translate(103.776 118.922)"><path class="e" d="M149.1,187.71a25.2,25.2,0,0,1-1.484,8.732,21.233,21.233,0,0,1-4.232,7.074l8.941,8.7-7.549,6.153-9.564-9.4a24.785,24.785,0,0,1-4.2,1.124,25.666,25.666,0,0,1-4.489.387q-10.151,0-16.453-6.429t-6.3-16.341v-9.653q0-9.874,6.284-16.322t16.4-6.448q10.04,0,16.343,6.448t6.3,16.322Zm-12.349-9.727a15.58,15.58,0,0,0-2.693-9.432,9.779,9.779,0,0,0-15.281-.018,15.714,15.714,0,0,0-2.657,9.451v9.727a15.708,15.708,0,0,0,2.693,9.506,8.976,8.976,0,0,0,7.714,3.684,8.783,8.783,0,0,0,7.549-3.684,15.788,15.788,0,0,0,2.675-9.506Z" transform="translate(-103.776 -155.286)"/><path class="e" d="M318.289,157.945V193.1q0,9.175-6.064,14.222t-15.885,5.048q-9.931,0-16.014-5.048T274.243,193.1v-35.15h12.422V193.1q0,4.938,2.528,7.314t7.146,2.376q4.58,0,7.054-2.358t2.474-7.332v-35.15Z" transform="translate(-224.916 -157.171)"/><path class="e" d="M451.543,211.591H439.194V157.945h12.349Z" transform="translate(-342.136 -157.171)"/><path class="e" d="M509.847,202.012h24.3v9.58H494.6v-5.6l23.855-38.466H494.493v-9.58h39.319v5.379Z" transform="translate(-381.433 -157.171)"/></g><g transform="translate(115.959 135.557)"><path d="M218.471,346.873l-.807,1.656h5.077a1.233,1.233,0,0,0-1.381-.921l-.609.094a.6.6,0,0,1-.549-.828h-1.732Z" transform="translate(-196.892 -307.765)"/><path d="M233.288,346.873l-.807,1.656h5.077a1.233,1.233,0,0,0-1.381-.921l-.609.094a.6.6,0,0,1-.549-.828h-1.732Z" transform="translate(-207.421 -307.765)"/><g transform="translate(0)"><path class="h" d="M191.351,311.265l-4.491-11.613-5.155-2.626-5.847,3.176-1.636-2.525,6.375.712,8.557-1.95a2.148,2.148,0,0,1,1.339,1.649l3.863,13.177Z" transform="translate(-166.02 -272.006)"/><path class="c" d="M178.19,297.4a2.151,2.151,0,0,1,1.134,1.7l2.94,12.846h-2.8l-4.131-10.956a46.738,46.738,0,0,1-8.818,1.285,3.489,3.489,0,0,1-3.305-3.324v-.594Z" transform="translate(-158.192 -272.686)"/><path class="i" d="M163.041,267.238l1.545-2.379-3.612-7.63a3.178,3.178,0,0,0-2.871-1.823h-4.6a3.863,3.863,0,0,0-3.363,1.97l-3.97,6.008a1.73,1.73,0,0,0,.72,2.526l4.007,1.829V269.3l8.753-1.048-.232-8.265Zm-13.21-2.846a.62.62,0,0,1-.246-.936l1.307-1.758v3.161Z" transform="translate(-145.879 -242.911)"/><path class="d" d="M176.629,224.7a3.576,3.576,0,0,0-2.7-3.174,3.64,3.64,0,0,0-4.046,1.611l-.14.227a3.687,3.687,0,0,0-.391,3l1.064,3.159.008,1.775,1.561.752,1.476-.752.026-1.92,1.411,0a1.815,1.815,0,0,0,1.783-1.82V226.2Z" transform="translate(-162.445 -218.801)"/><path class="e" d="M185.859,242.11a.8.8,0,1,1-1.594,0" transform="translate(-173.157 -233.483)"/><g transform="translate(6.177 23.219)"><g transform="translate(0.727 0.218)"><path class="d" d="M175.567,294.315h0a.387.387,0,0,0-.163-.52l-1.492-.782-1,.5,2.134.971A.383.383,0,0,0,175.567,294.315Z" transform="translate(-171.996 -293.012)"/><path class="d" d="M175,296.217h0a.387.387,0,0,0-.159-.519l-2.295-1.232-.355.684,2.288,1.228A.383.383,0,0,0,175,296.217Z" transform="translate(-171.482 -294.044)"/><path class="d" d="M173.471,298.382h0a.387.387,0,0,0-.163-.521l-1.989-1.043-.355.684,1.989,1.043A.382.382,0,0,0,173.471,298.382Z" transform="translate(-170.61 -295.711)"/><path class="d" d="M171.3,300.239h0a.387.387,0,0,0-.163-.521l-1.047-.549-.355.684,1.047.549A.383.383,0,0,0,171.3,300.239Z" transform="translate(-169.739 -297.378)"/></g><path class="d" d="M168.351,295.165l-.489-.256a.978.978,0,0,1-.313-.259l-.324-.409.9-1.839.042-.015a2.29,2.29,0,0,1,1.866.177Z" transform="translate(-167.226 -292.263)"/></g><path d="M170.391,217.565h0a3.994,3.994,0,0,1,4.858,2.535,2.789,2.789,0,0,1,.181.8l-1.557.1-.565-1.015-.246,1.055-2.712.19-1.782,4.256a13.11,13.11,0,0,1-1.043-2.412A4.158,4.158,0,0,1,170.391,217.565Z" transform="translate(-161.069 -215.985)"/><path class="d" d="M174.3,236.094a.731.731,0,1,1-.732-.735A.733.733,0,0,1,174.3,236.094Z" transform="translate(-165.036 -228.697)"/><path d="M177.386,213.906a1.438,1.438,0,1,1-1.438-1.446A1.442,1.442,0,0,1,177.386,213.906Z" transform="translate(-166.224 -212.46)"/><path d="M176.436,225.71v4.9a4.087,4.087,0,0,1-.578-2.833A7.162,7.162,0,0,1,176.436,225.71Z" transform="translate(-167.141 -221.855)"/></g><g transform="translate(13.944 17.686)"><path class="e" d="M204.707,297.563H194.066a1.071,1.071,0,0,1,1.068-1.074h9.574Z" transform="translate(-194.066 -289.726)"/><path d="M213.061,281.032h-9.339a.877.877,0,0,1-.854-1.062l1.283-6.03a.875.875,0,0,1,.854-.695h9.339a.877.877,0,0,1,.854,1.062l-1.283,6.03A.874.874,0,0,1,213.061,281.032Z" transform="translate(-200.307 -273.246)"/><path class="e" d="M223.048,284.653a.806.806,0,1,1-.806-.81A.808.808,0,0,1,223.048,284.653Z" transform="translate(-213.517 -280.76)"/></g></g><path class="f" d="M293.846,108.4A4.427,4.427,0,0,0,289.4,104h-3.53a4.364,4.364,0,1,0,0,8.729h2.235l2.776,1.07v-1.23A4.365,4.365,0,0,0,293.846,108.4Z" transform="translate(-126.277 0)"/><path class="c" d="M530.287,300.881a4.287,4.287,0,0,0,4.3,4.373h3.53a4.364,4.364,0,1,0,0-8.728h-2.235l-2.5-1.016v1.23A4.454,4.454,0,0,0,530.287,300.881Z" transform="translate(-303.093 -135.79)"/><path class="c" d="M196.075,181.3a4.18,4.18,0,0,1,4.243-4.3h3.53a4.364,4.364,0,1,1,0,8.729h-2.235l-2.377.88v-1.23A3.819,3.819,0,0,1,196.075,181.3Z" transform="translate(-65.591 -51.761)"/><g transform="translate(203.666 123.535)"><path class="c" d="M453.728,173.935a2.5,2.5,0,0,1-.334,1.4,4.95,4.95,0,0,1-1.2,1.081,2.179,2.179,0,0,0-.7.7,1.792,1.792,0,0,0-.257.96,1.3,1.3,0,0,0,.3.9,1.088,1.088,0,0,0,.855.335,1.067,1.067,0,0,0,.749-.275,1.1,1.1,0,0,0,.313-.819h2.2l.013.04a2.443,2.443,0,0,1-.885,2.1,3.791,3.791,0,0,1-2.388.7,3.646,3.646,0,0,1-2.5-.806,2.759,2.759,0,0,1-.911-2.176,2.621,2.621,0,0,1,.5-1.545,3.537,3.537,0,0,1,1.265-1.108,1.539,1.539,0,0,0,.578-.608,2.138,2.138,0,0,0,.15-.883Zm-2.251-2.794h2.244v1.813h-2.244Z" transform="translate(-448.979 -171.141)"/></g><g transform="translate(155.974 146.636)"><g transform="translate(0)"><path class="d" d="M286.1,257.665a2.488,2.488,0,0,1,.334-1.4,4.943,4.943,0,0,1,1.2-1.081,2.168,2.168,0,0,0,.7-.7,1.787,1.787,0,0,0,.257-.96,1.3,1.3,0,0,0-.3-.9,1.088,1.088,0,0,0-.855-.336,1.065,1.065,0,0,0-.748.275,1.1,1.1,0,0,0-.314.819h-2.2l-.014-.04a2.442,2.442,0,0,1,.885-2.1,3.788,3.788,0,0,1,2.388-.7,3.645,3.645,0,0,1,2.5.806,2.758,2.758,0,0,1,.912,2.176,2.623,2.623,0,0,1-.5,1.545,3.537,3.537,0,0,1-1.266,1.108,1.537,1.537,0,0,0-.578.607,2.151,2.151,0,0,0-.15.883Zm2.251,2.794h-2.245v-1.814h2.245Z" transform="translate(-284.163 -250.54)"/></g><g transform="translate(0)"><path class="d" d="M286.1,257.665a2.488,2.488,0,0,1,.334-1.4,4.943,4.943,0,0,1,1.2-1.081,2.168,2.168,0,0,0,.7-.7,1.787,1.787,0,0,0,.257-.96,1.3,1.3,0,0,0-.3-.9,1.088,1.088,0,0,0-.855-.336,1.065,1.065,0,0,0-.748.275,1.1,1.1,0,0,0-.314.819h-2.2l-.014-.04a2.442,2.442,0,0,1,.885-2.1,3.788,3.788,0,0,1,2.388-.7,3.645,3.645,0,0,1,2.5.806,2.758,2.758,0,0,1,.912,2.176,2.623,2.623,0,0,1-.5,1.545,3.537,3.537,0,0,1-1.266,1.108,1.537,1.537,0,0,0-.578.607,2.151,2.151,0,0,0-.15.883Zm2.251,2.794h-2.245v-1.814h2.245Z" transform="translate(-284.163 -250.54)"/></g></g><g transform="translate(117.206 128.495)"><path d="M152.451,194.5h-2.264v-6.313h2.264Zm0,3.465h-2.264v-1.9h2.264Z" transform="translate(-150.187 -188.188)"/></g><g transform="translate(244.673 114.362)"><path d="M592.957,145.926h-2.264v-6.313h2.264Zm0,3.466h-2.264v-1.9h2.264Z" transform="translate(-590.693 -139.613)"/></g><g transform="translate(156.251 113.055)"><path d="M328.777,302.749l-.306,1.516-3.783-1.967h0a1.1,1.1,0,0,1,1.48-.162l.448.327a.534.534,0,0,0,.778-.433h0Z" transform="translate(-313.24 -253.391)"/><path d="M363.34,302.749l.306,1.516,3.783-1.967h0a1.1,1.1,0,0,0-1.481-.162l-.447.327a.535.535,0,0,1-.778-.433h0Z" transform="translate(-340.707 -253.391)"/><path class="i" d="M343.325,226.429l-1.107-10.139-3.84-1.525-.353.136-.353-.136-3.84,1.525-1.107,10.139a2.731,2.731,0,0,0-.015.376l.384,13.425,1.382.719a16.955,16.955,0,0,0,1.38-5.845,45.228,45.228,0,0,0,.1-7.843l2.069-7.443,2.07,7.443a45.205,45.205,0,0,0,.1,7.843,16.965,16.965,0,0,0,1.38,5.845l1.382-.719.384-13.425A2.775,2.775,0,0,0,343.325,226.429Z" transform="translate(-318.94 -191.592)"/><g transform="translate(33.757 3.608)"><path class="d" d="M406.6,156.433l-2.922.936.206.65,2.922-.936a.341.341,0,0,0-.206-.65Z" transform="translate(-403.126 -153.828)"/><path class="d" d="M401.839,150.46l.23-.191a5.874,5.874,0,0,0,3.143-2.413l.056-.086a.543.543,0,0,1,.829-.1h0a.549.549,0,0,1,.127.623h0a5.886,5.886,0,0,1-2.971,3l-1.473.663Z" transform="translate(-401.78 -147.52)"/></g><g transform="translate(0 3.608)"><path class="d" d="M287.561,156.433l2.922.936-.206.65-2.922-.936a.341.341,0,0,1,.206-.65Z" transform="translate(-286.541 -153.828)"/><path class="d" d="M289.554,150.46l-.23-.191a5.874,5.874,0,0,1-3.143-2.413l-.056-.086a.543.543,0,0,0-.829-.1h0a.55.55,0,0,0-.127.623h0a5.887,5.887,0,0,0,2.971,3l1.473.663Z" transform="translate(-285.123 -147.52)"/></g><path class="c" d="M328.546,156.925l-13.432,4.4H312.24l-13.432-4.4-.414,1.473,10.523,5.066.315,11.813h8.89l.315-11.813,10.523-5.108Z" transform="translate(-294.554 -150.581)"/><path class="d" d="M348.581,141.447a3.62,3.62,0,0,0-2.738-3.214,3.686,3.686,0,0,0-4.1,1.631l-.142.23a3.732,3.732,0,0,0-.4,3.034l1.077,3.2-.057,1.552,1.69,1.525,1.508-1.419v-1.851l1.4.042a1.838,1.838,0,0,0,1.805-1.843v-1.372Z" transform="translate(-324.867 -137.238)"/><path d="M340.883,154.109h0a1.207,1.207,0,0,0,1.2-1.216l-.062-12.884,5.631-1.5a2.725,2.725,0,0,0-.177-.78,3.9,3.9,0,0,0-4.74-2.473h0a4.068,4.068,0,0,0-3.061,3.969c0,.153,0,9.676,0,13.681A1.205,1.205,0,0,0,340.883,154.109Z" transform="translate(-323.892 -135.12)"/><path class="e" d="M357.928,159.074a.807.807,0,1,1-1.614,0" transform="translate(-335.714 -152.105)"/><path class="d" d="M346.9,152.311a.954.954,0,1,1-.954-.96A.957.957,0,0,1,346.9,152.311Z" transform="translate(-327.668 -146.629)"/></g><g transform="translate(212.051 117.486)"><path d="M510.187,238.72V245.6a.823.823,0,0,0,.657.826.792.792,0,0,0,.922-.784v-1.986a.8.8,0,0,1,.8-.794c.372,0,.777.259.777.606v6.7A.823.823,0,0,0,514,251a.792.792,0,0,0,.923-.783l-.014-5.182a.8.8,0,0,1,.834-.81h0a.8.8,0,0,1,.761.8v1.575a.822.822,0,0,0,.657.826.792.792,0,0,0,.923-.783v-9.283Z" transform="translate(-500.861 -212.04)"/><path class="d" d="M505.246,157.15h7.976l2.155-4.608a1.535,1.535,0,0,0-1.539-2.183h0a1.523,1.523,0,0,0-.7.259l-3.9,2.671-3.9-2.671a1.521,1.521,0,0,0-.7-.259h0a1.535,1.535,0,0,0-1.539,2.183Z" transform="translate(-495.714 -150.35)"/><g transform="translate(0 25.105)"><path class="d" d="M478.543,241.355l2.052-2.26-.5-.456-2.052,2.26a.34.34,0,0,0,.022.478A.335.335,0,0,0,478.543,241.355Z" transform="translate(-477.958 -238.056)"/><path class="d" d="M482.831,237.947l-.1.279a5.872,5.872,0,0,0-1.515,3.639l-.005.1a.541.541,0,0,1-.662.5h0a.542.542,0,0,1-.416-.472h0a5.878,5.878,0,0,1,1.078-4.058l.94-1.3Z" transform="translate(-479.478 -236.635)"/></g><g transform="translate(2.241 6.141)"><path class="d" d="M565.7,241.355l-2.052-2.26.5-.456,2.052,2.26a.339.339,0,0,1-.021.478A.335.335,0,0,1,565.7,241.355Z" transform="translate(-541.097 -219.092)"/><path class="d" d="M561.178,237.947l.1.279a5.873,5.873,0,0,1,1.515,3.639l.005.1a.541.541,0,0,0,.662.5h0a.543.543,0,0,0,.416-.472h0a5.879,5.879,0,0,0-1.077-4.058l-.94-1.3Z" transform="translate(-539.338 -217.671)"/><path class="f" d="M508.654,190.971l-6.842-9.27-.842-9.586-.548-.162a12.1,12.1,0,0,0-6.774-.026l-.654.188-.513,9.672-6.779,9.184L486.763,192l5.173-5.457a7.232,7.232,0,0,1,5.232-2.261h0a7.232,7.232,0,0,1,5.251,2.244l5.175,5.425Z" transform="translate(-485.702 -171.456)"/></g><path class="d" d="M509.287,220.033a3.5,3.5,0,0,0,2.651,3.11,3.568,3.568,0,0,0,3.965-1.578l.137-.222a3.613,3.613,0,0,0,.383-2.937l-1.043-2.6-.009-1.847-1.467-1.119-1.5,1.12-.034,1.988-1.383,0a1.779,1.779,0,0,0-1.748,1.784v.828Z" transform="translate(-500.188 -194.661)"/><path class="e" d="M514.424,228.179a.781.781,0,1,1,1.562,0" transform="translate(-503.872 -204.978)"/><path d="M514.15,229.464l-5.25,1.128a2.788,2.788,0,0,0,.182.8,4.014,4.014,0,0,0,4.883,2.548,4.255,4.255,0,0,0,3.207-4,5.428,5.428,0,0,0-1.613-3.32Z" transform="translate(-499.946 -204.435)"/><path class="d" d="M524.843,232.041a.894.894,0,1,1,.894.9A.9.9,0,0,1,524.843,232.041Z" transform="translate(-511.276 -207.635)"/></g><g transform="translate(185.788 144.855)"><path d="M412.289,286.561c-.6-1.974-1.469-2.813-3.08-2.913-.713-.045-6.684-.045-7.4,0-1.612.1-2.357,1.116-2.964,3.122l-1.36,5.533a2.121,2.121,0,0,0,.514,1.72l1.837,2.061.854-7.285,1.577,8.687h7.081l1.173-8.687,1.16,7.232,1.791-2.042a2.121,2.121,0,0,0,.5-1.722Z" transform="translate(-394.493 -272.21)"/><path class="d" d="M408.8,254.176a3.59,3.59,0,0,1,2.716-3.187,3.655,3.655,0,0,1,4.062,1.617l.14.228a3.7,3.7,0,0,1,.393,3.009l-1.068,2.659-.01,1.893-1.5,1.147L412,260.394l-.034-2.037-1.417,0a1.822,1.822,0,0,1-1.79-1.827v-.848Z" transform="translate(-402.517 -248.989)"/><path class="e" d="M414.067,269.893a.8.8,0,1,0,1.6,0" transform="translate(-406.292 -262.481)"/><path class="c" d="M414.965,255.5l1.115-1.932a4.254,4.254,0,0,0,.351-.779l.007-.02a4.192,4.192,0,0,0-2.525-5.328q-.155-.052-.317-.092a4.113,4.113,0,0,0-5,2.61,2.868,2.868,0,0,0-.186.824l2.633,1.928a1.423,1.423,0,0,0,1.932-.235l.537-.64Z" transform="translate(-402.269 -246.398)"/><path class="d" d="M424.741,263.407a.916.916,0,1,0,.916-.921A.919.919,0,0,0,424.741,263.407Z" transform="translate(-413.877 -257.23)"/><path class="d" d="M409.312,328.977a2.071,2.071,0,0,0-2.313-.848l-4,1.076h-9.177l-4-1.076a2.1,2.1,0,0,0-2.313.9,2.2,2.2,0,0,0,.977,3.157l7.131,2.255h7.552l5.157-2.281A2.231,2.231,0,0,0,409.312,328.977Z" transform="translate(-387.196 -303.723)"/><path d="M434.06,344.756l.532.6,5.113.068h0a1.263,1.263,0,0,0-1.385-.987l-.626.076a2.681,2.681,0,0,1-1.89-.921Z" transform="translate(-420.499 -314.735)"/><path d="M400.836,346.492a2.111,2.111,0,0,1-.458.054l-.626-.076a1.262,1.262,0,0,0-1.384.987l5.2-.06Z" transform="translate(-395.135 -316.772)"/><g transform="translate(4.793 19.851)"><path class="e" d="M415.029,320.624h-9.7a.944.944,0,0,1-.936-.849l-.628-6.082a.945.945,0,0,1,.936-1.044h10.97a.944.944,0,0,1,.936,1.046l-.642,6.082A.943.943,0,0,1,415.029,320.624Z" transform="translate(-403.759 -312.649)"/><path class="f" d="M424.766,324.332a.825.825,0,1,1-.825-.83A.828.828,0,0,1,424.766,324.332Z" transform="translate(-417.514 -320.344)"/></g><path d="M401.954,249.078c.018-.228.052-.883.069-1.244.157-1.917,2.22-3.46,4.365-3.414a4.443,4.443,0,0,1,4.032,2.988,4.1,4.1,0,0,1,.235,1.17l-.02.454-11.026.633-.026-.451Z" transform="translate(-395.999 -244.42)"/></g></g></g></svg>